%TF.GenerationSoftware,KiCad,Pcbnew,10.0.0*%
%TF.CreationDate,2026-04-17T15:28:17+03:00*%
%TF.ProjectId,5V MicroSD Card Slot With ESD,3556204d-6963-4726-9f53-442043617264,rev?*%
%TF.SameCoordinates,Original*%
%TF.FileFunction,Copper,L2,Bot*%
%TF.FilePolarity,Positive*%
%FSLAX46Y46*%
G04 Gerber Fmt 4.6, Leading zero omitted, Abs format (unit mm)*
G04 Created by KiCad (PCBNEW 10.0.0) date 2026-04-17 15:28:17*
%MOMM*%
%LPD*%
G01*
G04 APERTURE LIST*
%TA.AperFunction,ComponentPad*%
%ADD10R,1.700000X1.700000*%
%TD*%
%TA.AperFunction,ComponentPad*%
%ADD11C,1.700000*%
%TD*%
%TA.AperFunction,ComponentPad*%
%ADD12C,3.800000*%
%TD*%
%TA.AperFunction,ViaPad*%
%ADD13C,0.800000*%
%TD*%
%TA.AperFunction,ViaPad*%
%ADD14C,0.600000*%
%TD*%
%TA.AperFunction,Conductor*%
%ADD15C,0.500000*%
%TD*%
%TA.AperFunction,Conductor*%
%ADD16C,0.250000*%
%TD*%
%TA.AperFunction,Profile*%
%ADD17C,0.050000*%
%TD*%
G04 APERTURE END LIST*
D10*
%TO.P,J2,1,Pin_1_1*%
%TO.N,Net-(J2-Pin_1)*%
X101700000Y-91480000D03*
D11*
%TO.P,J2,2,Pin_2_2*%
%TO.N,Net-(J2-Pin_2)*%
X101700000Y-94020000D03*
%TO.P,J2,3,Pin_3_3*%
%TO.N,Net-(J2-Pin_3)*%
X101700000Y-96560000D03*
%TO.P,J2,4,Pin_4_4*%
%TO.N,Net-(J2-Pin_4)*%
X101700000Y-99100000D03*
%TO.P,J2,5,Pin_5_5*%
%TO.N,Net-(J2-Pin_5)*%
X101700000Y-101640000D03*
%TO.P,J2,6,Pin_6_6*%
%TO.N,GND*%
X101700000Y-104180000D03*
%TD*%
D12*
%TO.P,M2,1*%
%TO.N,N/C*%
X129300000Y-110400000D03*
%TD*%
%TO.P,M1,1*%
%TO.N,N/C*%
X108300000Y-85500000D03*
%TD*%
D13*
%TO.N,Net-(J2-Pin_5)*%
X104100000Y-89300000D03*
X104100000Y-100100000D03*
%TO.N,GND*%
X114200000Y-111100000D03*
X106000000Y-97200000D03*
X133500000Y-85800000D03*
X121100000Y-100800000D03*
D14*
%TO.N,Net-(J1-DAT3{slash}CD)*%
X106800000Y-101600000D03*
X115600000Y-94000000D03*
X119200000Y-96400000D03*
X111600000Y-94000000D03*
%TO.N,Net-(J1-DAT0)*%
X112200000Y-93400000D03*
X115900000Y-98400000D03*
X106800000Y-100800000D03*
X127700000Y-84800000D03*
%TO.N,Net-(J1-CMD)*%
X119955000Y-97455000D03*
X116400000Y-92700000D03*
%TO.N,Net-(J1-CLK)*%
X133500000Y-86700000D03*
X117800000Y-91100000D03*
D13*
%TO.N,Net-(J1-VDD)*%
X114000000Y-88500000D03*
X114000000Y-99200000D03*
X120100000Y-98600000D03*
%TD*%
%TO.N,Net-(J2-Pin_5)*%
D15*
X104100000Y-100100000D02*
X104100000Y-89300000D01*
%TO.N,Net-(J1-DAT3{slash}CD)*%
D16*
X107200000Y-101600000D02*
X107600000Y-101200000D01*
X118800000Y-94000000D02*
X115600000Y-94000000D01*
X107600000Y-101200000D02*
X107600000Y-98600000D01*
X110318198Y-95881802D02*
X110318198Y-94418198D01*
X119200000Y-94400000D02*
X118800000Y-94000000D01*
X106800000Y-101600000D02*
X107200000Y-101600000D01*
X107600000Y-98600000D02*
X110318198Y-95881802D01*
X110736396Y-94000000D02*
X111600000Y-94000000D01*
X119200000Y-96400000D02*
X119200000Y-94400000D01*
X110318198Y-94418198D02*
X110736396Y-94000000D01*
%TO.N,Net-(J1-DAT0)*%
X114975000Y-97475000D02*
X114975000Y-86925000D01*
X106800000Y-100800000D02*
X106800000Y-98500000D01*
X114975000Y-86925000D02*
X117100000Y-84800000D01*
X109700000Y-94400000D02*
X110725000Y-93375000D01*
X106800000Y-98500000D02*
X109700000Y-95600000D01*
X110725000Y-93375000D02*
X112175000Y-93375000D01*
X109700000Y-95600000D02*
X109700000Y-94400000D01*
X117100000Y-84800000D02*
X127700000Y-84800000D01*
X112175000Y-93375000D02*
X112200000Y-93400000D01*
X115900000Y-98400000D02*
X114975000Y-97475000D01*
%TO.N,Net-(J1-CMD)*%
X119955000Y-94518604D02*
X119955000Y-97455000D01*
X118136396Y-92700000D02*
X119955000Y-94518604D01*
X116400000Y-92700000D02*
X118136396Y-92700000D01*
%TO.N,Net-(J1-CLK)*%
X120200000Y-88700000D02*
X133500000Y-88700000D01*
X133500000Y-86700000D02*
X133500000Y-88700000D01*
X117800000Y-91100000D02*
X120200000Y-88700000D01*
%TO.N,Net-(J1-VDD)*%
D15*
X120100000Y-98600000D02*
X119500000Y-99200000D01*
X119500000Y-99200000D02*
X114000000Y-99200000D01*
X114000000Y-88500000D02*
X114000000Y-99200000D01*
%TD*%
%TA.AperFunction,Conductor*%
%TO.N,GND*%
G36*
X106682615Y-83455521D02*
G01*
X106693468Y-83458707D01*
X106752249Y-83496477D01*
X106781278Y-83560031D01*
X106771343Y-83629181D01*
X106769635Y-83632921D01*
X106745273Y-83661043D01*
X106747944Y-83663611D01*
X106738163Y-83673788D01*
X106726072Y-83684810D01*
X106697920Y-83707259D01*
X106507258Y-83897921D01*
X106339163Y-84108707D01*
X106339162Y-84108709D01*
X106195715Y-84337003D01*
X106195710Y-84337010D01*
X106078740Y-84579901D01*
X106078731Y-84579923D01*
X105990146Y-84833084D01*
X105989764Y-84834137D01*
X105989681Y-84834412D01*
X105929688Y-85097265D01*
X105929683Y-85097292D01*
X105899500Y-85365181D01*
X105899500Y-85634817D01*
X105929683Y-85902706D01*
X105929688Y-85902733D01*
X105989681Y-86165586D01*
X105989763Y-86165859D01*
X105990146Y-86166914D01*
X106078731Y-86420075D01*
X106078737Y-86420089D01*
X106195713Y-86662992D01*
X106195917Y-86663350D01*
X106196603Y-86664409D01*
X106339162Y-86891289D01*
X106372822Y-86933497D01*
X106488993Y-87079172D01*
X106507266Y-87102085D01*
X106697915Y-87292734D01*
X106908711Y-87460838D01*
X107137003Y-87604284D01*
X107379921Y-87721267D01*
X107571049Y-87788145D01*
X107624540Y-87806862D01*
X107630787Y-87809658D01*
X107631645Y-87809814D01*
X107637109Y-87810933D01*
X107869925Y-87864071D01*
X107897268Y-87870312D01*
X107897272Y-87870312D01*
X107897281Y-87870314D01*
X108026150Y-87884833D01*
X108147790Y-87898538D01*
X108155393Y-87900500D01*
X108434812Y-87900500D01*
X108460310Y-87900500D01*
X108465444Y-87897696D01*
X108477914Y-87895642D01*
X108626388Y-87878913D01*
X108702718Y-87870314D01*
X108702721Y-87870313D01*
X108702732Y-87870312D01*
X108965591Y-87810316D01*
X109220079Y-87721267D01*
X109462997Y-87604284D01*
X109691289Y-87460838D01*
X109902085Y-87292734D01*
X110092734Y-87102085D01*
X110260838Y-86891289D01*
X110404284Y-86662997D01*
X110404285Y-86662995D01*
X110404287Y-86662992D01*
X110521267Y-86420079D01*
X110601877Y-86189707D01*
X110610316Y-86165591D01*
X110670312Y-85902732D01*
X110700500Y-85634809D01*
X110700500Y-85365191D01*
X110670312Y-85097268D01*
X110610316Y-84834409D01*
X110609852Y-84833084D01*
X110569923Y-84718972D01*
X110521267Y-84579921D01*
X110404284Y-84337003D01*
X110260838Y-84108711D01*
X110092734Y-83897915D01*
X109902085Y-83707266D01*
X109873927Y-83684810D01*
X109871106Y-83682560D01*
X109846928Y-83656855D01*
X109840431Y-83647599D01*
X109818027Y-83581419D01*
X109834960Y-83513632D01*
X109885853Y-83465761D01*
X109885855Y-83465759D01*
X109889522Y-83463900D01*
X109945591Y-83450500D01*
X138867670Y-83450500D01*
X138902606Y-83455523D01*
X138917604Y-83459927D01*
X138976355Y-83497672D01*
X138977542Y-83499041D01*
X139005018Y-83553902D01*
X139006663Y-83561460D01*
X139009500Y-83587831D01*
X139009500Y-112307670D01*
X139004475Y-112342614D01*
X139000070Y-112357612D01*
X138962327Y-112416355D01*
X138960958Y-112417542D01*
X138906097Y-112445018D01*
X138898539Y-112446663D01*
X138872168Y-112449500D01*
X130952312Y-112449500D01*
X130917377Y-112444477D01*
X130906523Y-112441290D01*
X130847745Y-112403516D01*
X130818720Y-112339960D01*
X130828656Y-112270820D01*
X130830369Y-112267069D01*
X130865854Y-112221626D01*
X130902085Y-112192734D01*
X131092734Y-112002085D01*
X131260838Y-111791289D01*
X131404284Y-111562997D01*
X131521267Y-111320079D01*
X131610316Y-111065591D01*
X131670312Y-110802732D01*
X131700500Y-110534809D01*
X131700500Y-110265191D01*
X131670312Y-109997268D01*
X131610316Y-109734409D01*
X131609852Y-109733084D01*
X131588145Y-109671049D01*
X131521267Y-109479921D01*
X131404284Y-109237003D01*
X131260838Y-109008711D01*
X131092734Y-108797915D01*
X130902085Y-108607266D01*
X130691289Y-108439162D01*
X130464409Y-108296603D01*
X130463350Y-108295917D01*
X130462992Y-108295713D01*
X130220089Y-108178737D01*
X130220075Y-108178731D01*
X129973237Y-108092358D01*
X129973231Y-108092356D01*
X129965602Y-108089687D01*
X129965594Y-108089684D01*
X129768446Y-108044687D01*
X129768304Y-108044654D01*
X129768164Y-108044622D01*
X129703981Y-108029973D01*
X129702947Y-108029725D01*
X129702737Y-108029688D01*
X129702719Y-108029686D01*
X129702719Y-108029684D01*
X129702638Y-108029670D01*
X129702528Y-108029664D01*
X129434817Y-107999500D01*
X129434813Y-107999500D01*
X129434809Y-107999500D01*
X129165191Y-107999500D01*
X129165186Y-107999500D01*
X129165181Y-107999500D01*
X128897292Y-108029683D01*
X128897265Y-108029688D01*
X128634412Y-108089681D01*
X128634137Y-108089764D01*
X128633084Y-108090146D01*
X128379923Y-108178731D01*
X128379901Y-108178740D01*
X128137010Y-108295710D01*
X127908709Y-108439162D01*
X127908707Y-108439163D01*
X127697921Y-108607258D01*
X127507258Y-108797921D01*
X127339163Y-109008707D01*
X127339162Y-109008709D01*
X127195710Y-109237010D01*
X127078740Y-109479901D01*
X127078731Y-109479923D01*
X126990146Y-109733084D01*
X126989764Y-109734137D01*
X126989681Y-109734412D01*
X126929688Y-109997265D01*
X126929683Y-109997292D01*
X126899500Y-110265181D01*
X126899500Y-110534817D01*
X126929683Y-110802706D01*
X126929688Y-110802733D01*
X126989681Y-111065586D01*
X126989763Y-111065859D01*
X126990146Y-111066914D01*
X127078731Y-111320075D01*
X127078737Y-111320089D01*
X127195713Y-111562992D01*
X127195917Y-111563350D01*
X127196603Y-111564409D01*
X127339162Y-111791289D01*
X127507266Y-112002085D01*
X127697915Y-112192734D01*
X127728894Y-112217439D01*
X127753072Y-112243144D01*
X127759569Y-112252400D01*
X127781973Y-112318580D01*
X127765040Y-112386367D01*
X127714169Y-112434227D01*
X127710502Y-112436087D01*
X127654409Y-112449500D01*
X100152330Y-112449500D01*
X100117389Y-112444475D01*
X100102390Y-112440070D01*
X100043644Y-112402327D01*
X100042457Y-112400958D01*
X100014977Y-112346083D01*
X100013332Y-112338521D01*
X100010500Y-112312168D01*
X100010500Y-90582115D01*
X100349500Y-90582115D01*
X100349500Y-92377876D01*
X100349659Y-92379806D01*
X100349885Y-92381454D01*
X100355907Y-92437482D01*
X100383690Y-92511971D01*
X100406202Y-92572328D01*
X100406206Y-92572335D01*
X100440240Y-92617798D01*
X100492450Y-92687542D01*
X100492456Y-92687548D01*
X100521419Y-92709229D01*
X100607664Y-92773793D01*
X100607671Y-92773797D01*
X100722376Y-92816579D01*
X100753350Y-92833491D01*
X100764461Y-92841808D01*
X100806334Y-92897740D01*
X100811321Y-92967432D01*
X100811318Y-92967445D01*
X100810342Y-92971930D01*
X100776860Y-93033244D01*
X100669886Y-93140218D01*
X100544949Y-93312182D01*
X100448445Y-93501580D01*
X100382753Y-93703759D01*
X100370809Y-93779172D01*
X100349500Y-93913707D01*
X100349500Y-94126286D01*
X100356382Y-94169737D01*
X100356382Y-94169738D01*
X100382728Y-94336090D01*
X100382754Y-94336243D01*
X100439305Y-94510290D01*
X100448442Y-94538410D01*
X100448443Y-94538412D01*
X100543684Y-94725335D01*
X100544951Y-94727820D01*
X100669890Y-94899786D01*
X100820213Y-95050109D01*
X100992182Y-95175050D01*
X100992190Y-95175054D01*
X100992693Y-95175363D01*
X100994174Y-95176496D01*
X100996122Y-95177912D01*
X100996086Y-95177960D01*
X101013034Y-95190934D01*
X101023315Y-95200643D01*
X101058541Y-95260983D01*
X101055552Y-95330789D01*
X101019383Y-95384507D01*
X101012227Y-95390708D01*
X100995814Y-95402723D01*
X100992190Y-95404943D01*
X100820210Y-95529892D01*
X100669892Y-95680210D01*
X100544949Y-95852182D01*
X100448445Y-96041580D01*
X100382753Y-96243758D01*
X100349500Y-96453707D01*
X100349500Y-96453713D01*
X100349500Y-96666287D01*
X100364998Y-96764137D01*
X100382754Y-96876244D01*
X100382754Y-96876247D01*
X100447599Y-97075817D01*
X100448441Y-97078407D01*
X100448443Y-97078411D01*
X100448444Y-97078414D01*
X100544951Y-97267820D01*
X100669890Y-97439786D01*
X100820213Y-97590109D01*
X100992182Y-97715050D01*
X100992190Y-97715054D01*
X100992693Y-97715363D01*
X100994174Y-97716496D01*
X100996122Y-97717912D01*
X100996086Y-97717960D01*
X101013034Y-97730934D01*
X101023315Y-97740643D01*
X101058541Y-97800983D01*
X101055552Y-97870789D01*
X101019383Y-97924507D01*
X101012227Y-97930708D01*
X100995814Y-97942723D01*
X100992190Y-97944943D01*
X100820210Y-98069892D01*
X100669892Y-98220210D01*
X100544949Y-98392182D01*
X100448445Y-98581580D01*
X100382752Y-98783759D01*
X100349500Y-98993707D01*
X100349500Y-99206291D01*
X100379866Y-99398013D01*
X100382752Y-99416237D01*
X100382753Y-99416239D01*
X100382754Y-99416243D01*
X100443222Y-99602345D01*
X100448444Y-99618414D01*
X100544951Y-99807820D01*
X100669890Y-99979786D01*
X100820213Y-100130109D01*
X100992182Y-100255050D01*
X100992190Y-100255054D01*
X100992693Y-100255363D01*
X100994174Y-100256496D01*
X100996122Y-100257912D01*
X100996086Y-100257960D01*
X101013034Y-100270934D01*
X101023315Y-100280643D01*
X101058541Y-100340983D01*
X101055552Y-100410789D01*
X101019383Y-100464507D01*
X101012227Y-100470708D01*
X100995814Y-100482723D01*
X100992190Y-100484943D01*
X100820210Y-100609892D01*
X100669892Y-100760210D01*
X100669890Y-100760213D01*
X100544951Y-100932179D01*
X100544950Y-100932180D01*
X100448445Y-101121580D01*
X100382752Y-101323759D01*
X100349500Y-101533707D01*
X100349500Y-101746290D01*
X100363311Y-101833489D01*
X100382754Y-101956244D01*
X100382754Y-101956247D01*
X100432805Y-102110286D01*
X100448442Y-102158410D01*
X100448443Y-102158412D01*
X100530645Y-102319744D01*
X100544951Y-102347820D01*
X100669890Y-102519786D01*
X100669892Y-102519788D01*
X100820216Y-102670112D01*
X100992178Y-102795048D01*
X100993031Y-102795567D01*
X100993303Y-102795865D01*
X100996311Y-102798051D01*
X100996195Y-102798209D01*
X101013741Y-102811361D01*
X101023865Y-102820921D01*
X101037665Y-102844560D01*
X101040085Y-102847216D01*
X101040439Y-102849312D01*
X101059091Y-102881259D01*
X101056105Y-102951065D01*
X101019938Y-103004785D01*
X101012614Y-103011132D01*
X100994059Y-103024432D01*
X100992440Y-103025379D01*
X100938282Y-103064726D01*
X100938281Y-103064727D01*
X101443850Y-103570296D01*
X101477335Y-103631619D01*
X101472351Y-103701311D01*
X101430479Y-103757244D01*
X101418173Y-103765362D01*
X101392996Y-103779898D01*
X101392990Y-103779903D01*
X101299903Y-103872990D01*
X101299898Y-103872996D01*
X101285362Y-103898173D01*
X101234793Y-103946387D01*
X101166185Y-103959607D01*
X101101322Y-103933637D01*
X101090296Y-103923850D01*
X100584728Y-103418282D01*
X100584727Y-103418282D01*
X100545380Y-103472438D01*
X100448903Y-103661784D01*
X100383242Y-103863865D01*
X100381798Y-103872990D01*
X100350000Y-104073753D01*
X100350000Y-104286246D01*
X100375860Y-104449519D01*
X100381715Y-104486485D01*
X100381716Y-104486493D01*
X100383242Y-104496133D01*
X100417886Y-104602754D01*
X100448904Y-104698217D01*
X100545374Y-104887548D01*
X100545375Y-104887550D01*
X100580674Y-104936137D01*
X100584728Y-104941716D01*
X101090297Y-104436147D01*
X101151619Y-104402663D01*
X101221311Y-104407647D01*
X101277244Y-104449519D01*
X101285363Y-104461828D01*
X101299896Y-104487000D01*
X101299899Y-104487004D01*
X101299901Y-104487007D01*
X101392993Y-104580099D01*
X101418169Y-104594634D01*
X101466384Y-104645202D01*
X101479606Y-104713809D01*
X101453638Y-104778673D01*
X101443849Y-104789702D01*
X100938282Y-105295268D01*
X100938282Y-105295269D01*
X100938282Y-105295270D01*
X100992449Y-105334624D01*
X101181782Y-105431095D01*
X101181784Y-105431096D01*
X101383866Y-105496756D01*
X101383867Y-105496756D01*
X101383870Y-105496757D01*
X101593754Y-105530000D01*
X101806245Y-105530000D01*
X101806246Y-105530000D01*
X101919050Y-105512132D01*
X102006487Y-105498284D01*
X102006493Y-105498283D01*
X102016127Y-105496757D01*
X102016130Y-105496757D01*
X102218217Y-105431095D01*
X102407554Y-105334622D01*
X102409976Y-105332862D01*
X102429121Y-105318953D01*
X102455858Y-105309412D01*
X102461717Y-105295269D01*
X101956149Y-104789702D01*
X101922664Y-104728379D01*
X101927648Y-104658688D01*
X101969519Y-104602754D01*
X101981822Y-104594639D01*
X102007007Y-104580099D01*
X102100099Y-104487007D01*
X102114634Y-104461830D01*
X102165199Y-104413616D01*
X102233805Y-104400391D01*
X102298671Y-104426358D01*
X102309702Y-104436149D01*
X102815269Y-104941717D01*
X102815269Y-104941716D01*
X102815270Y-104941717D01*
X102815270Y-104941716D01*
X102828738Y-104936137D01*
X102834955Y-104914967D01*
X102838954Y-104909118D01*
X102854621Y-104887555D01*
X102854625Y-104887548D01*
X102951095Y-104698217D01*
X103016757Y-104496130D01*
X103016757Y-104496127D01*
X103050000Y-104286246D01*
X103050000Y-104073753D01*
X103036260Y-103987007D01*
X103018284Y-103873511D01*
X103018283Y-103873505D01*
X103018283Y-103873506D01*
X103016756Y-103863865D01*
X102989473Y-103779898D01*
X102951095Y-103661782D01*
X102854624Y-103472449D01*
X102815270Y-103418282D01*
X102815269Y-103418282D01*
X102815268Y-103418282D01*
X102309702Y-103923849D01*
X102248379Y-103957334D01*
X102178687Y-103952350D01*
X102122754Y-103910478D01*
X102114634Y-103898169D01*
X102100099Y-103872993D01*
X102007007Y-103779901D01*
X102007004Y-103779899D01*
X102007000Y-103779896D01*
X101981828Y-103765363D01*
X101933613Y-103714796D01*
X101920391Y-103646189D01*
X101946359Y-103581324D01*
X101956135Y-103570310D01*
X102461716Y-103064728D01*
X102461715Y-103064727D01*
X102427934Y-103040184D01*
X102427888Y-103040151D01*
X102407547Y-103025373D01*
X102407547Y-103025372D01*
X102406190Y-103024681D01*
X102398690Y-103019333D01*
X102395977Y-103015878D01*
X102385539Y-103008521D01*
X102376129Y-102999634D01*
X102355612Y-102964486D01*
X102355533Y-102964386D01*
X102355529Y-102964344D01*
X102340905Y-102939292D01*
X102343897Y-102869487D01*
X102380070Y-102815767D01*
X102387084Y-102809690D01*
X102404083Y-102798282D01*
X102403663Y-102797596D01*
X102407814Y-102795052D01*
X102407813Y-102795052D01*
X102407816Y-102795051D01*
X102487007Y-102737515D01*
X102579786Y-102670109D01*
X102579786Y-102670107D01*
X102579847Y-102670064D01*
X102580609Y-102669286D01*
X102730104Y-102519792D01*
X102730106Y-102519788D01*
X102730109Y-102519786D01*
X102855048Y-102347820D01*
X102855047Y-102347820D01*
X102855051Y-102347816D01*
X102855053Y-102347810D01*
X102875445Y-102319744D01*
X102883730Y-102291529D01*
X102951557Y-102158412D01*
X103017246Y-101956243D01*
X103050500Y-101746287D01*
X103050500Y-101533713D01*
X103017246Y-101323757D01*
X102951557Y-101121588D01*
X102855051Y-100932184D01*
X102855049Y-100932181D01*
X102855048Y-100932179D01*
X102854702Y-100931703D01*
X102854700Y-100931699D01*
X102730112Y-100760216D01*
X102579782Y-100609886D01*
X102407824Y-100484953D01*
X102407258Y-100484606D01*
X102405627Y-100483357D01*
X102403901Y-100482103D01*
X102403932Y-100482059D01*
X102386960Y-100469062D01*
X102376683Y-100459357D01*
X102341457Y-100399017D01*
X102344445Y-100329212D01*
X102380612Y-100275495D01*
X102387783Y-100269281D01*
X102404194Y-100257269D01*
X102407792Y-100255063D01*
X102407816Y-100255051D01*
X102479678Y-100202841D01*
X102499152Y-100188693D01*
X102579769Y-100130121D01*
X102579786Y-100130109D01*
X102579786Y-100130107D01*
X102579846Y-100130064D01*
X102580605Y-100129290D01*
X102730104Y-99979792D01*
X102730106Y-99979788D01*
X102730109Y-99979786D01*
X102855048Y-99807820D01*
X102855049Y-99807817D01*
X102855051Y-99807816D01*
X102855052Y-99807813D01*
X102879438Y-99774249D01*
X102897110Y-99730707D01*
X102941622Y-99699326D01*
X102940430Y-99676969D01*
X102949690Y-99622921D01*
X102951554Y-99618419D01*
X102951556Y-99618414D01*
X102951557Y-99618412D01*
X103017246Y-99416243D01*
X103050500Y-99206287D01*
X103050500Y-98993713D01*
X103017246Y-98783757D01*
X102951557Y-98581588D01*
X102855051Y-98392184D01*
X102855049Y-98392181D01*
X102855048Y-98392179D01*
X102854702Y-98391703D01*
X102854700Y-98391699D01*
X102730112Y-98220216D01*
X102579782Y-98069886D01*
X102407824Y-97944953D01*
X102407258Y-97944606D01*
X102405627Y-97943357D01*
X102403901Y-97942103D01*
X102403932Y-97942059D01*
X102386960Y-97929062D01*
X102376683Y-97919357D01*
X102341457Y-97859017D01*
X102344445Y-97789212D01*
X102380612Y-97735495D01*
X102387783Y-97729281D01*
X102404194Y-97717269D01*
X102407797Y-97715060D01*
X102407816Y-97715051D01*
X102441458Y-97690609D01*
X102444375Y-97688490D01*
X102467886Y-97671408D01*
X102579786Y-97590109D01*
X102579788Y-97590106D01*
X102579792Y-97590104D01*
X102579799Y-97590096D01*
X102579851Y-97590059D01*
X102580593Y-97589303D01*
X102730104Y-97439792D01*
X102730106Y-97439788D01*
X102730109Y-97439786D01*
X102855048Y-97267820D01*
X102855047Y-97267820D01*
X102855051Y-97267816D01*
X102855053Y-97267810D01*
X102875445Y-97239744D01*
X102883730Y-97211529D01*
X102951557Y-97078412D01*
X103017246Y-96876243D01*
X103050500Y-96666287D01*
X103050500Y-96453713D01*
X103017246Y-96243757D01*
X102951557Y-96041588D01*
X102855051Y-95852184D01*
X102855049Y-95852181D01*
X102855048Y-95852179D01*
X102854702Y-95851703D01*
X102854700Y-95851699D01*
X102730112Y-95680216D01*
X102579782Y-95529886D01*
X102407824Y-95404953D01*
X102407258Y-95404606D01*
X102405627Y-95403357D01*
X102403901Y-95402103D01*
X102403932Y-95402059D01*
X102386960Y-95389062D01*
X102376683Y-95379357D01*
X102341457Y-95319017D01*
X102344445Y-95249212D01*
X102380613Y-95195493D01*
X102387783Y-95189281D01*
X102404187Y-95177275D01*
X102407816Y-95175051D01*
X102407817Y-95175050D01*
X102429789Y-95159086D01*
X102579786Y-95050109D01*
X102579787Y-95050106D01*
X102579790Y-95050105D01*
X102579792Y-95050104D01*
X102579793Y-95050102D01*
X102579847Y-95050063D01*
X102580605Y-95049290D01*
X102730104Y-94899792D01*
X102730106Y-94899788D01*
X102730109Y-94899786D01*
X102802244Y-94800500D01*
X102851890Y-94732168D01*
X102852533Y-94731281D01*
X102855048Y-94727820D01*
X102855047Y-94727820D01*
X102855051Y-94727816D01*
X102951557Y-94538412D01*
X103017246Y-94336243D01*
X103050500Y-94126287D01*
X103050500Y-93913713D01*
X103017246Y-93703757D01*
X102951557Y-93501588D01*
X102855051Y-93312184D01*
X102855049Y-93312181D01*
X102855048Y-93312179D01*
X102854702Y-93311703D01*
X102854700Y-93311699D01*
X102730110Y-93140214D01*
X102629176Y-93039280D01*
X102608027Y-93011030D01*
X102601372Y-92998842D01*
X102586521Y-92930572D01*
X102610935Y-92865111D01*
X102613698Y-92861420D01*
X102669621Y-92819562D01*
X102792331Y-92773796D01*
X102793256Y-92773104D01*
X102830447Y-92745261D01*
X102907546Y-92687546D01*
X102993796Y-92572331D01*
X103044091Y-92437483D01*
X103050500Y-92377873D01*
X103050499Y-90582128D01*
X103044091Y-90522517D01*
X103027565Y-90478210D01*
X102994891Y-90390606D01*
X102993797Y-90387671D01*
X102993793Y-90387664D01*
X102907547Y-90272455D01*
X102907544Y-90272452D01*
X102907542Y-90272450D01*
X102849616Y-90229086D01*
X102792335Y-90186206D01*
X102792332Y-90186204D01*
X102792330Y-90186203D01*
X102792328Y-90186202D01*
X102657482Y-90135908D01*
X102657483Y-90135908D01*
X102597883Y-90129501D01*
X102597881Y-90129500D01*
X102597873Y-90129500D01*
X102597864Y-90129500D01*
X102596841Y-90129500D01*
X100802123Y-90129500D01*
X100800192Y-90129659D01*
X100798545Y-90129885D01*
X100742516Y-90135908D01*
X100647717Y-90171266D01*
X100607666Y-90186204D01*
X100607665Y-90186205D01*
X100492456Y-90272450D01*
X100492450Y-90272456D01*
X100406205Y-90387665D01*
X100406203Y-90387668D01*
X100355908Y-90522516D01*
X100349500Y-90582115D01*
X100010500Y-90582115D01*
X100010500Y-89211304D01*
X103199500Y-89211304D01*
X103199500Y-89388695D01*
X103208358Y-89433228D01*
X103208855Y-89442855D01*
X103208862Y-89443020D01*
X103209847Y-89462062D01*
X103209849Y-89462077D01*
X103347164Y-90159404D01*
X103349500Y-90183361D01*
X103349500Y-99216633D01*
X103347164Y-99240590D01*
X103209843Y-99937950D01*
X103206995Y-99953728D01*
X103206887Y-99954388D01*
X103206882Y-99954424D01*
X103203900Y-99985882D01*
X103202073Y-99998360D01*
X103199500Y-100011296D01*
X103199500Y-100188699D01*
X103234099Y-100362646D01*
X103234101Y-100362653D01*
X103234109Y-100362676D01*
X103301977Y-100526526D01*
X103301983Y-100526540D01*
X103301989Y-100526552D01*
X103301994Y-100526559D01*
X103400536Y-100674036D01*
X103400537Y-100674037D01*
X103400542Y-100674043D01*
X103525955Y-100799456D01*
X103525961Y-100799461D01*
X103525965Y-100799464D01*
X103673446Y-100898009D01*
X103673459Y-100898016D01*
X103755938Y-100932179D01*
X103837334Y-100965894D01*
X103837336Y-100965894D01*
X103837341Y-100965896D01*
X104003680Y-100998982D01*
X104006403Y-100999704D01*
X104011306Y-101000500D01*
X104188693Y-101000500D01*
X104192814Y-101000500D01*
X104200667Y-100998117D01*
X104246682Y-100988964D01*
X104246683Y-100988964D01*
X104362653Y-100965897D01*
X104362653Y-100965896D01*
X104362658Y-100965896D01*
X104362661Y-100965894D01*
X104362666Y-100965894D01*
X104365854Y-100964573D01*
X104373835Y-100961273D01*
X104373876Y-100961251D01*
X104526540Y-100898016D01*
X104526540Y-100898015D01*
X104526547Y-100898013D01*
X104555229Y-100878848D01*
X105999499Y-100878848D01*
X106030257Y-101033471D01*
X106030261Y-101033489D01*
X106030264Y-101033501D01*
X106072752Y-101136077D01*
X106081479Y-101170273D01*
X106084291Y-101196426D01*
X106075563Y-101257134D01*
X106030264Y-101366496D01*
X106030257Y-101366527D01*
X105999500Y-101521150D01*
X105999500Y-101521153D01*
X105999500Y-101678846D01*
X105999500Y-101678848D01*
X105999499Y-101678848D01*
X106030257Y-101833471D01*
X106030261Y-101833489D01*
X106030263Y-101833500D01*
X106090598Y-101979165D01*
X106090603Y-101979174D01*
X106090613Y-101979191D01*
X106178211Y-102110290D01*
X106178217Y-102110297D01*
X106289701Y-102221781D01*
X106289707Y-102221786D01*
X106289711Y-102221789D01*
X106420814Y-102309390D01*
X106420827Y-102309397D01*
X106513590Y-102347820D01*
X106566503Y-102369737D01*
X106717102Y-102399693D01*
X106718608Y-102400086D01*
X106721155Y-102400500D01*
X106878844Y-102400500D01*
X106882964Y-102400500D01*
X106890814Y-102398118D01*
X107033497Y-102369737D01*
X107179179Y-102309394D01*
X107232907Y-102273492D01*
X107238579Y-102269922D01*
X107244007Y-102266705D01*
X107266982Y-102256082D01*
X107319396Y-102222042D01*
X107321592Y-102220742D01*
X107327690Y-102219189D01*
X107360608Y-102205807D01*
X107382452Y-102201463D01*
X107415792Y-102187652D01*
X107496286Y-102154312D01*
X107562169Y-102110289D01*
X107598733Y-102085858D01*
X107685858Y-101998733D01*
X107685859Y-101998730D01*
X108085857Y-101598734D01*
X108095614Y-101584132D01*
X108105235Y-101569735D01*
X108137692Y-101521158D01*
X108154311Y-101496286D01*
X108201463Y-101382452D01*
X108216814Y-101305276D01*
X108225500Y-101261607D01*
X108225500Y-101138394D01*
X108225500Y-98928281D01*
X108230522Y-98893348D01*
X108237934Y-98868103D01*
X108269228Y-98815361D01*
X110804052Y-96280539D01*
X110804055Y-96280536D01*
X110828630Y-96243757D01*
X110872509Y-96178088D01*
X110919661Y-96064254D01*
X110943698Y-95943409D01*
X110943698Y-95820196D01*
X110943698Y-94805579D01*
X110963383Y-94738540D01*
X111016187Y-94692785D01*
X111085345Y-94682841D01*
X111104973Y-94687315D01*
X111323001Y-94756056D01*
X111353162Y-94764547D01*
X111354234Y-94764655D01*
X111366503Y-94769737D01*
X111514639Y-94799203D01*
X111515712Y-94799437D01*
X111516155Y-94799679D01*
X111516247Y-94799703D01*
X111521155Y-94800500D01*
X111678844Y-94800500D01*
X111682964Y-94800500D01*
X111690814Y-94798118D01*
X111833497Y-94769737D01*
X111979179Y-94709394D01*
X112110289Y-94621789D01*
X112221789Y-94510289D01*
X112309394Y-94379179D01*
X112361935Y-94252329D01*
X112379938Y-94221986D01*
X112396448Y-94201499D01*
X112445542Y-94164747D01*
X112572628Y-94112107D01*
X112575415Y-94111135D01*
X112576860Y-94110467D01*
X112581525Y-94108422D01*
X112590790Y-94104584D01*
X112599675Y-94095698D01*
X112710289Y-94021789D01*
X112821789Y-93910289D01*
X112909394Y-93779179D01*
X112969737Y-93633497D01*
X113000500Y-93478842D01*
X113000500Y-93321158D01*
X113000500Y-93321155D01*
X113000500Y-93320973D01*
X113000065Y-93318972D01*
X112998715Y-93312184D01*
X112980675Y-93221494D01*
X112980675Y-93221491D01*
X112969738Y-93166510D01*
X112969737Y-93166503D01*
X112958848Y-93140215D01*
X112958847Y-93140213D01*
X112909402Y-93020840D01*
X112909397Y-93020827D01*
X112909390Y-93020814D01*
X112821789Y-92889711D01*
X112821786Y-92889707D01*
X112821781Y-92889701D01*
X112710297Y-92778217D01*
X112710291Y-92778212D01*
X112710290Y-92778211D01*
X112579191Y-92690613D01*
X112579190Y-92690612D01*
X112579185Y-92690609D01*
X112579172Y-92690602D01*
X112579165Y-92690598D01*
X112433502Y-92630264D01*
X112433471Y-92630257D01*
X112278847Y-92599500D01*
X112278845Y-92599500D01*
X112278842Y-92599500D01*
X112121158Y-92599500D01*
X112121155Y-92599500D01*
X112121154Y-92599500D01*
X112085032Y-92606684D01*
X112085031Y-92606683D01*
X112082771Y-92607132D01*
X112016713Y-92617798D01*
X111978731Y-92627827D01*
X111974970Y-92628576D01*
X111974965Y-92628578D01*
X111966525Y-92630257D01*
X111966505Y-92630262D01*
X111966499Y-92630263D01*
X111962148Y-92631700D01*
X111962102Y-92631562D01*
X111953132Y-92634588D01*
X111533572Y-92745390D01*
X111501910Y-92749500D01*
X110663388Y-92749500D01*
X110643249Y-92753506D01*
X110602971Y-92761518D01*
X110566567Y-92768759D01*
X110544723Y-92773104D01*
X110542808Y-92773449D01*
X110542545Y-92773537D01*
X110542535Y-92773541D01*
X110529739Y-92778842D01*
X110529736Y-92778843D01*
X110428722Y-92820683D01*
X110428713Y-92820688D01*
X110414033Y-92830498D01*
X110414031Y-92830500D01*
X110326266Y-92889141D01*
X110285265Y-92930143D01*
X110285264Y-92930145D01*
X110239142Y-92976267D01*
X109304234Y-93911174D01*
X109304227Y-93911181D01*
X109301270Y-93914139D01*
X109301267Y-93914142D01*
X109257704Y-93957704D01*
X109214142Y-94001266D01*
X109181255Y-94050486D01*
X109181246Y-94050499D01*
X109176811Y-94057133D01*
X109176812Y-94057134D01*
X109145687Y-94103713D01*
X109145687Y-94103714D01*
X109145680Y-94103727D01*
X109098543Y-94217527D01*
X109098540Y-94217538D01*
X109098535Y-94217554D01*
X109097391Y-94223307D01*
X109082875Y-94296288D01*
X109082874Y-94296289D01*
X109074500Y-94338386D01*
X109074500Y-95271717D01*
X109069476Y-95306654D01*
X109062064Y-95331895D01*
X109030769Y-95384639D01*
X106314142Y-98101264D01*
X106305144Y-98114733D01*
X106302843Y-98118177D01*
X106300567Y-98121584D01*
X106245688Y-98203714D01*
X106228792Y-98244506D01*
X106225700Y-98251967D01*
X106225698Y-98251972D01*
X106225694Y-98251983D01*
X106198554Y-98317503D01*
X106198533Y-98317556D01*
X106193362Y-98343564D01*
X106193361Y-98343570D01*
X106185330Y-98383946D01*
X106185329Y-98383947D01*
X106185329Y-98383948D01*
X106174500Y-98438386D01*
X106174500Y-100089817D01*
X106168762Y-100127102D01*
X106044558Y-100521050D01*
X106044555Y-100521058D01*
X106041668Y-100534062D01*
X106035181Y-100554624D01*
X106030265Y-100566492D01*
X106030264Y-100566497D01*
X106030257Y-100566527D01*
X105999500Y-100721150D01*
X105999500Y-100721153D01*
X105999500Y-100878846D01*
X105999500Y-100878848D01*
X105999499Y-100878848D01*
X104555229Y-100878848D01*
X104674035Y-100799464D01*
X104713289Y-100760210D01*
X104799458Y-100674042D01*
X104799460Y-100674039D01*
X104799461Y-100674038D01*
X104799464Y-100674035D01*
X104871311Y-100566510D01*
X104895083Y-100530931D01*
X104897088Y-100528193D01*
X104898598Y-100525793D01*
X104900333Y-100520946D01*
X104921824Y-100469062D01*
X104965894Y-100362666D01*
X104965894Y-100362663D01*
X104965896Y-100362659D01*
X104978647Y-100298556D01*
X104987300Y-100255051D01*
X105000499Y-100188695D01*
X105000500Y-100188693D01*
X105000500Y-100011306D01*
X105000499Y-100011304D01*
X104993395Y-99975592D01*
X104991178Y-99957803D01*
X104990151Y-99937921D01*
X104868812Y-99321721D01*
X104852836Y-99240591D01*
X104850500Y-99216634D01*
X104850500Y-90183364D01*
X104852836Y-90159407D01*
X104858725Y-90129500D01*
X104990151Y-89462078D01*
X104992968Y-89446484D01*
X104993084Y-89445779D01*
X104996683Y-89407879D01*
X105000500Y-89388691D01*
X105000500Y-89211309D01*
X105000500Y-89211306D01*
X105000499Y-89211304D01*
X104965896Y-89037341D01*
X104965893Y-89037332D01*
X104965038Y-89035269D01*
X104965028Y-89035244D01*
X104948890Y-88996281D01*
X104948890Y-88996280D01*
X104910044Y-88902500D01*
X104898016Y-88873459D01*
X104898009Y-88873446D01*
X104799464Y-88725965D01*
X104799461Y-88725961D01*
X104799456Y-88725955D01*
X104674043Y-88600542D01*
X104674037Y-88600537D01*
X104674036Y-88600536D01*
X104541092Y-88511705D01*
X104536017Y-88508314D01*
X104526547Y-88501986D01*
X104526530Y-88501978D01*
X104362676Y-88434109D01*
X104362653Y-88434101D01*
X104362646Y-88434099D01*
X104248043Y-88411304D01*
X113099500Y-88411304D01*
X113099500Y-88588695D01*
X113108358Y-88633228D01*
X113108855Y-88642855D01*
X113108862Y-88643020D01*
X113109847Y-88662062D01*
X113109849Y-88662077D01*
X113247164Y-89359404D01*
X113249500Y-89383361D01*
X113249500Y-98316633D01*
X113247164Y-98340590D01*
X113109843Y-99037950D01*
X113106995Y-99053728D01*
X113106887Y-99054388D01*
X113106882Y-99054424D01*
X113103900Y-99085882D01*
X113102073Y-99098360D01*
X113099500Y-99111296D01*
X113099500Y-99288699D01*
X113134099Y-99462646D01*
X113134101Y-99462653D01*
X113134109Y-99462676D01*
X113201977Y-99626526D01*
X113201985Y-99626544D01*
X113201994Y-99626559D01*
X113300536Y-99774036D01*
X113300537Y-99774037D01*
X113300542Y-99774043D01*
X113425955Y-99899456D01*
X113425961Y-99899461D01*
X113425965Y-99899464D01*
X113573446Y-99998009D01*
X113573459Y-99998016D01*
X113574290Y-99998360D01*
X113695144Y-100048419D01*
X113695182Y-100048434D01*
X113696363Y-100048923D01*
X113737334Y-100065894D01*
X113737336Y-100065894D01*
X113737341Y-100065896D01*
X113903680Y-100098982D01*
X113906403Y-100099704D01*
X113911306Y-100100500D01*
X114088693Y-100100500D01*
X114092813Y-100100500D01*
X114100667Y-100098117D01*
X114116743Y-100094918D01*
X114128995Y-100093113D01*
X114164362Y-100089700D01*
X114859397Y-99952835D01*
X114883355Y-99950500D01*
X119573920Y-99950500D01*
X119671462Y-99931096D01*
X119718913Y-99921658D01*
X119855495Y-99865084D01*
X119904729Y-99832186D01*
X119978416Y-99782952D01*
X120011782Y-99749584D01*
X120018189Y-99744662D01*
X120019730Y-99744064D01*
X120024653Y-99740017D01*
X120118620Y-99676969D01*
X120613135Y-99345170D01*
X120635265Y-99326360D01*
X120646677Y-99317742D01*
X120657755Y-99310341D01*
X120674030Y-99299468D01*
X120674031Y-99299466D01*
X120674035Y-99299464D01*
X120799464Y-99174035D01*
X120898013Y-99026547D01*
X120965894Y-98862666D01*
X120966606Y-98859090D01*
X121000499Y-98688695D01*
X121000500Y-98688693D01*
X121000500Y-98511306D01*
X121000499Y-98511304D01*
X120965896Y-98337341D01*
X120965893Y-98337332D01*
X120959193Y-98321159D01*
X120959193Y-98321154D01*
X120959192Y-98321155D01*
X120927444Y-98244505D01*
X120927444Y-98244504D01*
X120898018Y-98173465D01*
X120898016Y-98173459D01*
X120898009Y-98173446D01*
X120799464Y-98025965D01*
X120799461Y-98025961D01*
X120718972Y-97945472D01*
X120697822Y-97917217D01*
X120690331Y-97903497D01*
X120675481Y-97835230D01*
X120675557Y-97834165D01*
X120676452Y-97821648D01*
X120685575Y-97783041D01*
X120724737Y-97688497D01*
X120755500Y-97533842D01*
X120755500Y-97376158D01*
X120755500Y-97376156D01*
X120755500Y-97376155D01*
X120755500Y-97375973D01*
X120755065Y-97373971D01*
X120733949Y-97267815D01*
X120733948Y-97267814D01*
X120724737Y-97221503D01*
X120719449Y-97208737D01*
X120712665Y-97186807D01*
X120710331Y-97175706D01*
X120586244Y-96782345D01*
X120580500Y-96745041D01*
X120580500Y-94456995D01*
X120580408Y-94456253D01*
X120579912Y-94454038D01*
X120556464Y-94336159D01*
X120556463Y-94336152D01*
X120509311Y-94222318D01*
X120509310Y-94222317D01*
X120509307Y-94222311D01*
X120440859Y-94119872D01*
X120424701Y-94103714D01*
X120353733Y-94032746D01*
X120353732Y-94032745D01*
X118629323Y-92308337D01*
X118629321Y-92308334D01*
X118629321Y-92308335D01*
X118622254Y-92301268D01*
X118622254Y-92301267D01*
X118535129Y-92214142D01*
X118535128Y-92214141D01*
X118535127Y-92214140D01*
X118485771Y-92181162D01*
X118483905Y-92179915D01*
X118432682Y-92145688D01*
X118432679Y-92145686D01*
X118432676Y-92145685D01*
X118358999Y-92115168D01*
X118358999Y-92115167D01*
X118354572Y-92113334D01*
X118352197Y-92112351D01*
X118352189Y-92112344D01*
X118352188Y-92112347D01*
X118318848Y-92098537D01*
X118318840Y-92098535D01*
X118258437Y-92086520D01*
X118258430Y-92086519D01*
X118247774Y-92084398D01*
X118247728Y-92084390D01*
X118216713Y-92078221D01*
X118198006Y-92074500D01*
X118198005Y-92074500D01*
X118180376Y-92074500D01*
X118141276Y-92063018D01*
X118110380Y-92055717D01*
X118085051Y-92029466D01*
X118084002Y-92028526D01*
X118083261Y-92027611D01*
X118061866Y-92005437D01*
X118048237Y-91936909D01*
X118073820Y-91871892D01*
X118099214Y-91847389D01*
X118103380Y-91844385D01*
X118128435Y-91830412D01*
X118172640Y-91812102D01*
X118175424Y-91811132D01*
X118176865Y-91810465D01*
X118181535Y-91808417D01*
X118190792Y-91804582D01*
X118199677Y-91795698D01*
X118255002Y-91758730D01*
X118310289Y-91721789D01*
X118421789Y-91610289D01*
X118509394Y-91479179D01*
X118514744Y-91466261D01*
X118528592Y-91441372D01*
X118530480Y-91438745D01*
X118722162Y-91070538D01*
X118744465Y-91040121D01*
X120410167Y-89374423D01*
X120438417Y-89353275D01*
X120461509Y-89340667D01*
X120520934Y-89325500D01*
X133565729Y-89325500D01*
X133573583Y-89323117D01*
X133682452Y-89301463D01*
X133796286Y-89254311D01*
X133898733Y-89185858D01*
X133985858Y-89098733D01*
X134054311Y-88996286D01*
X134101463Y-88882452D01*
X134125500Y-88761606D01*
X134125500Y-87410174D01*
X134131238Y-87372892D01*
X134174570Y-87235452D01*
X134256056Y-86976997D01*
X134263271Y-86951368D01*
X134268064Y-86937533D01*
X134269737Y-86933497D01*
X134300500Y-86778842D01*
X134300500Y-86621158D01*
X134300500Y-86621155D01*
X134300500Y-86620973D01*
X134300065Y-86618972D01*
X134281626Y-86526274D01*
X134270395Y-86469815D01*
X134269983Y-86467399D01*
X134269738Y-86466507D01*
X134269737Y-86466505D01*
X134269737Y-86466503D01*
X134250508Y-86420079D01*
X134209397Y-86320827D01*
X134209390Y-86320814D01*
X134121789Y-86189711D01*
X134121786Y-86189707D01*
X134121781Y-86189701D01*
X134010297Y-86078217D01*
X134010291Y-86078212D01*
X134010290Y-86078211D01*
X133879191Y-85990613D01*
X133879190Y-85990612D01*
X133879185Y-85990609D01*
X133879172Y-85990602D01*
X133879165Y-85990598D01*
X133733502Y-85930264D01*
X133733471Y-85930257D01*
X133578847Y-85899500D01*
X133578845Y-85899500D01*
X133578842Y-85899500D01*
X133421158Y-85899500D01*
X133421155Y-85899500D01*
X133421153Y-85899500D01*
X133266527Y-85930257D01*
X133266496Y-85930264D01*
X133120833Y-85990598D01*
X133120824Y-85990603D01*
X133120807Y-85990613D01*
X132989708Y-86078211D01*
X132989707Y-86078212D01*
X132989701Y-86078217D01*
X132878217Y-86189701D01*
X132878212Y-86189707D01*
X132878211Y-86189708D01*
X132790613Y-86320807D01*
X132790603Y-86320824D01*
X132790598Y-86320833D01*
X132730264Y-86466496D01*
X132730257Y-86466527D01*
X132699500Y-86621150D01*
X132699500Y-86621153D01*
X132699500Y-86778846D01*
X132699500Y-86778848D01*
X132699499Y-86778848D01*
X132730257Y-86933471D01*
X132730261Y-86933489D01*
X132730263Y-86933497D01*
X132730262Y-86933497D01*
X132735617Y-86946424D01*
X132743416Y-86973788D01*
X132743940Y-86976976D01*
X132743944Y-86976999D01*
X132743947Y-86977009D01*
X132868761Y-87372888D01*
X132874500Y-87410174D01*
X132874500Y-87932670D01*
X132869475Y-87967614D01*
X132865070Y-87982612D01*
X132827327Y-88041355D01*
X132825958Y-88042542D01*
X132771097Y-88070018D01*
X132763539Y-88071663D01*
X132737168Y-88074500D01*
X120269310Y-88074500D01*
X120269231Y-88074499D01*
X120267721Y-88074499D01*
X120261607Y-88074499D01*
X120138394Y-88074499D01*
X120118285Y-88078498D01*
X120050987Y-88091884D01*
X120050981Y-88091885D01*
X120037597Y-88094548D01*
X120037592Y-88094548D01*
X120017549Y-88098536D01*
X120017547Y-88098536D01*
X119970397Y-88118067D01*
X119966138Y-88119830D01*
X119966126Y-88119835D01*
X119903718Y-88145685D01*
X119801265Y-88214141D01*
X119801263Y-88214144D01*
X117859873Y-90155533D01*
X117829451Y-90177840D01*
X117461269Y-90369511D01*
X117438032Y-90382538D01*
X117424873Y-90388925D01*
X117420831Y-90390599D01*
X117420825Y-90390602D01*
X117420807Y-90390613D01*
X117289708Y-90478211D01*
X117289707Y-90478212D01*
X117289701Y-90478217D01*
X117178217Y-90589701D01*
X117178212Y-90589707D01*
X117178211Y-90589708D01*
X117090613Y-90720807D01*
X117090603Y-90720824D01*
X117090598Y-90720833D01*
X117030264Y-90866496D01*
X117030257Y-90866527D01*
X116999500Y-91021150D01*
X116999500Y-91021153D01*
X116999500Y-91178846D01*
X116999500Y-91178848D01*
X116999499Y-91178848D01*
X117030257Y-91333471D01*
X117030264Y-91333502D01*
X117090598Y-91479165D01*
X117090603Y-91479174D01*
X117090613Y-91479191D01*
X117178211Y-91610290D01*
X117178212Y-91610291D01*
X117178217Y-91610297D01*
X117289701Y-91721781D01*
X117289707Y-91721786D01*
X117289711Y-91721789D01*
X117420814Y-91809390D01*
X117420827Y-91809397D01*
X117468432Y-91829115D01*
X117500134Y-91854662D01*
X117525900Y-91873236D01*
X117539291Y-91907256D01*
X117539884Y-91908492D01*
X117540206Y-91909581D01*
X117551491Y-91938250D01*
X117537870Y-92006780D01*
X117489362Y-92057066D01*
X117456520Y-92069993D01*
X117451534Y-92071172D01*
X117423000Y-92074500D01*
X117110177Y-92074500D01*
X117072891Y-92068761D01*
X117070664Y-92068059D01*
X117028658Y-92054815D01*
X116678969Y-91944564D01*
X116678964Y-91944562D01*
X116678952Y-91944559D01*
X116678951Y-91944559D01*
X116665936Y-91941669D01*
X116645380Y-91935184D01*
X116633501Y-91930264D01*
X116633497Y-91930263D01*
X116633489Y-91930261D01*
X116633484Y-91930260D01*
X116633471Y-91930257D01*
X116478847Y-91899500D01*
X116478845Y-91899500D01*
X116478842Y-91899500D01*
X116321158Y-91899500D01*
X116321155Y-91899500D01*
X116321153Y-91899500D01*
X116166527Y-91930257D01*
X116166496Y-91930264D01*
X116020833Y-91990598D01*
X116020824Y-91990603D01*
X116020807Y-91990613D01*
X115889715Y-92078207D01*
X115889707Y-92078213D01*
X115889697Y-92078221D01*
X115824785Y-92143134D01*
X115796532Y-92164285D01*
X115786608Y-92169704D01*
X115718335Y-92184556D01*
X115652870Y-92160140D01*
X115610999Y-92104206D01*
X115610997Y-92104202D01*
X115609383Y-92099876D01*
X115608313Y-92097004D01*
X115600500Y-92053684D01*
X115600500Y-87253281D01*
X115605522Y-87218348D01*
X115612934Y-87193103D01*
X115644228Y-87140361D01*
X117310166Y-85474423D01*
X117338416Y-85453275D01*
X117361508Y-85440667D01*
X117420933Y-85425500D01*
X126989827Y-85425500D01*
X127027112Y-85431238D01*
X127423001Y-85556056D01*
X127453162Y-85564547D01*
X127454234Y-85564655D01*
X127466498Y-85569735D01*
X127466503Y-85569737D01*
X127614639Y-85599203D01*
X127615712Y-85599437D01*
X127616155Y-85599679D01*
X127616247Y-85599703D01*
X127621155Y-85600500D01*
X127778844Y-85600500D01*
X127782964Y-85600500D01*
X127790814Y-85598118D01*
X127933497Y-85569737D01*
X128079179Y-85509394D01*
X128210289Y-85421789D01*
X128321789Y-85310289D01*
X128409394Y-85179179D01*
X128469737Y-85033497D01*
X128500500Y-84878842D01*
X128500500Y-84721158D01*
X128500500Y-84721155D01*
X128500500Y-84720973D01*
X128500065Y-84718972D01*
X128472406Y-84579923D01*
X128470395Y-84569816D01*
X128469994Y-84567467D01*
X128469738Y-84566508D01*
X128469737Y-84566506D01*
X128469737Y-84566503D01*
X128469735Y-84566498D01*
X128409397Y-84420827D01*
X128409390Y-84420814D01*
X128321789Y-84289711D01*
X128321786Y-84289707D01*
X128321781Y-84289701D01*
X128210297Y-84178217D01*
X128210291Y-84178212D01*
X128210290Y-84178211D01*
X128079191Y-84090613D01*
X128079190Y-84090612D01*
X128079185Y-84090609D01*
X128079172Y-84090602D01*
X128079165Y-84090598D01*
X127933502Y-84030264D01*
X127933471Y-84030257D01*
X127778847Y-83999500D01*
X127778845Y-83999500D01*
X127778842Y-83999500D01*
X127621158Y-83999500D01*
X127621155Y-83999500D01*
X127621153Y-83999500D01*
X127466527Y-84030257D01*
X127466501Y-84030263D01*
X127466493Y-84030265D01*
X127453564Y-84035620D01*
X127426217Y-84043415D01*
X127423011Y-84043941D01*
X127423002Y-84043943D01*
X127027105Y-84168762D01*
X126989820Y-84174500D01*
X117038389Y-84174500D01*
X116987535Y-84184615D01*
X116987530Y-84184616D01*
X116987520Y-84184617D01*
X116986771Y-84184766D01*
X116986764Y-84184768D01*
X116977971Y-84186518D01*
X116917548Y-84198537D01*
X116870397Y-84218067D01*
X116803715Y-84245688D01*
X116803714Y-84245689D01*
X116790865Y-84254273D01*
X116790861Y-84254275D01*
X116781347Y-84260633D01*
X116701272Y-84314136D01*
X116701268Y-84314139D01*
X116701268Y-84314140D01*
X116678406Y-84337003D01*
X116614142Y-84401267D01*
X114489148Y-86526258D01*
X114489143Y-86526264D01*
X114489135Y-86526274D01*
X114420687Y-86628711D01*
X114420668Y-86628746D01*
X114420412Y-86629378D01*
X114406490Y-86662992D01*
X114406488Y-86662995D01*
X114373538Y-86742542D01*
X114373529Y-86742581D01*
X114349500Y-86863385D01*
X114349500Y-87482453D01*
X114344475Y-87517394D01*
X114340564Y-87530711D01*
X114302787Y-87589487D01*
X114239237Y-87618508D01*
X114228339Y-87620075D01*
X114186500Y-87618954D01*
X114088699Y-87599500D01*
X114088695Y-87599500D01*
X114088691Y-87599500D01*
X113911309Y-87599500D01*
X113911306Y-87599500D01*
X113911301Y-87599500D01*
X113737352Y-87634100D01*
X113737345Y-87634101D01*
X113737322Y-87634109D01*
X113573472Y-87701977D01*
X113573454Y-87701985D01*
X113573439Y-87701994D01*
X113425962Y-87800536D01*
X113425961Y-87800537D01*
X113425955Y-87800542D01*
X113300542Y-87925955D01*
X113300537Y-87925961D01*
X113300536Y-87925962D01*
X113201994Y-88073439D01*
X113201985Y-88073454D01*
X113201977Y-88073472D01*
X113134109Y-88237322D01*
X113134101Y-88237345D01*
X113134099Y-88237352D01*
X113099777Y-88409907D01*
X113099777Y-88409910D01*
X113099500Y-88411304D01*
X104248043Y-88411304D01*
X104188698Y-88399500D01*
X104188694Y-88399500D01*
X104188691Y-88399500D01*
X104011309Y-88399500D01*
X104011306Y-88399500D01*
X104011301Y-88399500D01*
X103837352Y-88434100D01*
X103837345Y-88434101D01*
X103837322Y-88434109D01*
X103673472Y-88501977D01*
X103673454Y-88501985D01*
X103673439Y-88501994D01*
X103525962Y-88600536D01*
X103525961Y-88600537D01*
X103525955Y-88600542D01*
X103400542Y-88725955D01*
X103400537Y-88725961D01*
X103400536Y-88725962D01*
X103301994Y-88873439D01*
X103301985Y-88873454D01*
X103301977Y-88873472D01*
X103234109Y-89037322D01*
X103234101Y-89037345D01*
X103234099Y-89037352D01*
X103199777Y-89209907D01*
X103199777Y-89209910D01*
X103199500Y-89211304D01*
X100010500Y-89211304D01*
X100010500Y-83592329D01*
X100015523Y-83557393D01*
X100019927Y-83542395D01*
X100057672Y-83483644D01*
X100059041Y-83482457D01*
X100113920Y-83454977D01*
X100121479Y-83453333D01*
X100147832Y-83450500D01*
X106647688Y-83450500D01*
X106682615Y-83455521D01*
G37*
%TD.AperFunction*%
%TD*%
%TA.AperFunction,Conductor*%
%TO.N,Net-(J2-Pin_5)*%
G36*
X104484251Y-89350556D02*
G01*
X104491995Y-89355053D01*
X104494291Y-89363708D01*
X104494175Y-89364413D01*
X104351859Y-90087139D01*
X104346898Y-90094594D01*
X104340379Y-90096578D01*
X103859621Y-90096578D01*
X103851348Y-90093151D01*
X103848141Y-90087139D01*
X103705824Y-89364410D01*
X103707588Y-89355633D01*
X103715043Y-89350672D01*
X103715741Y-89350557D01*
X104098450Y-89299208D01*
X104101550Y-89299208D01*
X104484251Y-89350556D01*
G37*
%TD.AperFunction*%
%TD*%
%TA.AperFunction,Conductor*%
%TO.N,Net-(J2-Pin_5)*%
G36*
X104348652Y-99306849D02*
G01*
X104351859Y-99312861D01*
X104494175Y-100035586D01*
X104492411Y-100044366D01*
X104484956Y-100049327D01*
X104484251Y-100049443D01*
X104101556Y-100100791D01*
X104098444Y-100100791D01*
X103715748Y-100049443D01*
X103708004Y-100044946D01*
X103705708Y-100036291D01*
X103705818Y-100035621D01*
X103848141Y-99312860D01*
X103853102Y-99305406D01*
X103859621Y-99303422D01*
X104340379Y-99303422D01*
X104348652Y-99306849D01*
G37*
%TD.AperFunction*%
%TD*%
%TA.AperFunction,Conductor*%
%TO.N,Net-(J1-DAT3{slash}CD)*%
G36*
X116189251Y-93872420D02*
G01*
X116196111Y-93878176D01*
X116197433Y-93883579D01*
X116197433Y-94116420D01*
X116194006Y-94124693D01*
X116189251Y-94127579D01*
X115724998Y-94273950D01*
X115716077Y-94273169D01*
X115710684Y-94267302D01*
X115652305Y-94127579D01*
X115600883Y-94004509D01*
X115600857Y-93995556D01*
X115600862Y-93995542D01*
X115710685Y-93732695D01*
X115717036Y-93726385D01*
X115724996Y-93726049D01*
X116189251Y-93872420D01*
G37*
%TD.AperFunction*%
%TD*%
%TA.AperFunction,Conductor*%
%TO.N,Net-(J1-DAT3{slash}CD)*%
G36*
X106851067Y-101304573D02*
G01*
X107247531Y-101371385D01*
X107253859Y-101374648D01*
X107417777Y-101538566D01*
X107421204Y-101546839D01*
X107417777Y-101555112D01*
X107415876Y-101556651D01*
X106991668Y-101832134D01*
X106982863Y-101833766D01*
X106976037Y-101829475D01*
X106802278Y-101604570D01*
X106799932Y-101595928D01*
X106799940Y-101595866D01*
X106837554Y-101314562D01*
X106842046Y-101306818D01*
X106850701Y-101304518D01*
X106851067Y-101304573D01*
G37*
%TD.AperFunction*%
%TD*%
%TA.AperFunction,Conductor*%
%TO.N,Net-(J1-DAT3{slash}CD)*%
G36*
X111483922Y-93726830D02*
G01*
X111489315Y-93732697D01*
X111599115Y-93995489D01*
X111599142Y-94004444D01*
X111599115Y-94004511D01*
X111489315Y-94267302D01*
X111482963Y-94273614D01*
X111475001Y-94273950D01*
X111010749Y-94127579D01*
X111003889Y-94121823D01*
X111002567Y-94116420D01*
X111002567Y-93883579D01*
X111005994Y-93875306D01*
X111010747Y-93872420D01*
X111475003Y-93726049D01*
X111483922Y-93726830D01*
G37*
%TD.AperFunction*%
%TD*%
%TA.AperFunction,Conductor*%
%TO.N,Net-(J1-DAT3{slash}CD)*%
G36*
X119324694Y-95805994D02*
G01*
X119327580Y-95810749D01*
X119473950Y-96275001D01*
X119473169Y-96283922D01*
X119467302Y-96289315D01*
X119204511Y-96399115D01*
X119195556Y-96399142D01*
X119195489Y-96399115D01*
X118932697Y-96289315D01*
X118926385Y-96282963D01*
X118926049Y-96275003D01*
X119072420Y-95810748D01*
X119078176Y-95803889D01*
X119083579Y-95802567D01*
X119316421Y-95802567D01*
X119324694Y-95805994D01*
G37*
%TD.AperFunction*%
%TD*%
%TA.AperFunction,Conductor*%
%TO.N,Net-(J1-DAT0)*%
G36*
X106918569Y-100203456D02*
G01*
X106921155Y-100204528D01*
X106926678Y-100209264D01*
X106926845Y-100209539D01*
X106927226Y-100212009D01*
X106927836Y-100211817D01*
X107073249Y-100672781D01*
X107073746Y-100677322D01*
X107073564Y-100679400D01*
X107069826Y-100686993D01*
X107068813Y-100687924D01*
X107065407Y-100690106D01*
X106806657Y-100798218D01*
X106802179Y-100799122D01*
X106797916Y-100799134D01*
X106793372Y-100798230D01*
X106534843Y-100690211D01*
X106531056Y-100687663D01*
X106529585Y-100686183D01*
X106526193Y-100678430D01*
X106526135Y-100677052D01*
X106526665Y-100673047D01*
X106671721Y-100212962D01*
X106673915Y-100208966D01*
X106675714Y-100206821D01*
X106681905Y-100202977D01*
X106682221Y-100202900D01*
X106684991Y-100202567D01*
X106914094Y-100202567D01*
X106918569Y-100203456D01*
G37*
%TD.AperFunction*%
%TD*%
%TA.AperFunction,Conductor*%
%TO.N,Net-(J1-DAT0)*%
G36*
X112152100Y-93106499D02*
G01*
X112159837Y-93111000D01*
X112159842Y-93111006D01*
X112160569Y-93111961D01*
X112161780Y-93116550D01*
X112162124Y-93116503D01*
X112162509Y-93119315D01*
X112162854Y-93120620D01*
X112162720Y-93120849D01*
X112200362Y-93395284D01*
X112200371Y-93398400D01*
X112199979Y-93401380D01*
X112199175Y-93404365D01*
X112090407Y-93664686D01*
X112087860Y-93668472D01*
X112086492Y-93669832D01*
X112078464Y-93673233D01*
X112076875Y-93673263D01*
X112072622Y-93672548D01*
X111930467Y-93620365D01*
X111928199Y-93619241D01*
X111926102Y-93617901D01*
X111924129Y-93616315D01*
X111907318Y-93599504D01*
X111907309Y-93599496D01*
X111793206Y-93533618D01*
X111793184Y-93533606D01*
X111793182Y-93533605D01*
X111665896Y-93499500D01*
X111665894Y-93499500D01*
X111665892Y-93499500D01*
X111616594Y-93499500D01*
X111612117Y-93498609D01*
X111610468Y-93497926D01*
X111604139Y-93491595D01*
X111603456Y-93489945D01*
X111602567Y-93485472D01*
X111602567Y-93261338D01*
X111603456Y-93256864D01*
X111604469Y-93254418D01*
X111609452Y-93248749D01*
X111609947Y-93248465D01*
X111612778Y-93247303D01*
X112145785Y-93106542D01*
X112150332Y-93106260D01*
X112152100Y-93106499D01*
G37*
%TD.AperFunction*%
%TD*%
%TA.AperFunction,Conductor*%
%TO.N,Net-(J1-DAT0)*%
G36*
X127583922Y-84526830D02*
G01*
X127589315Y-84532697D01*
X127699115Y-84795489D01*
X127699142Y-84804444D01*
X127699115Y-84804511D01*
X127589315Y-85067302D01*
X127582963Y-85073614D01*
X127575001Y-85073950D01*
X127110749Y-84927579D01*
X127103889Y-84921823D01*
X127102567Y-84916420D01*
X127102567Y-84683579D01*
X127105994Y-84675306D01*
X127110747Y-84672420D01*
X127575003Y-84526049D01*
X127583922Y-84526830D01*
G37*
%TD.AperFunction*%
%TD*%
%TA.AperFunction,Conductor*%
%TO.N,Net-(J1-DAT0)*%
G36*
X115573548Y-97893123D02*
G01*
X116005326Y-98117901D01*
X116011081Y-98124760D01*
X116010745Y-98132722D01*
X115902563Y-98396184D01*
X115896251Y-98402536D01*
X115896184Y-98402563D01*
X115632722Y-98510745D01*
X115623767Y-98510718D01*
X115617901Y-98505326D01*
X115393123Y-98073548D01*
X115392343Y-98064628D01*
X115395227Y-98059875D01*
X115559874Y-97895228D01*
X115568146Y-97891802D01*
X115573548Y-97893123D01*
G37*
%TD.AperFunction*%
%TD*%
%TA.AperFunction,Conductor*%
%TO.N,Net-(J1-CMD)*%
G36*
X120073569Y-96858456D02*
G01*
X120076155Y-96859528D01*
X120081678Y-96864264D01*
X120081845Y-96864539D01*
X120082226Y-96867009D01*
X120082836Y-96866817D01*
X120228249Y-97327781D01*
X120228746Y-97332322D01*
X120228564Y-97334400D01*
X120224826Y-97341993D01*
X120223813Y-97342924D01*
X120220407Y-97345106D01*
X119961657Y-97453218D01*
X119957179Y-97454122D01*
X119952916Y-97454134D01*
X119948372Y-97453230D01*
X119689843Y-97345211D01*
X119686056Y-97342663D01*
X119684585Y-97341183D01*
X119681193Y-97333430D01*
X119681135Y-97332052D01*
X119681665Y-97328047D01*
X119826721Y-96867962D01*
X119828915Y-96863966D01*
X119830714Y-96861821D01*
X119836905Y-96857977D01*
X119837221Y-96857900D01*
X119839991Y-96857567D01*
X120069094Y-96857567D01*
X120073569Y-96858456D01*
G37*
%TD.AperFunction*%
%TD*%
%TA.AperFunction,Conductor*%
%TO.N,Net-(J1-CMD)*%
G36*
X116526952Y-92426665D02*
G01*
X116987033Y-92571720D01*
X116991034Y-92573916D01*
X116993176Y-92575713D01*
X116997019Y-92581889D01*
X116997096Y-92582203D01*
X116997433Y-92584990D01*
X116997433Y-92814092D01*
X116996542Y-92818570D01*
X116995471Y-92821155D01*
X116990735Y-92826677D01*
X116990460Y-92826844D01*
X116987905Y-92828003D01*
X116527215Y-92973250D01*
X116522676Y-92973746D01*
X116520598Y-92973564D01*
X116513005Y-92969826D01*
X116512074Y-92968813D01*
X116509892Y-92965407D01*
X116452305Y-92827579D01*
X116401780Y-92706656D01*
X116400876Y-92702181D01*
X116400863Y-92697915D01*
X116401765Y-92693378D01*
X116509788Y-92434839D01*
X116512334Y-92431055D01*
X116513816Y-92429584D01*
X116521567Y-92426193D01*
X116522946Y-92426135D01*
X116526952Y-92426665D01*
G37*
%TD.AperFunction*%
%TD*%
%TA.AperFunction,Conductor*%
%TO.N,Net-(J1-CLK)*%
G36*
X133767302Y-86810684D02*
G01*
X133773614Y-86817036D01*
X133773950Y-86824998D01*
X133627580Y-87289251D01*
X133621824Y-87296111D01*
X133616421Y-87297433D01*
X133383579Y-87297433D01*
X133375306Y-87294006D01*
X133372420Y-87289251D01*
X133226049Y-86824996D01*
X133226830Y-86816077D01*
X133232695Y-86810685D01*
X133495490Y-86700883D01*
X133504444Y-86700857D01*
X133767302Y-86810684D01*
G37*
%TD.AperFunction*%
%TD*%
%TA.AperFunction,Conductor*%
%TO.N,Net-(J1-CLK)*%
G36*
X118140126Y-90595229D02*
G01*
X118304770Y-90759873D01*
X118308197Y-90768146D01*
X118306875Y-90773549D01*
X118082099Y-91205325D01*
X118075239Y-91211081D01*
X118067277Y-91210745D01*
X117803815Y-91102563D01*
X117797463Y-91096251D01*
X117797436Y-91096184D01*
X117689254Y-90832722D01*
X117689281Y-90823767D01*
X117694671Y-90817902D01*
X118126451Y-90593123D01*
X118135371Y-90592343D01*
X118140126Y-90595229D01*
G37*
%TD.AperFunction*%
%TD*%
%TA.AperFunction,Conductor*%
%TO.N,Net-(J1-VDD)*%
G36*
X119789364Y-98363103D02*
G01*
X119794157Y-98365273D01*
X119798716Y-98368754D01*
X120098836Y-98597865D01*
X120100010Y-98598892D01*
X120101106Y-98599988D01*
X120102127Y-98601154D01*
X120334545Y-98905605D01*
X120336553Y-98909702D01*
X120337010Y-98911424D01*
X120335820Y-98920299D01*
X120335088Y-98921560D01*
X120331488Y-98925402D01*
X119723431Y-99333384D01*
X119719214Y-99335139D01*
X119716827Y-99335618D01*
X119709023Y-99334473D01*
X119708246Y-99334059D01*
X119705475Y-99332006D01*
X119368406Y-98994937D01*
X119365870Y-98991141D01*
X119364938Y-98988891D01*
X119364554Y-98981009D01*
X119364812Y-98980160D01*
X119366284Y-98977060D01*
X119401704Y-98924270D01*
X119774434Y-98368751D01*
X119777665Y-98365533D01*
X119779150Y-98364545D01*
X119787933Y-98362816D01*
X119789364Y-98363103D01*
G37*
%TD.AperFunction*%
%TD*%
%TA.AperFunction,Conductor*%
%TO.N,Net-(J1-VDD)*%
G36*
X114784858Y-98947691D02*
G01*
X114789079Y-98949432D01*
X114791104Y-98950780D01*
X114795812Y-98957107D01*
X114796069Y-98957950D01*
X114796578Y-98961362D01*
X114796578Y-99438050D01*
X114795687Y-99442527D01*
X114794755Y-99444777D01*
X114789453Y-99450623D01*
X114788677Y-99451037D01*
X114785431Y-99452194D01*
X114066696Y-99593725D01*
X114062130Y-99593716D01*
X114060383Y-99593365D01*
X114052948Y-99588377D01*
X114052141Y-99587163D01*
X114050286Y-99582239D01*
X114031540Y-99442527D01*
X113999312Y-99202325D01*
X113999208Y-99200769D01*
X113999208Y-99199229D01*
X113999312Y-99197673D01*
X114050246Y-98818050D01*
X114051723Y-98813737D01*
X114052620Y-98812191D01*
X114059737Y-98806761D01*
X114061148Y-98806386D01*
X114066404Y-98806217D01*
X114784858Y-98947691D01*
G37*
%TD.AperFunction*%
%TD*%
%TA.AperFunction,Conductor*%
%TO.N,Net-(J1-VDD)*%
G36*
X114384251Y-88550556D02*
G01*
X114391995Y-88555053D01*
X114394291Y-88563708D01*
X114394175Y-88564413D01*
X114251859Y-89287139D01*
X114246898Y-89294594D01*
X114240379Y-89296578D01*
X113759621Y-89296578D01*
X113751348Y-89293151D01*
X113748141Y-89287139D01*
X113605824Y-88564410D01*
X113607588Y-88555633D01*
X113615043Y-88550672D01*
X113615741Y-88550557D01*
X113998450Y-88499208D01*
X114001550Y-88499208D01*
X114384251Y-88550556D01*
G37*
%TD.AperFunction*%
%TD*%
%TA.AperFunction,Conductor*%
%TO.N,Net-(J1-VDD)*%
G36*
X114248652Y-98406849D02*
G01*
X114251859Y-98412861D01*
X114394175Y-99135586D01*
X114392411Y-99144366D01*
X114384956Y-99149327D01*
X114384251Y-99149443D01*
X114001556Y-99200791D01*
X113998444Y-99200791D01*
X113615748Y-99149443D01*
X113608004Y-99144946D01*
X113605708Y-99136291D01*
X113605818Y-99135621D01*
X113748141Y-98412860D01*
X113753102Y-98405406D01*
X113759621Y-98403422D01*
X114240379Y-98403422D01*
X114248652Y-98406849D01*
G37*
%TD.AperFunction*%
%TD*%
D17*
X99510000Y-82950000D02*
X139510000Y-82950000D01*
X139510000Y-112950000D01*
X99510000Y-112950000D01*
X99510000Y-82950000D01*
M02*
