%TF.GenerationSoftware,KiCad,Pcbnew,10.0.0*%
%TF.CreationDate,2026-04-17T15:28:15+03:00*%
%TF.ProjectId,5V MicroSD Card Slot With ESD,3556204d-6963-4726-9f53-442043617264,rev?*%
%TF.SameCoordinates,Original*%
%TF.FileFunction,Copper,L1,Top*%
%TF.FilePolarity,Positive*%
%FSLAX46Y46*%
G04 Gerber Fmt 4.6, Leading zero omitted, Abs format (unit mm)*
G04 Created by KiCad (PCBNEW 10.0.0) date 2026-04-17 15:28:15*
%MOMM*%
%LPD*%
G01*
G04 APERTURE LIST*
G04 Aperture macros list*
%AMRoundRect*
0 Rectangle with rounded corners*
0 $1 Rounding radius*
0 $2 $3 $4 $5 $6 $7 $8 $9 X,Y pos of 4 corners*
0 Add a 4 corners polygon primitive as box body*
4,1,4,$2,$3,$4,$5,$6,$7,$8,$9,$2,$3,0*
0 Add four circle primitives for the rounded corners*
1,1,$1+$1,$2,$3*
1,1,$1+$1,$4,$5*
1,1,$1+$1,$6,$7*
1,1,$1+$1,$8,$9*
0 Add four rect primitives between the rounded corners*
20,1,$1+$1,$2,$3,$4,$5,0*
20,1,$1+$1,$4,$5,$6,$7,0*
20,1,$1+$1,$6,$7,$8,$9,0*
20,1,$1+$1,$8,$9,$2,$3,0*%
G04 Aperture macros list end*
%TA.AperFunction,SMDPad,CuDef*%
%ADD10RoundRect,0.100000X-0.637500X-0.100000X0.637500X-0.100000X0.637500X0.100000X-0.637500X0.100000X0*%
%TD*%
%TA.AperFunction,SMDPad,CuDef*%
%ADD11R,1.200000X0.700000*%
%TD*%
%TA.AperFunction,SMDPad,CuDef*%
%ADD12R,0.800000X1.000000*%
%TD*%
%TA.AperFunction,SMDPad,CuDef*%
%ADD13R,1.200000X1.000000*%
%TD*%
%TA.AperFunction,SMDPad,CuDef*%
%ADD14R,2.800000X1.000000*%
%TD*%
%TA.AperFunction,SMDPad,CuDef*%
%ADD15R,1.900000X1.300000*%
%TD*%
%TA.AperFunction,SMDPad,CuDef*%
%ADD16RoundRect,0.225000X-0.250000X0.225000X-0.250000X-0.225000X0.250000X-0.225000X0.250000X0.225000X0*%
%TD*%
%TA.AperFunction,SMDPad,CuDef*%
%ADD17RoundRect,0.150000X-0.512500X-0.150000X0.512500X-0.150000X0.512500X0.150000X-0.512500X0.150000X0*%
%TD*%
%TA.AperFunction,ComponentPad*%
%ADD18R,1.700000X1.700000*%
%TD*%
%TA.AperFunction,ComponentPad*%
%ADD19C,1.700000*%
%TD*%
%TA.AperFunction,ComponentPad*%
%ADD20C,3.800000*%
%TD*%
%TA.AperFunction,SMDPad,CuDef*%
%ADD21R,0.800000X0.500000*%
%TD*%
%TA.AperFunction,SMDPad,CuDef*%
%ADD22R,0.800000X0.400000*%
%TD*%
%TA.AperFunction,SMDPad,CuDef*%
%ADD23RoundRect,0.225000X0.225000X0.250000X-0.225000X0.250000X-0.225000X-0.250000X0.225000X-0.250000X0*%
%TD*%
%TA.AperFunction,SMDPad,CuDef*%
%ADD24RoundRect,0.150000X0.512500X0.150000X-0.512500X0.150000X-0.512500X-0.150000X0.512500X-0.150000X0*%
%TD*%
%TA.AperFunction,ViaPad*%
%ADD25C,0.800000*%
%TD*%
%TA.AperFunction,ViaPad*%
%ADD26C,0.600000*%
%TD*%
%TA.AperFunction,Conductor*%
%ADD27C,0.500000*%
%TD*%
%TA.AperFunction,Conductor*%
%ADD28C,0.250000*%
%TD*%
%TA.AperFunction,Profile*%
%ADD29C,0.050000*%
%TD*%
G04 APERTURE END LIST*
D10*
%TO.P,U1,1,VCCA_1*%
%TO.N,Net-(J2-Pin_5)*%
X108275000Y-91400000D03*
%TO.P,U1,2,A1_2*%
%TO.N,Net-(J2-Pin_1)*%
X108275000Y-92050000D03*
%TO.P,U1,3,A2_3*%
%TO.N,Net-(J2-Pin_2)*%
X108275000Y-92700000D03*
%TO.P,U1,4,A3_4*%
%TO.N,Net-(J2-Pin_3)*%
X108275000Y-93350000D03*
%TO.P,U1,5,A4_5*%
%TO.N,Net-(J2-Pin_4)*%
X108275000Y-94000000D03*
%TO.P,U1,6,NC_6*%
%TO.N,unconnected-(U1-NC-Pad6)*%
X108275000Y-94650000D03*
%TO.P,U1,7,GND_7*%
%TO.N,GND*%
X108275000Y-95300000D03*
%TO.P,U1,8,OE_8*%
X114000000Y-95300000D03*
%TO.P,U1,9,NC_9*%
%TO.N,unconnected-(U1-NC-Pad9)*%
X114000000Y-94650000D03*
%TO.P,U1,10,B4_10*%
%TO.N,Net-(J1-DAT3{slash}CD)*%
X114000000Y-94000000D03*
%TO.P,U1,11,B3_11*%
%TO.N,Net-(J1-DAT0)*%
X114000000Y-93350000D03*
%TO.P,U1,12,B2_12*%
%TO.N,Net-(J1-CMD)*%
X114000000Y-92700000D03*
%TO.P,U1,13,B1_13*%
%TO.N,Net-(J1-CLK)*%
X114000000Y-92050000D03*
%TO.P,U1,14,VCCB_14*%
%TO.N,Net-(J1-VDD)*%
X114000000Y-91400000D03*
%TD*%
D11*
%TO.P,J1,1,DAT2_1*%
%TO.N,unconnected-(J1-DAT2-Pad1)*%
X122810000Y-95255000D03*
%TO.P,J1,2,DAT3/CD_2*%
%TO.N,Net-(J1-DAT3{slash}CD)*%
X122810000Y-96355000D03*
%TO.P,J1,3,CMD_3*%
%TO.N,Net-(J1-CMD)*%
X122810000Y-97455000D03*
%TO.P,J1,4,VDD_4*%
%TO.N,Net-(J1-VDD)*%
X122810000Y-98555000D03*
%TO.P,J1,5,CLK_5*%
%TO.N,Net-(J1-CLK)*%
X122810000Y-99655000D03*
%TO.P,J1,6,VSS_6*%
%TO.N,GND*%
X122810000Y-100755000D03*
%TO.P,J1,7,DAT0_7*%
%TO.N,Net-(J1-DAT0)*%
X122810000Y-101855000D03*
%TO.P,J1,8,DAT1_8*%
%TO.N,unconnected-(J1-DAT1-Pad8)*%
X122810000Y-102955000D03*
%TO.P,J1,9,DET_B_9*%
%TO.N,unconnected-(J1-DET_B-Pad9)*%
X122810000Y-103905000D03*
D12*
%TO.P,J1,10,DET_A_10*%
%TO.N,unconnected-(J1-DET_A-Pad10)*%
X133310000Y-104855000D03*
D13*
%TO.P,J1,SH,SHIELD_SH*%
%TO.N,unconnected-(J1-SHIELD-PadSH)_2*%
X127110000Y-104855000D03*
D14*
%TO.N,unconnected-(J1-SHIELD-PadSH)_3*%
X137460000Y-104855000D03*
D13*
%TO.N,unconnected-(J1-SHIELD-PadSH)*%
X122810000Y-93705000D03*
D15*
%TO.N,unconnected-(J1-SHIELD-PadSH)_1*%
X137910000Y-91355000D03*
%TD*%
D16*
%TO.P,C1,1*%
%TO.N,Net-(J1-VDD)*%
X111000000Y-109450000D03*
%TO.P,C1,2*%
%TO.N,GND*%
X111000000Y-111000000D03*
%TD*%
D17*
%TO.P,U3,1,IN_1*%
%TO.N,Net-(J2-Pin_5)*%
X105725000Y-109050000D03*
%TO.P,U3,2,GND_2*%
%TO.N,GND*%
X105725000Y-110000000D03*
%TO.P,U3,3,EN_3*%
%TO.N,Net-(J2-Pin_5)*%
X105725000Y-110950000D03*
%TO.P,U3,4,NC_4*%
%TO.N,unconnected-(U3-NC-Pad4)*%
X108000000Y-110950000D03*
%TO.P,U3,5,OUT_5*%
%TO.N,Net-(J1-VDD)*%
X108000000Y-109050000D03*
%TD*%
D18*
%TO.P,J2,1,Pin_1_1*%
%TO.N,Net-(J2-Pin_1)*%
X101700000Y-91480000D03*
D19*
%TO.P,J2,2,Pin_2_2*%
%TO.N,Net-(J2-Pin_2)*%
X101700000Y-94020000D03*
%TO.P,J2,3,Pin_3_3*%
%TO.N,Net-(J2-Pin_3)*%
X101700000Y-96560000D03*
%TO.P,J2,4,Pin_4_4*%
%TO.N,Net-(J2-Pin_4)*%
X101700000Y-99100000D03*
%TO.P,J2,5,Pin_5_5*%
%TO.N,Net-(J2-Pin_5)*%
X101700000Y-101640000D03*
%TO.P,J2,6,Pin_6_6*%
%TO.N,GND*%
X101700000Y-104180000D03*
%TD*%
D20*
%TO.P,M2,1*%
%TO.N,N/C*%
X129300000Y-110400000D03*
%TD*%
D21*
%TO.P,RN1,1,R1.1_1*%
%TO.N,Net-(J1-CLK)*%
X108200000Y-99200000D03*
D22*
%TO.P,RN1,2,R2.1_2*%
%TO.N,Net-(J1-CMD)*%
X108200000Y-100000000D03*
%TO.P,RN1,3,R3.1_3*%
%TO.N,Net-(J1-DAT0)*%
X108200000Y-100800000D03*
D21*
%TO.P,RN1,4,R4.1_4*%
%TO.N,Net-(J1-DAT3{slash}CD)*%
X108200000Y-101600000D03*
%TO.P,RN1,5,R4.2_5*%
%TO.N,Net-(J1-VDD)*%
X110000000Y-101600000D03*
D22*
%TO.P,RN1,6,R3.2_6*%
X110000000Y-100800000D03*
%TO.P,RN1,7,R2.2_7*%
X110000000Y-100000000D03*
D21*
%TO.P,RN1,8,R1.2_8*%
X110000000Y-99200000D03*
%TD*%
D23*
%TO.P,C2,1*%
%TO.N,Net-(J2-Pin_5)*%
X103000000Y-111000000D03*
%TO.P,C2,2*%
%TO.N,GND*%
X101450000Y-111000000D03*
%TD*%
D20*
%TO.P,M1,1*%
%TO.N,N/C*%
X108300000Y-85500000D03*
%TD*%
D24*
%TO.P,U2,1,I/O1_1*%
%TO.N,Net-(J1-CLK)*%
X131737500Y-86650000D03*
%TO.P,U2,2,GND_2*%
%TO.N,GND*%
X131737500Y-85700000D03*
%TO.P,U2,3,I/O2_3*%
%TO.N,Net-(J1-CMD)*%
X131737500Y-84750000D03*
%TO.P,U2,4,I/O2_4*%
%TO.N,Net-(J1-DAT0)*%
X129462500Y-84750000D03*
%TO.P,U2,5,VBUS_5*%
%TO.N,Net-(J1-VDD)*%
X129462500Y-85700000D03*
%TO.P,U2,6,I/O1_6*%
%TO.N,Net-(J1-DAT3{slash}CD)*%
X129462500Y-86650000D03*
%TD*%
D25*
%TO.N,Net-(J2-Pin_5)*%
X104100000Y-89300000D03*
X104100000Y-100100000D03*
%TO.N,GND*%
X114200000Y-111100000D03*
X106000000Y-97200000D03*
X133500000Y-85800000D03*
X121100000Y-100800000D03*
D26*
%TO.N,Net-(J1-DAT3{slash}CD)*%
X106800000Y-101600000D03*
X115600000Y-94000000D03*
X119200000Y-96400000D03*
X111600000Y-94000000D03*
%TO.N,Net-(J1-DAT0)*%
X112200000Y-93400000D03*
X115900000Y-98400000D03*
X106800000Y-100800000D03*
X127700000Y-84800000D03*
%TO.N,Net-(J1-CMD)*%
X119955000Y-97455000D03*
X116400000Y-92700000D03*
%TO.N,Net-(J1-CLK)*%
X133500000Y-86700000D03*
X117800000Y-91100000D03*
D25*
%TO.N,Net-(J1-VDD)*%
X114000000Y-88500000D03*
X114000000Y-99200000D03*
X120100000Y-98600000D03*
%TD*%
%TO.N,Net-(J2-Pin_5)*%
D27*
X104700000Y-88700000D02*
X105600000Y-88700000D01*
X104100000Y-101600000D02*
X105725000Y-103225000D01*
X105725000Y-103225000D02*
X105725000Y-109050000D01*
X105600000Y-88700000D02*
X106200000Y-89300000D01*
X106837500Y-110402684D02*
X106290184Y-110950000D01*
X107000000Y-91400000D02*
X108275000Y-91400000D01*
X106290184Y-110950000D02*
X105725000Y-110950000D01*
X101700000Y-101640000D02*
X104060000Y-101640000D01*
X106387499Y-109050000D02*
X106837500Y-109500001D01*
X104060000Y-101640000D02*
X104100000Y-101600000D01*
X104100000Y-89300000D02*
X104700000Y-88700000D01*
X103050000Y-110950000D02*
X103000000Y-111000000D01*
X105725000Y-110950000D02*
X103050000Y-110950000D01*
X106200000Y-89300000D02*
X106200000Y-90600000D01*
X104100000Y-101600000D02*
X104100000Y-100100000D01*
X106837500Y-109500001D02*
X106837500Y-110402684D01*
X106200000Y-90600000D02*
X107000000Y-91400000D01*
X105725000Y-109050000D02*
X106387499Y-109050000D01*
%TO.N,Net-(J2-Pin_1)*%
D28*
X104480000Y-91480000D02*
X105050000Y-92050000D01*
X108225000Y-92000000D02*
X108275000Y-92050000D01*
X101700000Y-91480000D02*
X104480000Y-91480000D01*
X105050000Y-92050000D02*
X108275000Y-92050000D01*
%TO.N,Net-(J2-Pin_2)*%
X101700000Y-94020000D02*
X103480000Y-94020000D01*
X104800000Y-92700000D02*
X108275000Y-92700000D01*
X103480000Y-94020000D02*
X104800000Y-92700000D01*
%TO.N,Net-(J2-Pin_3)*%
X103560000Y-96560000D02*
X103581802Y-96581802D01*
X103581802Y-96581802D02*
X106813604Y-93350000D01*
X101700000Y-96560000D02*
X103560000Y-96560000D01*
X106813604Y-93350000D02*
X108275000Y-93350000D01*
%TO.N,Net-(J2-Pin_4)*%
X101700000Y-99100000D02*
X103200000Y-99100000D01*
X103200000Y-99100000D02*
X105000000Y-97300000D01*
X105000000Y-97300000D02*
X105000000Y-95900000D01*
X105000000Y-95900000D02*
X106900000Y-94000000D01*
X106900000Y-94000000D02*
X108275000Y-94000000D01*
%TO.N,GND*%
D27*
X122810000Y-100755000D02*
X121145000Y-100755000D01*
X114000000Y-95300000D02*
X116100000Y-95300000D01*
X121145000Y-100755000D02*
X121100000Y-100800000D01*
X106700000Y-95300000D02*
X108275000Y-95300000D01*
X111000000Y-111000000D02*
X114100000Y-111000000D01*
X133400000Y-85700000D02*
X133500000Y-85800000D01*
X101700000Y-110000000D02*
X105725000Y-110000000D01*
X116100000Y-95300000D02*
X116700000Y-95900000D01*
X101450000Y-112150000D02*
X101450000Y-111000000D01*
X101700000Y-110000000D02*
X101700000Y-110750000D01*
X101700000Y-104180000D02*
X101700000Y-110000000D01*
X114900000Y-110400000D02*
X114200000Y-111100000D01*
X101700000Y-110750000D02*
X101450000Y-111000000D01*
X111000000Y-111000000D02*
X111000000Y-112200000D01*
X114100000Y-111000000D02*
X114200000Y-111100000D01*
X106700000Y-95300000D02*
X106000000Y-96000000D01*
X114900000Y-98300000D02*
X114900000Y-110400000D01*
X111000000Y-112200000D02*
X101500000Y-112200000D01*
X116700000Y-96500000D02*
X114900000Y-98300000D01*
X131737500Y-85700000D02*
X133400000Y-85700000D01*
X106000000Y-96000000D02*
X106000000Y-97200000D01*
X101500000Y-112200000D02*
X101450000Y-112150000D01*
X116700000Y-95900000D02*
X116700000Y-96500000D01*
%TO.N,Net-(J1-DAT3{slash}CD)*%
D28*
X108200000Y-101600000D02*
X106800000Y-101600000D01*
X125650000Y-86650000D02*
X129462500Y-86650000D01*
X114000000Y-94000000D02*
X115600000Y-94000000D01*
X113975000Y-94025000D02*
X111625000Y-94025000D01*
X111625000Y-94025000D02*
X111600000Y-94000000D01*
X114000000Y-94000000D02*
X113975000Y-94025000D01*
X124045000Y-96355000D02*
X124900000Y-95500000D01*
X122810000Y-96355000D02*
X119245000Y-96355000D01*
X124900000Y-95500000D02*
X124900000Y-87400000D01*
X124900000Y-87400000D02*
X125650000Y-86650000D01*
X119245000Y-96355000D02*
X119200000Y-96400000D01*
X122810000Y-96355000D02*
X124045000Y-96355000D01*
%TO.N,Net-(J1-DAT0)*%
X119400000Y-99900000D02*
X119400000Y-101400000D01*
X129462500Y-84750000D02*
X127750000Y-84750000D01*
X112250000Y-93350000D02*
X112200000Y-93400000D01*
X115900000Y-98400000D02*
X117800000Y-98400000D01*
X119400000Y-101400000D02*
X119855000Y-101855000D01*
X117900000Y-94400000D02*
X117900000Y-98300000D01*
X119855000Y-101855000D02*
X122810000Y-101855000D01*
X114000000Y-93350000D02*
X116850000Y-93350000D01*
X117900000Y-98400000D02*
X119400000Y-99900000D01*
X117900000Y-98300000D02*
X117900000Y-98400000D01*
X108200000Y-100800000D02*
X106800000Y-100800000D01*
X114000000Y-93350000D02*
X112250000Y-93350000D01*
X116850000Y-93350000D02*
X117900000Y-94400000D01*
X117800000Y-98400000D02*
X117900000Y-98300000D01*
X127750000Y-84750000D02*
X127700000Y-84800000D01*
%TO.N,Net-(J1-CMD)*%
X110900000Y-96100000D02*
X110900000Y-93200000D01*
X110900000Y-93200000D02*
X111400000Y-92700000D01*
X114000000Y-92700000D02*
X116400000Y-92700000D01*
X123745000Y-97455000D02*
X133300000Y-87900000D01*
X108850000Y-100000000D02*
X109100000Y-99750000D01*
X109100000Y-97900000D02*
X110900000Y-96100000D01*
X135500000Y-87000000D02*
X135500000Y-85700000D01*
X134600000Y-87900000D02*
X135500000Y-87000000D01*
X122810000Y-97455000D02*
X123745000Y-97455000D01*
X119955000Y-97455000D02*
X122810000Y-97455000D01*
X135500000Y-85700000D02*
X134550000Y-84750000D01*
X109100000Y-99750000D02*
X109100000Y-97900000D01*
X111400000Y-92700000D02*
X114000000Y-92700000D01*
X134550000Y-84750000D02*
X131737500Y-84750000D01*
X133300000Y-87900000D02*
X134600000Y-87900000D01*
X108200000Y-100000000D02*
X108850000Y-100000000D01*
%TO.N,Net-(J1-CLK)*%
X131737500Y-86650000D02*
X133450000Y-86650000D01*
X106900000Y-99200000D02*
X106500000Y-98800000D01*
X133450000Y-86650000D02*
X133500000Y-86700000D01*
X114000000Y-92050000D02*
X116950000Y-92050000D01*
X118500000Y-98100000D02*
X120050000Y-99650000D01*
X111150000Y-92050000D02*
X114000000Y-92050000D01*
X106500000Y-98800000D02*
X106500000Y-98000000D01*
X116950000Y-92050000D02*
X117800000Y-91200000D01*
X108200000Y-99200000D02*
X106900000Y-99200000D01*
X106500000Y-98000000D02*
X106900000Y-97600000D01*
X120050000Y-99650000D02*
X120045000Y-99655000D01*
X116950000Y-92050000D02*
X118500000Y-93600000D01*
X118500000Y-93600000D02*
X118500000Y-98100000D01*
X110100000Y-95900000D02*
X110100000Y-93100000D01*
X108400000Y-97600000D02*
X110100000Y-95900000D01*
X106900000Y-97600000D02*
X108400000Y-97600000D01*
X117800000Y-91200000D02*
X117800000Y-91100000D01*
X120045000Y-99655000D02*
X122810000Y-99655000D01*
X114000000Y-92050000D02*
X114050000Y-92100000D01*
X110100000Y-93100000D02*
X111150000Y-92050000D01*
%TO.N,Net-(J1-VDD)*%
D27*
X117100000Y-90400000D02*
X116100000Y-91400000D01*
X122765000Y-98600000D02*
X122810000Y-98555000D01*
X108400000Y-109450000D02*
X108000000Y-109050000D01*
X120900000Y-85700000D02*
X129462500Y-85700000D01*
X117100000Y-89500000D02*
X120900000Y-85700000D01*
X110000000Y-100000000D02*
X110000000Y-100800000D01*
X116100000Y-88500000D02*
X117100000Y-89500000D01*
X108000000Y-109050000D02*
X110000000Y-107050000D01*
X120100000Y-98600000D02*
X122765000Y-98600000D01*
X110000000Y-99200000D02*
X110000000Y-100000000D01*
X110000000Y-107050000D02*
X110000000Y-101600000D01*
X111000000Y-109450000D02*
X108400000Y-109450000D01*
X110000000Y-100800000D02*
X110000000Y-101600000D01*
X117100000Y-89500000D02*
X117100000Y-90400000D01*
X114000000Y-88500000D02*
X116100000Y-88500000D01*
X116100000Y-91400000D02*
X114000000Y-91400000D01*
X110000000Y-99200000D02*
X114000000Y-99200000D01*
%TD*%
%TA.AperFunction,Conductor*%
%TO.N,Net-(J2-Pin_5)*%
G36*
X105973362Y-108453427D02*
G01*
X105976630Y-108459777D01*
X106024012Y-108744073D01*
X106021992Y-108752797D01*
X106020758Y-108754255D01*
X105733287Y-109042685D01*
X105725019Y-109046126D01*
X105716741Y-109042713D01*
X105716713Y-109042685D01*
X105429241Y-108754255D01*
X105425828Y-108745977D01*
X105425986Y-108744083D01*
X105473370Y-108459775D01*
X105478111Y-108452179D01*
X105484911Y-108450000D01*
X105965089Y-108450000D01*
X105973362Y-108453427D01*
G37*
%TD.AperFunction*%
%TD*%
%TA.AperFunction,Conductor*%
%TO.N,Net-(J2-Pin_5)*%
G36*
X106420186Y-110465935D02*
G01*
X106422050Y-110466214D01*
X106428591Y-110469512D01*
X106763807Y-110804728D01*
X106766343Y-110808522D01*
X106767025Y-110810168D01*
X106767025Y-110819122D01*
X106766846Y-110819556D01*
X106766731Y-110819834D01*
X106761620Y-110825566D01*
X106392480Y-111031215D01*
X106389017Y-111032479D01*
X106385531Y-111033156D01*
X106381842Y-111033280D01*
X105735265Y-110952084D01*
X105730937Y-110950644D01*
X105728553Y-110949286D01*
X105723614Y-110943788D01*
X105723449Y-110943410D01*
X105722634Y-110940646D01*
X105700495Y-110806374D01*
X105700224Y-110804728D01*
X105676845Y-110662939D01*
X105676994Y-110658384D01*
X105677463Y-110656378D01*
X105682284Y-110649360D01*
X105683463Y-110648560D01*
X105687198Y-110646891D01*
X106280973Y-110499092D01*
X106281469Y-110498981D01*
X106282052Y-110498866D01*
X106282554Y-110498781D01*
X106338893Y-110490573D01*
X106361823Y-110479362D01*
X106362928Y-110478891D01*
X106364091Y-110478468D01*
X106365249Y-110478114D01*
X106414179Y-110465934D01*
X106418736Y-110465718D01*
X106420186Y-110465935D01*
G37*
%TD.AperFunction*%
%TD*%
%TA.AperFunction,Conductor*%
%TO.N,Net-(J2-Pin_5)*%
G36*
X101960335Y-100831885D02*
G01*
X103386280Y-101386257D01*
X103390126Y-101388707D01*
X103392297Y-101390785D01*
X103395904Y-101398979D01*
X103393773Y-101404462D01*
X103395907Y-101879614D01*
X103395015Y-101884148D01*
X103393865Y-101886922D01*
X103387531Y-101893252D01*
X103387297Y-101893346D01*
X101960666Y-102447985D01*
X101956170Y-102448777D01*
X101954389Y-102448738D01*
X101946194Y-102445131D01*
X101945226Y-102444120D01*
X101942491Y-102439444D01*
X101700546Y-101645075D01*
X101700038Y-101641666D01*
X101700038Y-101638332D01*
X101700546Y-101634923D01*
X101772706Y-101398004D01*
X101776284Y-101386257D01*
X101942390Y-100840886D01*
X101944539Y-100836875D01*
X101945677Y-100835491D01*
X101953572Y-100831282D01*
X101954968Y-100831146D01*
X101960335Y-100831885D01*
G37*
%TD.AperFunction*%
%TD*%
%TA.AperFunction,Conductor*%
%TO.N,Net-(J2-Pin_5)*%
G36*
X106391120Y-108903519D02*
G01*
X106761371Y-109078259D01*
X106767390Y-109084889D01*
X106766958Y-109093834D01*
X106764650Y-109097113D01*
X106426884Y-109434879D01*
X106418611Y-109438306D01*
X106417200Y-109438221D01*
X105702735Y-109351395D01*
X105694935Y-109346995D01*
X105692516Y-109338502D01*
X105720331Y-109085356D01*
X105723378Y-109057617D01*
X105727688Y-109049769D01*
X105732468Y-109047475D01*
X106383590Y-108902680D01*
X106391120Y-108903519D01*
G37*
%TD.AperFunction*%
%TD*%
%TA.AperFunction,Conductor*%
%TO.N,Net-(J2-Pin_5)*%
G36*
X104493292Y-88566761D02*
G01*
X104833238Y-88906707D01*
X104836665Y-88914980D01*
X104834681Y-88921499D01*
X104424270Y-89533176D01*
X104416815Y-89538137D01*
X104408035Y-89536373D01*
X104407455Y-89535957D01*
X104100541Y-89301659D01*
X104098340Y-89299458D01*
X103864042Y-88992544D01*
X103861746Y-88983889D01*
X103866243Y-88976145D01*
X103866823Y-88975729D01*
X103947648Y-88921499D01*
X104478500Y-88565317D01*
X104487280Y-88563554D01*
X104493292Y-88566761D01*
G37*
%TD.AperFunction*%
%TD*%
%TA.AperFunction,Conductor*%
%TO.N,Net-(J2-Pin_5)*%
G36*
X105210495Y-110650817D02*
G01*
X105213996Y-110651560D01*
X105217469Y-110652902D01*
X105297584Y-110699708D01*
X105511562Y-110824720D01*
X105706699Y-110938724D01*
X105710112Y-110941747D01*
X105711191Y-110943169D01*
X105713467Y-110951812D01*
X105713444Y-110951982D01*
X105710123Y-110958686D01*
X105709775Y-110959034D01*
X105707404Y-110960863D01*
X105217472Y-111247094D01*
X105213998Y-111248437D01*
X105211271Y-111249015D01*
X105210493Y-111249181D01*
X105206774Y-111249363D01*
X104775221Y-111201413D01*
X104770868Y-111200033D01*
X104768978Y-111198992D01*
X104763582Y-111192614D01*
X104763156Y-111191398D01*
X104762500Y-111187536D01*
X104762500Y-110712798D01*
X104763389Y-110708323D01*
X104764216Y-110706327D01*
X104769950Y-110700264D01*
X104771109Y-110699706D01*
X104774883Y-110698623D01*
X105206779Y-110650635D01*
X105210495Y-110650817D01*
G37*
%TD.AperFunction*%
%TD*%
%TA.AperFunction,Conductor*%
%TO.N,Net-(J2-Pin_5)*%
G36*
X103317817Y-110544227D02*
G01*
X103320391Y-110544615D01*
X103889084Y-110697073D01*
X103893175Y-110699091D01*
X103895282Y-110700709D01*
X103899457Y-110706950D01*
X103899598Y-110707474D01*
X103900000Y-110710514D01*
X103900000Y-111189903D01*
X103899109Y-111194381D01*
X103897941Y-111197200D01*
X103891673Y-111203505D01*
X103361301Y-111426852D01*
X103356828Y-111427769D01*
X103354093Y-111427785D01*
X103347086Y-111425505D01*
X103346748Y-111425256D01*
X103344625Y-111423236D01*
X103164786Y-111203014D01*
X103005995Y-111008567D01*
X103003856Y-111004540D01*
X103003066Y-111001912D01*
X103003272Y-110994558D01*
X103003414Y-110994166D01*
X103004738Y-110991579D01*
X103305118Y-110550906D01*
X103308373Y-110547712D01*
X103310801Y-110546122D01*
X103317646Y-110544220D01*
X103317817Y-110544227D01*
G37*
%TD.AperFunction*%
%TD*%
%TA.AperFunction,Conductor*%
%TO.N,Net-(J2-Pin_5)*%
G36*
X104484251Y-100150556D02*
G01*
X104491995Y-100155053D01*
X104494291Y-100163708D01*
X104494175Y-100164413D01*
X104351859Y-100887139D01*
X104346898Y-100894594D01*
X104340379Y-100896578D01*
X103859621Y-100896578D01*
X103851348Y-100893151D01*
X103848141Y-100887139D01*
X103705824Y-100164410D01*
X103707588Y-100155633D01*
X103715043Y-100150672D01*
X103715741Y-100150557D01*
X104098450Y-100099208D01*
X104101550Y-100099208D01*
X104484251Y-100150556D01*
G37*
%TD.AperFunction*%
%TD*%
%TA.AperFunction,Conductor*%
%TO.N,Net-(J2-Pin_1)*%
G36*
X102556260Y-90636286D02*
G01*
X102559802Y-90638360D01*
X103394124Y-91349988D01*
X103396950Y-91353569D01*
X103398721Y-91357039D01*
X103400000Y-91362356D01*
X103400000Y-91597273D01*
X103399109Y-91601751D01*
X103397618Y-91605350D01*
X103394402Y-91609774D01*
X102559988Y-92321480D01*
X102555999Y-92323709D01*
X102554047Y-92324341D01*
X102545542Y-92323834D01*
X102544248Y-92323237D01*
X102540881Y-92320891D01*
X101827024Y-91607874D01*
X101708933Y-91489921D01*
X101706395Y-91486129D01*
X101705711Y-91484482D01*
X101705705Y-91475532D01*
X101706386Y-91473885D01*
X101708925Y-91470085D01*
X102540714Y-90639273D01*
X102544503Y-90636744D01*
X102546406Y-90635957D01*
X102554922Y-90635793D01*
X102556260Y-90636286D01*
G37*
%TD.AperFunction*%
%TD*%
%TA.AperFunction,Conductor*%
%TO.N,Net-(J2-Pin_1)*%
G36*
X107600724Y-91858458D02*
G01*
X107603770Y-91858902D01*
X108234171Y-92038109D01*
X108238233Y-92040189D01*
X108239221Y-92040971D01*
X108243582Y-92048792D01*
X108241134Y-92057406D01*
X108241126Y-92057417D01*
X108240911Y-92057688D01*
X108234944Y-92061670D01*
X107603775Y-92241095D01*
X107600720Y-92241540D01*
X107597714Y-92241577D01*
X107594653Y-92241208D01*
X107348536Y-92177841D01*
X107344422Y-92175862D01*
X107342326Y-92174286D01*
X107338069Y-92168012D01*
X107337912Y-92167436D01*
X107337500Y-92164359D01*
X107337500Y-91936395D01*
X107338389Y-91931922D01*
X107338427Y-91931828D01*
X107339394Y-91929495D01*
X107344404Y-91923809D01*
X107344923Y-91923513D01*
X107347797Y-91922348D01*
X107594657Y-91858789D01*
X107597712Y-91858421D01*
X107600724Y-91858458D01*
G37*
%TD.AperFunction*%
%TD*%
%TA.AperFunction,Conductor*%
%TO.N,Net-(J2-Pin_2)*%
G36*
X102110785Y-93275236D02*
G01*
X103389289Y-93891808D01*
X103395253Y-93898489D01*
X103395907Y-93902347D01*
X103395907Y-94137652D01*
X103392480Y-94145925D01*
X103389289Y-94148191D01*
X102110786Y-94764762D01*
X102101846Y-94765269D01*
X102095391Y-94759749D01*
X101701961Y-94025526D01*
X101701074Y-94016615D01*
X101701961Y-94014474D01*
X102095391Y-93280250D01*
X102102319Y-93274576D01*
X102110785Y-93275236D01*
G37*
%TD.AperFunction*%
%TD*%
%TA.AperFunction,Conductor*%
%TO.N,Net-(J2-Pin_2)*%
G36*
X107600724Y-92508458D02*
G01*
X107603770Y-92508902D01*
X108234171Y-92688109D01*
X108238233Y-92690189D01*
X108239221Y-92690971D01*
X108243582Y-92698792D01*
X108241134Y-92707406D01*
X108241126Y-92707417D01*
X108240911Y-92707688D01*
X108234944Y-92711670D01*
X107603775Y-92891095D01*
X107600720Y-92891540D01*
X107597714Y-92891577D01*
X107594653Y-92891208D01*
X107348536Y-92827841D01*
X107344422Y-92825862D01*
X107342326Y-92824286D01*
X107338069Y-92818012D01*
X107337912Y-92817436D01*
X107337500Y-92814359D01*
X107337500Y-92586395D01*
X107338389Y-92581922D01*
X107338427Y-92581828D01*
X107339394Y-92579495D01*
X107344404Y-92573809D01*
X107344923Y-92573513D01*
X107347797Y-92572348D01*
X107594657Y-92508789D01*
X107597712Y-92508421D01*
X107600724Y-92508458D01*
G37*
%TD.AperFunction*%
%TD*%
%TA.AperFunction,Conductor*%
%TO.N,Net-(J2-Pin_3)*%
G36*
X102110785Y-95815236D02*
G01*
X103389289Y-96431808D01*
X103395253Y-96438489D01*
X103395907Y-96442347D01*
X103395907Y-96677652D01*
X103392480Y-96685925D01*
X103389289Y-96688191D01*
X102110786Y-97304762D01*
X102101846Y-97305269D01*
X102095391Y-97299749D01*
X101701961Y-96565526D01*
X101701074Y-96556615D01*
X101701961Y-96554474D01*
X102095391Y-95820250D01*
X102102319Y-95814576D01*
X102110785Y-95815236D01*
G37*
%TD.AperFunction*%
%TD*%
%TA.AperFunction,Conductor*%
%TO.N,Net-(J2-Pin_3)*%
G36*
X107602278Y-93158478D02*
G01*
X108236411Y-93338746D01*
X108243432Y-93344304D01*
X108244466Y-93353199D01*
X108238908Y-93360220D01*
X108236411Y-93361254D01*
X107602278Y-93541521D01*
X107596162Y-93541597D01*
X107346283Y-93477261D01*
X107339125Y-93471880D01*
X107337500Y-93465931D01*
X107337500Y-93234068D01*
X107340927Y-93225795D01*
X107346280Y-93222739D01*
X107596163Y-93158402D01*
X107602278Y-93158478D01*
G37*
%TD.AperFunction*%
%TD*%
%TA.AperFunction,Conductor*%
%TO.N,Net-(J2-Pin_4)*%
G36*
X102110672Y-98354908D02*
G01*
X102565908Y-98561928D01*
X103248207Y-98872207D01*
X103251636Y-98874583D01*
X103416343Y-99039290D01*
X103419770Y-99047563D01*
X103416343Y-99055836D01*
X103414112Y-99057582D01*
X102111226Y-99843276D01*
X102102372Y-99844614D01*
X102095165Y-99839299D01*
X102094872Y-99838784D01*
X101702251Y-99106227D01*
X101701364Y-99097318D01*
X101702243Y-99095191D01*
X102095513Y-98360037D01*
X102102436Y-98354361D01*
X102110672Y-98354908D01*
G37*
%TD.AperFunction*%
%TD*%
%TA.AperFunction,Conductor*%
%TO.N,Net-(J2-Pin_4)*%
G36*
X107600724Y-93808458D02*
G01*
X107603770Y-93808902D01*
X108234171Y-93988109D01*
X108238233Y-93990189D01*
X108239221Y-93990971D01*
X108243582Y-93998792D01*
X108241134Y-94007406D01*
X108241126Y-94007417D01*
X108240911Y-94007688D01*
X108234944Y-94011670D01*
X107603775Y-94191095D01*
X107600720Y-94191540D01*
X107597714Y-94191577D01*
X107594653Y-94191208D01*
X107348536Y-94127841D01*
X107344422Y-94125862D01*
X107342326Y-94124286D01*
X107338069Y-94118012D01*
X107337912Y-94117436D01*
X107337500Y-94114359D01*
X107337500Y-93886395D01*
X107338389Y-93881922D01*
X107338427Y-93881828D01*
X107339394Y-93879495D01*
X107344404Y-93873809D01*
X107344923Y-93873513D01*
X107347797Y-93872348D01*
X107594657Y-93808789D01*
X107597712Y-93808421D01*
X107600724Y-93808458D01*
G37*
%TD.AperFunction*%
%TD*%
%TA.AperFunction,Conductor*%
%TO.N,GND*%
G36*
X122211675Y-100407112D02*
G01*
X122216224Y-100408624D01*
X122376844Y-100502164D01*
X122382662Y-100505552D01*
X122791628Y-100743719D01*
X122795049Y-100746742D01*
X122796127Y-100748158D01*
X122798419Y-100756768D01*
X122798398Y-100756928D01*
X122795070Y-100763678D01*
X122794711Y-100764037D01*
X122792326Y-100765874D01*
X122216320Y-101101318D01*
X122212004Y-101102802D01*
X122207859Y-101103364D01*
X122203073Y-101103020D01*
X121870723Y-101008063D01*
X121866663Y-101005977D01*
X121864538Y-101004290D01*
X121860487Y-100998055D01*
X121860372Y-100997610D01*
X121860000Y-100994683D01*
X121860000Y-100516152D01*
X121860889Y-100511679D01*
X121860924Y-100511593D01*
X121861927Y-100509172D01*
X121866816Y-100503556D01*
X121866971Y-100503465D01*
X121867216Y-100503322D01*
X121869917Y-100502165D01*
X122202972Y-100407007D01*
X122207515Y-100406634D01*
X122211675Y-100407112D01*
G37*
%TD.AperFunction*%
%TD*%
%TA.AperFunction,Conductor*%
%TO.N,GND*%
G36*
X121884155Y-100503304D02*
G01*
X121888471Y-100504793D01*
X121890405Y-100505922D01*
X121895591Y-100512284D01*
X121895963Y-100513386D01*
X121896578Y-100517128D01*
X121896578Y-100993601D01*
X121895686Y-100998082D01*
X121894681Y-101000506D01*
X121889688Y-101006177D01*
X121889173Y-101006472D01*
X121886274Y-101007651D01*
X121167221Y-101192714D01*
X121162662Y-101192966D01*
X121160898Y-101192716D01*
X121153192Y-101188164D01*
X121152456Y-101187185D01*
X121150215Y-101181716D01*
X121126702Y-101006472D01*
X121099312Y-100802325D01*
X121099208Y-100800769D01*
X121099208Y-100799229D01*
X121099312Y-100797673D01*
X121138160Y-100508133D01*
X121150340Y-100417346D01*
X121151817Y-100413031D01*
X121152714Y-100411487D01*
X121159827Y-100406058D01*
X121161540Y-100405603D01*
X121166118Y-100405319D01*
X121884155Y-100503304D01*
G37*
%TD.AperFunction*%
%TD*%
%TA.AperFunction,Conductor*%
%TO.N,GND*%
G36*
X111342613Y-110569418D02*
G01*
X111345019Y-110569895D01*
X111356665Y-110573512D01*
X111914552Y-110746755D01*
X111918562Y-110748935D01*
X111919248Y-110749505D01*
X111920703Y-110750717D01*
X111924568Y-110756870D01*
X111924651Y-110757209D01*
X111925000Y-110760040D01*
X111925000Y-111239053D01*
X111924108Y-111243533D01*
X111923042Y-111246105D01*
X111918284Y-111251640D01*
X111917991Y-111251817D01*
X111915411Y-111252976D01*
X111346054Y-111429781D01*
X111341514Y-111430258D01*
X111338551Y-111429986D01*
X111332064Y-111427267D01*
X111332035Y-111427243D01*
X111330364Y-111425502D01*
X111186978Y-111241381D01*
X111006026Y-111009023D01*
X111003980Y-111004950D01*
X111003285Y-111002428D01*
X111003754Y-110994845D01*
X111003994Y-110994266D01*
X111005566Y-110991567D01*
X111329704Y-110575343D01*
X111333150Y-110572364D01*
X111335744Y-110570892D01*
X111342575Y-110569415D01*
X111342613Y-110569418D01*
G37*
%TD.AperFunction*%
%TD*%
%TA.AperFunction,Conductor*%
%TO.N,GND*%
G36*
X114145375Y-110707009D02*
G01*
X114149240Y-110714235D01*
X114200579Y-111096863D01*
X114199782Y-111102921D01*
X114051167Y-111459381D01*
X114044820Y-111465699D01*
X114036522Y-111465929D01*
X113424081Y-111252734D01*
X113417394Y-111246777D01*
X113416227Y-111241684D01*
X113416227Y-110760978D01*
X113419654Y-110752705D01*
X113427183Y-110749302D01*
X114136901Y-110704115D01*
X114145375Y-110707009D01*
G37*
%TD.AperFunction*%
%TD*%
%TA.AperFunction,Conductor*%
%TO.N,GND*%
G36*
X105210495Y-109700817D02*
G01*
X105213996Y-109701560D01*
X105217469Y-109702902D01*
X105297584Y-109749708D01*
X105511562Y-109874720D01*
X105706699Y-109988724D01*
X105710112Y-109991747D01*
X105711191Y-109993169D01*
X105713467Y-110001812D01*
X105713444Y-110001982D01*
X105710123Y-110008686D01*
X105709775Y-110009034D01*
X105707404Y-110010863D01*
X105217472Y-110297094D01*
X105213998Y-110298437D01*
X105211271Y-110299015D01*
X105210493Y-110299181D01*
X105206774Y-110299363D01*
X104775221Y-110251413D01*
X104770868Y-110250033D01*
X104768978Y-110248992D01*
X104763582Y-110242614D01*
X104763156Y-110241398D01*
X104762500Y-110237536D01*
X104762500Y-109762798D01*
X104763389Y-109758323D01*
X104764216Y-109756327D01*
X104769950Y-109750264D01*
X104771109Y-109749706D01*
X104774883Y-109748623D01*
X105206779Y-109700635D01*
X105210495Y-109700817D01*
G37*
%TD.AperFunction*%
%TD*%
%TA.AperFunction,Conductor*%
%TO.N,GND*%
G36*
X101457187Y-111004597D02*
G01*
X101775857Y-111252764D01*
X101876487Y-111331131D01*
X101880909Y-111338918D01*
X101880472Y-111343832D01*
X101702556Y-111916770D01*
X101696829Y-111923654D01*
X101691382Y-111925000D01*
X101208618Y-111925000D01*
X101200345Y-111921573D01*
X101197444Y-111916770D01*
X101019527Y-111343832D01*
X101020347Y-111334915D01*
X101023510Y-111331132D01*
X101442811Y-111004597D01*
X101451444Y-111002218D01*
X101457187Y-111004597D01*
G37*
%TD.AperFunction*%
%TD*%
%TA.AperFunction,Conductor*%
%TO.N,GND*%
G36*
X101945961Y-110083400D02*
G01*
X101949388Y-110091673D01*
X101949373Y-110092269D01*
X101900646Y-111048309D01*
X101896802Y-111056397D01*
X101888365Y-111059398D01*
X101887415Y-111059310D01*
X101454643Y-111001618D01*
X101447067Y-110997348D01*
X101107043Y-110574041D01*
X101104534Y-110565445D01*
X101106649Y-110559906D01*
X101441203Y-110092269D01*
X101446500Y-110084864D01*
X101454101Y-110080131D01*
X101456016Y-110079973D01*
X101937688Y-110079973D01*
X101945961Y-110083400D01*
G37*
%TD.AperFunction*%
%TD*%
%TA.AperFunction,Conductor*%
%TO.N,GND*%
G36*
X102501333Y-104423067D02*
G01*
X102508248Y-104428754D01*
X102509115Y-104437667D01*
X102508828Y-104438498D01*
X101952900Y-105868447D01*
X101946708Y-105874916D01*
X101941995Y-105875907D01*
X101458005Y-105875907D01*
X101449732Y-105872480D01*
X101447100Y-105868447D01*
X100891171Y-104438498D01*
X100891367Y-104429545D01*
X100897836Y-104423353D01*
X100898642Y-104423074D01*
X101696592Y-104180038D01*
X101703408Y-104180038D01*
X102501333Y-104423067D01*
G37*
%TD.AperFunction*%
%TD*%
%TA.AperFunction,Conductor*%
%TO.N,GND*%
G36*
X114593292Y-110366761D02*
G01*
X114933238Y-110706707D01*
X114936665Y-110714980D01*
X114934681Y-110721499D01*
X114524270Y-111333176D01*
X114516815Y-111338137D01*
X114508035Y-111336373D01*
X114507455Y-111335957D01*
X114200541Y-111101659D01*
X114198340Y-111099458D01*
X113964042Y-110792544D01*
X113961746Y-110783889D01*
X113966243Y-110776145D01*
X113966823Y-110775729D01*
X114047648Y-110721499D01*
X114578500Y-110365317D01*
X114587280Y-110363554D01*
X114593292Y-110366761D01*
G37*
%TD.AperFunction*%
%TD*%
%TA.AperFunction,Conductor*%
%TO.N,GND*%
G36*
X111006833Y-111003918D02*
G01*
X111308984Y-111221390D01*
X111442925Y-111317794D01*
X111447638Y-111325408D01*
X111447145Y-111331121D01*
X111252727Y-111892131D01*
X111246780Y-111898826D01*
X111241672Y-111900000D01*
X110758328Y-111900000D01*
X110750055Y-111896573D01*
X110747273Y-111892131D01*
X110552854Y-111331121D01*
X110553383Y-111322182D01*
X110557072Y-111317795D01*
X110993165Y-111003918D01*
X111001882Y-111001867D01*
X111006833Y-111003918D01*
G37*
%TD.AperFunction*%
%TD*%
%TA.AperFunction,Conductor*%
%TO.N,GND*%
G36*
X132687281Y-85448586D02*
G01*
X132691629Y-85449964D01*
X132693521Y-85451006D01*
X132698914Y-85457377D01*
X132699340Y-85458592D01*
X132700000Y-85462462D01*
X132700000Y-85937200D01*
X132699108Y-85941682D01*
X132698282Y-85943674D01*
X132692549Y-85949734D01*
X132691394Y-85950290D01*
X132687611Y-85951376D01*
X132255724Y-85999363D01*
X132252005Y-85999181D01*
X132248498Y-85998437D01*
X132245026Y-85997094D01*
X132164416Y-85950000D01*
X131755800Y-85711275D01*
X131752385Y-85708250D01*
X131751308Y-85706832D01*
X131749032Y-85698177D01*
X131749055Y-85698006D01*
X131752374Y-85691314D01*
X131752727Y-85690961D01*
X131755089Y-85689139D01*
X132245032Y-85402901D01*
X132248499Y-85401561D01*
X132252003Y-85400817D01*
X132255718Y-85400635D01*
X132687281Y-85448586D01*
G37*
%TD.AperFunction*%
%TD*%
%TA.AperFunction,Conductor*%
%TO.N,GND*%
G36*
X133439100Y-85404866D02*
G01*
X133441016Y-85405520D01*
X133447545Y-85411068D01*
X133448239Y-85412364D01*
X133448507Y-85415063D01*
X133448825Y-85415020D01*
X133500370Y-85795307D01*
X133500376Y-85798406D01*
X133499984Y-85801381D01*
X133499183Y-85804355D01*
X133352062Y-86157232D01*
X133349518Y-86161021D01*
X133348111Y-86162422D01*
X133340180Y-86165827D01*
X133338665Y-86165869D01*
X133334495Y-86165223D01*
X132726279Y-85953499D01*
X132722342Y-85951185D01*
X132720180Y-85949259D01*
X132716546Y-85943078D01*
X132716508Y-85942914D01*
X132716227Y-85940362D01*
X132716227Y-85463305D01*
X132717117Y-85458829D01*
X132717881Y-85456984D01*
X132723874Y-85450798D01*
X132725242Y-85450180D01*
X132729314Y-85449166D01*
X133434582Y-85404262D01*
X133439100Y-85404866D01*
G37*
%TD.AperFunction*%
%TD*%
%TA.AperFunction,Conductor*%
%TO.N,GND*%
G36*
X106248652Y-96406849D02*
G01*
X106251859Y-96412861D01*
X106394175Y-97135586D01*
X106392411Y-97144366D01*
X106384956Y-97149327D01*
X106384251Y-97149443D01*
X106001556Y-97200791D01*
X105998444Y-97200791D01*
X105615748Y-97149443D01*
X105608004Y-97144946D01*
X105605708Y-97136291D01*
X105605818Y-97135621D01*
X105748141Y-96412860D01*
X105753102Y-96405406D01*
X105759621Y-96403422D01*
X106240379Y-96403422D01*
X106248652Y-96406849D01*
G37*
%TD.AperFunction*%
%TD*%
%TA.AperFunction,Conductor*%
%TO.N,Net-(J1-DAT3{slash}CD)*%
G36*
X107806844Y-101354266D02*
G01*
X107948812Y-101442776D01*
X108183100Y-101588841D01*
X108186429Y-101591968D01*
X108187464Y-101593417D01*
X108189488Y-101602114D01*
X108189430Y-101602467D01*
X108186158Y-101608843D01*
X108186022Y-101608979D01*
X108183939Y-101610635D01*
X107807534Y-101845301D01*
X107803264Y-101846913D01*
X107799934Y-101847467D01*
X107792782Y-101846391D01*
X107558548Y-101729274D01*
X107554944Y-101726477D01*
X107552859Y-101724074D01*
X107550000Y-101716410D01*
X107550000Y-101484558D01*
X107550890Y-101480083D01*
X107551219Y-101479288D01*
X107552106Y-101477146D01*
X107557682Y-101471158D01*
X107792059Y-101353969D01*
X107796458Y-101352764D01*
X107799826Y-101352525D01*
X107806844Y-101354266D01*
G37*
%TD.AperFunction*%
%TD*%
%TA.AperFunction,Conductor*%
%TO.N,Net-(J1-DAT3{slash}CD)*%
G36*
X106926952Y-101326665D02*
G01*
X107387033Y-101471720D01*
X107391034Y-101473916D01*
X107393176Y-101475713D01*
X107397019Y-101481889D01*
X107397096Y-101482203D01*
X107397433Y-101484990D01*
X107397433Y-101714092D01*
X107396542Y-101718570D01*
X107395471Y-101721155D01*
X107390735Y-101726677D01*
X107390460Y-101726844D01*
X107387905Y-101728003D01*
X106927215Y-101873250D01*
X106922676Y-101873746D01*
X106920598Y-101873564D01*
X106913005Y-101869826D01*
X106912074Y-101868813D01*
X106909892Y-101865407D01*
X106852305Y-101727579D01*
X106801780Y-101606656D01*
X106800876Y-101602181D01*
X106800863Y-101597915D01*
X106801765Y-101593378D01*
X106909788Y-101334839D01*
X106912334Y-101331055D01*
X106913816Y-101329584D01*
X106921567Y-101326193D01*
X106922946Y-101326135D01*
X106926952Y-101326665D01*
G37*
%TD.AperFunction*%
%TD*%
%TA.AperFunction,Conductor*%
%TO.N,Net-(J1-DAT3{slash}CD)*%
G36*
X128897395Y-86363843D02*
G01*
X129203403Y-86518525D01*
X129442842Y-86639558D01*
X129448680Y-86646349D01*
X129448006Y-86655278D01*
X129442842Y-86660442D01*
X128897403Y-86936152D01*
X128888474Y-86936826D01*
X128887625Y-86936510D01*
X128507200Y-86777999D01*
X128500881Y-86771654D01*
X128500000Y-86767199D01*
X128500000Y-86532800D01*
X128503427Y-86524527D01*
X128507200Y-86522000D01*
X128887626Y-86363488D01*
X128896580Y-86363470D01*
X128897395Y-86363843D01*
G37*
%TD.AperFunction*%
%TD*%
%TA.AperFunction,Conductor*%
%TO.N,Net-(J1-DAT3{slash}CD)*%
G36*
X114680342Y-93808789D02*
G01*
X114926462Y-93872157D01*
X114930574Y-93874133D01*
X114932673Y-93875712D01*
X114936930Y-93881982D01*
X114937087Y-93882557D01*
X114937500Y-93885639D01*
X114937500Y-94113603D01*
X114936609Y-94118080D01*
X114935605Y-94120504D01*
X114930594Y-94126189D01*
X114930077Y-94126484D01*
X114927196Y-94127652D01*
X114680345Y-94191208D01*
X114677284Y-94191577D01*
X114674278Y-94191540D01*
X114671223Y-94191095D01*
X114040827Y-94011890D01*
X114036765Y-94009810D01*
X114035777Y-94009028D01*
X114031416Y-94001207D01*
X114033864Y-93992593D01*
X114034087Y-93992310D01*
X114040053Y-93988329D01*
X114671230Y-93808900D01*
X114674274Y-93808457D01*
X114677286Y-93808421D01*
X114680342Y-93808789D01*
G37*
%TD.AperFunction*%
%TD*%
%TA.AperFunction,Conductor*%
%TO.N,Net-(J1-DAT3{slash}CD)*%
G36*
X115479401Y-93726434D02*
G01*
X115486993Y-93730172D01*
X115487924Y-93731185D01*
X115488842Y-93733696D01*
X115489167Y-93733560D01*
X115598210Y-93993324D01*
X115599122Y-93997820D01*
X115599134Y-94002083D01*
X115598230Y-94006627D01*
X115490211Y-94265155D01*
X115487663Y-94268942D01*
X115486183Y-94270413D01*
X115478428Y-94273805D01*
X115477053Y-94273863D01*
X115473042Y-94273332D01*
X115012967Y-94128278D01*
X115008965Y-94126082D01*
X115006823Y-94124285D01*
X115002972Y-94118075D01*
X115002895Y-94117760D01*
X115002567Y-94115008D01*
X115002567Y-93885906D01*
X115003456Y-93881431D01*
X115004529Y-93878841D01*
X115009243Y-93873333D01*
X115009521Y-93873163D01*
X115012085Y-93871998D01*
X115472786Y-93726747D01*
X115477323Y-93726252D01*
X115479401Y-93726434D01*
G37*
%TD.AperFunction*%
%TD*%
%TA.AperFunction,Conductor*%
%TO.N,Net-(J1-DAT3{slash}CD)*%
G36*
X113313101Y-93819695D02*
G01*
X113959385Y-93989091D01*
X113963492Y-93991091D01*
X113964494Y-93991852D01*
X113969010Y-93999584D01*
X113966743Y-94008235D01*
X113966524Y-94008524D01*
X113960696Y-94012623D01*
X113366479Y-94198752D01*
X113363790Y-94199259D01*
X113361117Y-94199444D01*
X113358386Y-94199313D01*
X113074573Y-94152011D01*
X113070304Y-94150397D01*
X113068319Y-94149159D01*
X113063367Y-94142796D01*
X113063054Y-94141819D01*
X113062500Y-94138259D01*
X113062500Y-93910768D01*
X113063389Y-93906293D01*
X113064481Y-93903656D01*
X113069142Y-93898182D01*
X113069346Y-93898056D01*
X113071801Y-93896908D01*
X113303198Y-93820015D01*
X113306506Y-93819425D01*
X113309767Y-93819320D01*
X113313101Y-93819695D01*
G37*
%TD.AperFunction*%
%TD*%
%TA.AperFunction,Conductor*%
%TO.N,Net-(J1-DAT3{slash}CD)*%
G36*
X111727373Y-93727449D02*
G01*
X111869534Y-93779634D01*
X111871795Y-93780754D01*
X111873895Y-93782096D01*
X111874661Y-93783193D01*
X111892596Y-93800435D01*
X111892685Y-93800499D01*
X111892686Y-93800500D01*
X111892687Y-93800501D01*
X111892689Y-93800502D01*
X111892753Y-93800548D01*
X111892999Y-93800681D01*
X112006811Y-93866391D01*
X112006815Y-93866393D01*
X112107204Y-93893291D01*
X112132963Y-93900193D01*
X112133219Y-93900290D01*
X112134107Y-93900500D01*
X112183406Y-93900500D01*
X112187881Y-93901390D01*
X112188714Y-93901734D01*
X112189526Y-93902071D01*
X112195858Y-93908399D01*
X112195860Y-93908402D01*
X112196542Y-93910048D01*
X112197433Y-93914527D01*
X112197433Y-94138660D01*
X112196542Y-94143138D01*
X112195530Y-94145581D01*
X112190544Y-94151251D01*
X112190056Y-94151531D01*
X112187220Y-94152695D01*
X111654216Y-94293455D01*
X111649659Y-94293737D01*
X111647894Y-94293498D01*
X111640157Y-94288994D01*
X111639430Y-94288039D01*
X111637144Y-94282518D01*
X111599631Y-94004683D01*
X111599627Y-94001599D01*
X111600018Y-93998618D01*
X111600822Y-93995637D01*
X111634712Y-93914527D01*
X111709592Y-93735308D01*
X111712140Y-93731523D01*
X111713509Y-93730162D01*
X111721533Y-93726765D01*
X111723123Y-93726735D01*
X111727373Y-93727449D01*
G37*
%TD.AperFunction*%
%TD*%
%TA.AperFunction,Conductor*%
%TO.N,Net-(J1-DAT3{slash}CD)*%
G36*
X122217375Y-96009295D02*
G01*
X122791628Y-96343719D01*
X122795049Y-96346742D01*
X122796127Y-96348158D01*
X122798419Y-96356768D01*
X122798398Y-96356928D01*
X122795070Y-96363678D01*
X122794711Y-96364037D01*
X122792326Y-96365874D01*
X122218201Y-96700222D01*
X122213884Y-96701706D01*
X122210718Y-96702135D01*
X122202820Y-96700383D01*
X121867330Y-96484712D01*
X121864044Y-96481539D01*
X121862087Y-96478718D01*
X121860000Y-96472049D01*
X121860000Y-96238714D01*
X121860890Y-96234239D01*
X121861181Y-96233535D01*
X121862204Y-96231065D01*
X121866684Y-96225702D01*
X122202019Y-96010128D01*
X122206264Y-96008458D01*
X122209410Y-96007891D01*
X122217375Y-96009295D01*
G37*
%TD.AperFunction*%
%TD*%
%TA.AperFunction,Conductor*%
%TO.N,Net-(J1-DAT3{slash}CD)*%
G36*
X119784511Y-96227399D02*
G01*
X119788677Y-96229267D01*
X119790744Y-96230736D01*
X119795207Y-96237029D01*
X119795409Y-96237729D01*
X119795868Y-96240973D01*
X119795868Y-96469822D01*
X119794976Y-96474303D01*
X119793814Y-96477106D01*
X119787480Y-96483436D01*
X119787443Y-96483451D01*
X119327711Y-96671873D01*
X119323229Y-96672747D01*
X119321424Y-96672740D01*
X119313193Y-96669310D01*
X119311955Y-96668071D01*
X119309435Y-96664312D01*
X119232602Y-96480423D01*
X119200822Y-96404362D01*
X119200018Y-96401376D01*
X119199627Y-96398402D01*
X119199632Y-96395312D01*
X119237131Y-96117569D01*
X119238612Y-96113255D01*
X119239509Y-96111712D01*
X119246627Y-96106287D01*
X119247914Y-96105946D01*
X119253512Y-96105853D01*
X119784511Y-96227399D01*
G37*
%TD.AperFunction*%
%TD*%
%TA.AperFunction,Conductor*%
%TO.N,Net-(J1-DAT3{slash}CD)*%
G36*
X123417177Y-96009614D02*
G01*
X123522951Y-96077611D01*
X123752670Y-96225287D01*
X123755955Y-96228458D01*
X123757912Y-96231278D01*
X123760000Y-96237949D01*
X123760000Y-96471284D01*
X123759109Y-96475762D01*
X123757795Y-96478934D01*
X123753313Y-96484298D01*
X123417981Y-96699867D01*
X123413734Y-96701539D01*
X123410590Y-96702107D01*
X123402622Y-96700703D01*
X123401186Y-96699867D01*
X123216042Y-96592046D01*
X122828370Y-96366280D01*
X122824949Y-96363257D01*
X122823871Y-96361841D01*
X122821579Y-96353232D01*
X122821601Y-96353067D01*
X122824927Y-96346322D01*
X122825291Y-96345958D01*
X122827661Y-96344131D01*
X123012675Y-96236387D01*
X123401800Y-96009773D01*
X123406108Y-96008292D01*
X123409281Y-96007862D01*
X123417177Y-96009614D01*
G37*
%TD.AperFunction*%
%TD*%
%TA.AperFunction,Conductor*%
%TO.N,Net-(J1-DAT0)*%
G36*
X128897395Y-84463843D02*
G01*
X129203403Y-84618525D01*
X129442842Y-84739558D01*
X129448680Y-84746349D01*
X129448006Y-84755278D01*
X129442842Y-84760442D01*
X128897403Y-85036152D01*
X128888474Y-85036826D01*
X128887625Y-85036510D01*
X128507200Y-84877999D01*
X128500881Y-84871654D01*
X128500000Y-84867199D01*
X128500000Y-84632800D01*
X128503427Y-84624527D01*
X128507200Y-84622000D01*
X128887626Y-84463488D01*
X128896580Y-84463470D01*
X128897395Y-84463843D01*
G37*
%TD.AperFunction*%
%TD*%
%TA.AperFunction,Conductor*%
%TO.N,Net-(J1-DAT0)*%
G36*
X127751559Y-84505301D02*
G01*
X128285347Y-84622976D01*
X128292688Y-84628104D01*
X128294528Y-84634402D01*
X128294528Y-84867233D01*
X128291101Y-84875506D01*
X128287372Y-84878015D01*
X127825620Y-85072606D01*
X127816665Y-85072661D01*
X127810294Y-85066368D01*
X127810280Y-85066335D01*
X127731596Y-84878015D01*
X127700222Y-84802926D01*
X127699424Y-84796855D01*
X127737457Y-84515162D01*
X127741960Y-84507423D01*
X127750618Y-84505134D01*
X127751559Y-84505301D01*
G37*
%TD.AperFunction*%
%TD*%
%TA.AperFunction,Conductor*%
%TO.N,Net-(J1-DAT0)*%
G36*
X116489251Y-98272420D02*
G01*
X116496111Y-98278176D01*
X116497433Y-98283579D01*
X116497433Y-98516420D01*
X116494006Y-98524693D01*
X116489251Y-98527579D01*
X116024998Y-98673950D01*
X116016077Y-98673169D01*
X116010684Y-98667302D01*
X115952305Y-98527579D01*
X115900883Y-98404509D01*
X115900857Y-98395556D01*
X115900862Y-98395542D01*
X116010685Y-98132695D01*
X116017036Y-98126385D01*
X116024996Y-98126049D01*
X116489251Y-98272420D01*
G37*
%TD.AperFunction*%
%TD*%
%TA.AperFunction,Conductor*%
%TO.N,Net-(J1-DAT0)*%
G36*
X122216190Y-101508605D02*
G01*
X122793639Y-101844890D01*
X122799064Y-101852014D01*
X122797861Y-101860888D01*
X122793639Y-101865110D01*
X122216190Y-102201394D01*
X122207316Y-102202597D01*
X122203975Y-102201126D01*
X121865373Y-101983454D01*
X121860267Y-101976097D01*
X121860000Y-101973612D01*
X121860000Y-101736387D01*
X121863427Y-101728114D01*
X121865367Y-101726549D01*
X122203975Y-101508872D01*
X122212787Y-101507282D01*
X122216190Y-101508605D01*
G37*
%TD.AperFunction*%
%TD*%
%TA.AperFunction,Conductor*%
%TO.N,Net-(J1-DAT0)*%
G36*
X114680342Y-93158789D02*
G01*
X114926462Y-93222157D01*
X114930574Y-93224133D01*
X114932673Y-93225712D01*
X114936930Y-93231982D01*
X114937087Y-93232557D01*
X114937500Y-93235639D01*
X114937500Y-93463603D01*
X114936609Y-93468080D01*
X114935605Y-93470504D01*
X114930594Y-93476189D01*
X114930077Y-93476484D01*
X114927196Y-93477652D01*
X114680345Y-93541208D01*
X114677284Y-93541577D01*
X114674278Y-93541540D01*
X114671223Y-93541095D01*
X114040827Y-93361890D01*
X114036765Y-93359810D01*
X114035777Y-93359028D01*
X114031416Y-93351207D01*
X114033864Y-93342593D01*
X114034087Y-93342310D01*
X114040053Y-93338329D01*
X114671230Y-93158900D01*
X114674274Y-93158457D01*
X114677286Y-93158421D01*
X114680342Y-93158789D01*
G37*
%TD.AperFunction*%
%TD*%
%TA.AperFunction,Conductor*%
%TO.N,Net-(J1-DAT0)*%
G36*
X107804178Y-100602092D02*
G01*
X107804524Y-100602256D01*
X107966632Y-100683108D01*
X108180007Y-100789530D01*
X108185881Y-100796289D01*
X108185255Y-100805222D01*
X108180007Y-100810470D01*
X107804559Y-100997726D01*
X107795626Y-100998352D01*
X107795229Y-100998211D01*
X107607592Y-100927847D01*
X107601049Y-100921733D01*
X107600000Y-100916892D01*
X107600000Y-100683108D01*
X107603427Y-100674835D01*
X107607592Y-100672153D01*
X107795231Y-100601788D01*
X107804178Y-100602092D01*
G37*
%TD.AperFunction*%
%TD*%
%TA.AperFunction,Conductor*%
%TO.N,Net-(J1-DAT0)*%
G36*
X106926952Y-100526665D02*
G01*
X107387033Y-100671720D01*
X107391034Y-100673916D01*
X107393176Y-100675713D01*
X107397019Y-100681889D01*
X107397096Y-100682203D01*
X107397433Y-100684990D01*
X107397433Y-100914092D01*
X107396542Y-100918570D01*
X107395471Y-100921155D01*
X107390735Y-100926677D01*
X107390460Y-100926844D01*
X107387905Y-100928003D01*
X106927215Y-101073250D01*
X106922676Y-101073746D01*
X106920598Y-101073564D01*
X106913005Y-101069826D01*
X106912074Y-101068813D01*
X106909892Y-101065407D01*
X106852305Y-100927579D01*
X106801780Y-100806656D01*
X106800876Y-100802181D01*
X106800863Y-100797915D01*
X106801765Y-100793378D01*
X106909788Y-100534839D01*
X106912334Y-100531055D01*
X106913816Y-100529584D01*
X106921567Y-100526193D01*
X106922946Y-100526135D01*
X106926952Y-100526665D01*
G37*
%TD.AperFunction*%
%TD*%
%TA.AperFunction,Conductor*%
%TO.N,Net-(J1-DAT0)*%
G36*
X113325724Y-93158458D02*
G01*
X113328770Y-93158902D01*
X113959171Y-93338109D01*
X113963233Y-93340189D01*
X113964221Y-93340971D01*
X113968582Y-93348792D01*
X113966134Y-93357406D01*
X113966126Y-93357417D01*
X113965911Y-93357688D01*
X113959944Y-93361670D01*
X113328775Y-93541095D01*
X113325720Y-93541540D01*
X113322714Y-93541577D01*
X113319653Y-93541208D01*
X113073536Y-93477841D01*
X113069422Y-93475862D01*
X113067326Y-93474286D01*
X113063069Y-93468012D01*
X113062912Y-93467436D01*
X113062500Y-93464359D01*
X113062500Y-93236395D01*
X113063389Y-93231922D01*
X113063427Y-93231828D01*
X113064394Y-93229495D01*
X113069404Y-93223809D01*
X113069923Y-93223513D01*
X113072797Y-93222348D01*
X113319657Y-93158789D01*
X113322712Y-93158421D01*
X113325724Y-93158458D01*
G37*
%TD.AperFunction*%
%TD*%
%TA.AperFunction,Conductor*%
%TO.N,Net-(J1-DAT0)*%
G36*
X112783078Y-93222475D02*
G01*
X112787254Y-93224308D01*
X112789314Y-93225747D01*
X112793838Y-93232045D01*
X112794055Y-93232785D01*
X112794528Y-93236077D01*
X112794528Y-93464905D01*
X112793638Y-93469382D01*
X112792470Y-93472202D01*
X112786204Y-93478507D01*
X112327764Y-93671702D01*
X112323292Y-93672620D01*
X112321511Y-93672631D01*
X112313219Y-93669257D01*
X112311965Y-93668019D01*
X112309390Y-93664206D01*
X112231596Y-93478015D01*
X112200822Y-93404362D01*
X112200018Y-93401376D01*
X112199627Y-93398401D01*
X112199632Y-93395311D01*
X112237145Y-93117466D01*
X112238629Y-93113147D01*
X112239525Y-93111608D01*
X112246637Y-93106186D01*
X112247959Y-93105836D01*
X112253464Y-93105721D01*
X112783078Y-93222475D01*
G37*
%TD.AperFunction*%
%TD*%
%TA.AperFunction,Conductor*%
%TO.N,Net-(J1-CMD)*%
G36*
X114928718Y-92572738D02*
G01*
X114935875Y-92578119D01*
X114937500Y-92584068D01*
X114937500Y-92815931D01*
X114934073Y-92824204D01*
X114928717Y-92827261D01*
X114678837Y-92891597D01*
X114672721Y-92891521D01*
X114038588Y-92711254D01*
X114031567Y-92705696D01*
X114030533Y-92696801D01*
X114036091Y-92689780D01*
X114038588Y-92688746D01*
X114672721Y-92508477D01*
X114678836Y-92508402D01*
X114928718Y-92572738D01*
G37*
%TD.AperFunction*%
%TD*%
%TA.AperFunction,Conductor*%
%TO.N,Net-(J1-CMD)*%
G36*
X116279401Y-92426434D02*
G01*
X116286993Y-92430172D01*
X116287924Y-92431185D01*
X116288842Y-92433696D01*
X116289167Y-92433560D01*
X116398210Y-92693324D01*
X116399122Y-92697820D01*
X116399134Y-92702083D01*
X116398230Y-92706627D01*
X116290211Y-92965155D01*
X116287663Y-92968942D01*
X116286183Y-92970413D01*
X116278428Y-92973805D01*
X116277053Y-92973863D01*
X116273042Y-92973332D01*
X115812967Y-92828278D01*
X115808965Y-92826082D01*
X115806823Y-92824285D01*
X115802972Y-92818075D01*
X115802895Y-92817760D01*
X115802567Y-92815008D01*
X115802567Y-92585906D01*
X115803456Y-92581431D01*
X115804529Y-92578841D01*
X115809243Y-92573333D01*
X115809521Y-92573163D01*
X115812085Y-92571998D01*
X116272786Y-92426747D01*
X116277323Y-92426252D01*
X116279401Y-92426434D01*
G37*
%TD.AperFunction*%
%TD*%
%TA.AperFunction,Conductor*%
%TO.N,Net-(J1-CMD)*%
G36*
X123416375Y-97111221D02*
G01*
X123667177Y-97355965D01*
X123667279Y-97356066D01*
X123833496Y-97522283D01*
X123836923Y-97530556D01*
X123833496Y-97538829D01*
X123831333Y-97540534D01*
X123415899Y-97794937D01*
X123407054Y-97796335D01*
X123403990Y-97795120D01*
X123403669Y-97794937D01*
X122826895Y-97465753D01*
X122821408Y-97458676D01*
X122822533Y-97449793D01*
X122826792Y-97445490D01*
X123402308Y-97109490D01*
X123411177Y-97108279D01*
X123416375Y-97111221D01*
G37*
%TD.AperFunction*%
%TD*%
%TA.AperFunction,Conductor*%
%TO.N,Net-(J1-CMD)*%
G36*
X122217375Y-97109295D02*
G01*
X122791628Y-97443719D01*
X122795049Y-97446742D01*
X122796127Y-97448158D01*
X122798419Y-97456768D01*
X122798398Y-97456928D01*
X122795070Y-97463678D01*
X122794711Y-97464037D01*
X122792326Y-97465874D01*
X122218201Y-97800222D01*
X122213884Y-97801706D01*
X122210718Y-97802135D01*
X122202820Y-97800383D01*
X121867330Y-97584712D01*
X121864044Y-97581539D01*
X121862087Y-97578718D01*
X121860000Y-97572049D01*
X121860000Y-97338714D01*
X121860890Y-97334239D01*
X121861181Y-97333535D01*
X121862204Y-97331065D01*
X121866684Y-97325702D01*
X122202019Y-97110128D01*
X122206264Y-97108458D01*
X122209410Y-97107891D01*
X122217375Y-97109295D01*
G37*
%TD.AperFunction*%
%TD*%
%TA.AperFunction,Conductor*%
%TO.N,Net-(J1-CMD)*%
G36*
X120544251Y-97327420D02*
G01*
X120551111Y-97333176D01*
X120552433Y-97338579D01*
X120552433Y-97571420D01*
X120549006Y-97579693D01*
X120544251Y-97582579D01*
X120079998Y-97728950D01*
X120071077Y-97728169D01*
X120065684Y-97722302D01*
X120007305Y-97582579D01*
X119955883Y-97459509D01*
X119955857Y-97450556D01*
X119955862Y-97450542D01*
X120065685Y-97187695D01*
X120072036Y-97181385D01*
X120079996Y-97181049D01*
X120544251Y-97327420D01*
G37*
%TD.AperFunction*%
%TD*%
%TA.AperFunction,Conductor*%
%TO.N,Net-(J1-CMD)*%
G36*
X113327278Y-92508478D02*
G01*
X113961411Y-92688746D01*
X113968432Y-92694304D01*
X113969466Y-92703199D01*
X113963908Y-92710220D01*
X113961411Y-92711254D01*
X113327278Y-92891521D01*
X113321162Y-92891597D01*
X113071283Y-92827261D01*
X113064125Y-92821880D01*
X113062500Y-92815931D01*
X113062500Y-92584068D01*
X113065927Y-92575795D01*
X113071280Y-92572739D01*
X113321163Y-92508402D01*
X113327278Y-92508478D01*
G37*
%TD.AperFunction*%
%TD*%
%TA.AperFunction,Conductor*%
%TO.N,Net-(J1-CMD)*%
G36*
X132312368Y-84463486D02*
G01*
X132313233Y-84463847D01*
X132692800Y-84622000D01*
X132699119Y-84628345D01*
X132700000Y-84632800D01*
X132700000Y-84867199D01*
X132696573Y-84875472D01*
X132692800Y-84877999D01*
X132312374Y-85036510D01*
X132303419Y-85036529D01*
X132302596Y-85036152D01*
X131757157Y-84760442D01*
X131751319Y-84753651D01*
X131751993Y-84744722D01*
X131757157Y-84739558D01*
X132302597Y-84463846D01*
X132311525Y-84463173D01*
X132312368Y-84463486D01*
G37*
%TD.AperFunction*%
%TD*%
%TA.AperFunction,Conductor*%
%TO.N,Net-(J1-CMD)*%
G36*
X108606771Y-99802538D02*
G01*
X108790227Y-99871335D01*
X108794106Y-99873740D01*
X108796277Y-99875768D01*
X108799711Y-99881780D01*
X108799721Y-99881825D01*
X108800000Y-99884363D01*
X108800000Y-100114564D01*
X108799109Y-100119043D01*
X108797972Y-100121787D01*
X108793462Y-100127168D01*
X108793426Y-100127191D01*
X108791235Y-100128286D01*
X108606948Y-100197393D01*
X108602443Y-100198131D01*
X108598350Y-100197992D01*
X108593525Y-100196769D01*
X108222073Y-100011507D01*
X108218463Y-100008711D01*
X108217410Y-100007499D01*
X108214571Y-99999006D01*
X108217968Y-99991553D01*
X108218647Y-99990874D01*
X108221692Y-99988682D01*
X108593364Y-99803308D01*
X108597761Y-99802109D01*
X108601850Y-99801823D01*
X108606771Y-99802538D01*
G37*
%TD.AperFunction*%
%TD*%
%TA.AperFunction,Conductor*%
%TO.N,Net-(J1-CLK)*%
G36*
X132312368Y-86363486D02*
G01*
X132313233Y-86363847D01*
X132692800Y-86522000D01*
X132699119Y-86528345D01*
X132700000Y-86532800D01*
X132700000Y-86767199D01*
X132696573Y-86775472D01*
X132692800Y-86777999D01*
X132312374Y-86936510D01*
X132303419Y-86936529D01*
X132302596Y-86936152D01*
X131757157Y-86660442D01*
X131751319Y-86653651D01*
X131751993Y-86644722D01*
X131757157Y-86639558D01*
X132302597Y-86363846D01*
X132311525Y-86363173D01*
X132312368Y-86363486D01*
G37*
%TD.AperFunction*%
%TD*%
%TA.AperFunction,Conductor*%
%TO.N,Net-(J1-CLK)*%
G36*
X133457245Y-86406869D02*
G01*
X133462373Y-86414210D01*
X133462542Y-86415163D01*
X133500575Y-86696852D01*
X133499776Y-86702929D01*
X133389719Y-86966335D01*
X133383367Y-86972647D01*
X133374412Y-86972620D01*
X133374379Y-86972606D01*
X132912628Y-86778015D01*
X132906335Y-86771644D01*
X132905472Y-86767233D01*
X132905472Y-86534402D01*
X132908899Y-86526129D01*
X132914653Y-86522976D01*
X133448429Y-86405303D01*
X133457245Y-86406869D01*
G37*
%TD.AperFunction*%
%TD*%
%TA.AperFunction,Conductor*%
%TO.N,Net-(J1-CLK)*%
G36*
X114680342Y-91858789D02*
G01*
X114926462Y-91922157D01*
X114930574Y-91924133D01*
X114932673Y-91925712D01*
X114936930Y-91931982D01*
X114937087Y-91932557D01*
X114937500Y-91935639D01*
X114937500Y-92163603D01*
X114936609Y-92168080D01*
X114935605Y-92170504D01*
X114930594Y-92176189D01*
X114930077Y-92176484D01*
X114927196Y-92177652D01*
X114680345Y-92241208D01*
X114677284Y-92241577D01*
X114674278Y-92241540D01*
X114671223Y-92241095D01*
X114040827Y-92061890D01*
X114036765Y-92059810D01*
X114035777Y-92059028D01*
X114031416Y-92051207D01*
X114033864Y-92042593D01*
X114034087Y-92042310D01*
X114040053Y-92038329D01*
X114671230Y-91858900D01*
X114674274Y-91858457D01*
X114677286Y-91858421D01*
X114680342Y-91858789D01*
G37*
%TD.AperFunction*%
%TD*%
%TA.AperFunction,Conductor*%
%TO.N,Net-(J1-CLK)*%
G36*
X113325724Y-91858458D02*
G01*
X113328770Y-91858902D01*
X113959171Y-92038109D01*
X113963233Y-92040189D01*
X113964221Y-92040971D01*
X113968582Y-92048792D01*
X113966134Y-92057406D01*
X113966126Y-92057417D01*
X113965911Y-92057688D01*
X113959944Y-92061670D01*
X113328775Y-92241095D01*
X113325720Y-92241540D01*
X113322714Y-92241577D01*
X113319653Y-92241208D01*
X113073536Y-92177841D01*
X113069422Y-92175862D01*
X113067326Y-92174286D01*
X113063069Y-92168012D01*
X113062912Y-92167436D01*
X113062500Y-92164359D01*
X113062500Y-91936395D01*
X113063389Y-91931922D01*
X113063427Y-91931828D01*
X113064394Y-91929495D01*
X113069404Y-91923809D01*
X113069923Y-91923513D01*
X113072797Y-91922348D01*
X113319657Y-91858789D01*
X113322712Y-91858421D01*
X113325724Y-91858458D01*
G37*
%TD.AperFunction*%
%TD*%
%TA.AperFunction,Conductor*%
%TO.N,Net-(J1-CLK)*%
G36*
X117534140Y-90989836D02*
G01*
X117550835Y-90996692D01*
X117797768Y-91098086D01*
X117802630Y-91101817D01*
X117975181Y-91328235D01*
X117977470Y-91336892D01*
X117972967Y-91344633D01*
X117972505Y-91344967D01*
X117529938Y-91649343D01*
X117521180Y-91651208D01*
X117515035Y-91647976D01*
X117350394Y-91483335D01*
X117346967Y-91475062D01*
X117347660Y-91471094D01*
X117393131Y-91344967D01*
X117518691Y-90996689D01*
X117524720Y-90990071D01*
X117533665Y-90989653D01*
X117534140Y-90989836D01*
G37*
%TD.AperFunction*%
%TD*%
%TA.AperFunction,Conductor*%
%TO.N,Net-(J1-CLK)*%
G36*
X107806844Y-98954266D02*
G01*
X107948812Y-99042776D01*
X108183100Y-99188841D01*
X108186429Y-99191968D01*
X108187464Y-99193417D01*
X108189488Y-99202114D01*
X108189430Y-99202467D01*
X108186158Y-99208843D01*
X108186022Y-99208979D01*
X108183939Y-99210635D01*
X107807534Y-99445301D01*
X107803264Y-99446913D01*
X107799934Y-99447467D01*
X107792782Y-99446391D01*
X107558548Y-99329274D01*
X107554944Y-99326477D01*
X107552859Y-99324074D01*
X107550000Y-99316410D01*
X107550000Y-99084558D01*
X107550890Y-99080083D01*
X107551219Y-99079288D01*
X107552106Y-99077146D01*
X107557682Y-99071158D01*
X107792059Y-98953969D01*
X107796458Y-98952764D01*
X107799826Y-98952525D01*
X107806844Y-98954266D01*
G37*
%TD.AperFunction*%
%TD*%
%TA.AperFunction,Conductor*%
%TO.N,Net-(J1-CLK)*%
G36*
X122216190Y-99308605D02*
G01*
X122793639Y-99644890D01*
X122799064Y-99652014D01*
X122797861Y-99660888D01*
X122793639Y-99665110D01*
X122216190Y-100001394D01*
X122207316Y-100002597D01*
X122203975Y-100001126D01*
X121865373Y-99783454D01*
X121860267Y-99776097D01*
X121860000Y-99773612D01*
X121860000Y-99536387D01*
X121863427Y-99528114D01*
X121865367Y-99526549D01*
X122203975Y-99308872D01*
X122212787Y-99307282D01*
X122216190Y-99308605D01*
G37*
%TD.AperFunction*%
%TD*%
%TA.AperFunction,Conductor*%
%TO.N,Net-(J1-VDD)*%
G36*
X128947995Y-85400817D02*
G01*
X128951496Y-85401560D01*
X128954969Y-85402902D01*
X129035084Y-85449708D01*
X129249062Y-85574720D01*
X129444199Y-85688724D01*
X129447612Y-85691747D01*
X129448691Y-85693169D01*
X129450967Y-85701812D01*
X129450944Y-85701982D01*
X129447623Y-85708686D01*
X129447275Y-85709034D01*
X129444904Y-85710863D01*
X128954972Y-85997094D01*
X128951498Y-85998437D01*
X128948771Y-85999015D01*
X128947993Y-85999181D01*
X128944274Y-85999363D01*
X128512721Y-85951413D01*
X128508368Y-85950033D01*
X128506478Y-85948992D01*
X128501082Y-85942614D01*
X128500656Y-85941398D01*
X128500000Y-85937536D01*
X128500000Y-85462798D01*
X128500889Y-85458323D01*
X128501716Y-85456327D01*
X128507450Y-85450264D01*
X128508609Y-85449706D01*
X128512383Y-85448623D01*
X128944279Y-85400635D01*
X128947995Y-85400817D01*
G37*
%TD.AperFunction*%
%TD*%
%TA.AperFunction,Conductor*%
%TO.N,Net-(J1-VDD)*%
G36*
X108342967Y-108368704D02*
G01*
X108683492Y-108709229D01*
X108686919Y-108717502D01*
X108686112Y-108721773D01*
X108645284Y-108825909D01*
X108639074Y-108832360D01*
X108638169Y-108832711D01*
X108009709Y-109047152D01*
X108000773Y-109046581D01*
X107995110Y-109040527D01*
X107878973Y-108757878D01*
X107878998Y-108748923D01*
X107882237Y-108744499D01*
X107909095Y-108721773D01*
X108327138Y-108368044D01*
X108335666Y-108365317D01*
X108342967Y-108368704D01*
G37*
%TD.AperFunction*%
%TD*%
%TA.AperFunction,Conductor*%
%TO.N,Net-(J1-VDD)*%
G36*
X122211660Y-98235097D02*
G01*
X122216363Y-98236455D01*
X122401038Y-98335384D01*
X122790494Y-98544015D01*
X122794018Y-98546912D01*
X122795149Y-98548293D01*
X122797737Y-98556865D01*
X122797726Y-98556968D01*
X122797721Y-98557014D01*
X122794515Y-98563868D01*
X122794039Y-98564362D01*
X122791502Y-98566354D01*
X122215340Y-98901889D01*
X122211613Y-98903278D01*
X122207872Y-98903981D01*
X122203895Y-98904040D01*
X121872183Y-98851914D01*
X121867899Y-98850340D01*
X121865930Y-98849137D01*
X121860905Y-98842775D01*
X121860573Y-98841755D01*
X121860000Y-98838139D01*
X121860000Y-98360753D01*
X121860890Y-98356277D01*
X121861983Y-98353638D01*
X121866631Y-98348169D01*
X121866832Y-98348045D01*
X121869276Y-98346899D01*
X122203012Y-98235380D01*
X122207538Y-98234807D01*
X122211660Y-98235097D01*
G37*
%TD.AperFunction*%
%TD*%
%TA.AperFunction,Conductor*%
%TO.N,Net-(J1-VDD)*%
G36*
X120884858Y-98347691D02*
G01*
X120889079Y-98349432D01*
X120891104Y-98350780D01*
X120895812Y-98357107D01*
X120896069Y-98357950D01*
X120896578Y-98361362D01*
X120896578Y-98838050D01*
X120895687Y-98842527D01*
X120894755Y-98844777D01*
X120889453Y-98850623D01*
X120888677Y-98851037D01*
X120885431Y-98852194D01*
X120166696Y-98993725D01*
X120162130Y-98993716D01*
X120160383Y-98993365D01*
X120152948Y-98988377D01*
X120152141Y-98987163D01*
X120150286Y-98982239D01*
X120131540Y-98842527D01*
X120099312Y-98602325D01*
X120099208Y-98600769D01*
X120099208Y-98599229D01*
X120099312Y-98597673D01*
X120150246Y-98218050D01*
X120151723Y-98213737D01*
X120152620Y-98212191D01*
X120159737Y-98206761D01*
X120161148Y-98206386D01*
X120166404Y-98206217D01*
X120884858Y-98347691D01*
G37*
%TD.AperFunction*%
%TD*%
%TA.AperFunction,Conductor*%
%TO.N,Net-(J1-VDD)*%
G36*
X110665084Y-109020347D02*
G01*
X110668868Y-109023512D01*
X110995401Y-109442811D01*
X110997781Y-109451444D01*
X110995401Y-109457189D01*
X110668868Y-109876487D01*
X110661081Y-109880909D01*
X110656167Y-109880472D01*
X110083230Y-109702555D01*
X110076346Y-109696828D01*
X110075000Y-109691381D01*
X110075000Y-109208618D01*
X110078427Y-109200345D01*
X110083228Y-109197444D01*
X110656167Y-109019527D01*
X110665084Y-109020347D01*
G37*
%TD.AperFunction*%
%TD*%
%TA.AperFunction,Conductor*%
%TO.N,Net-(J1-VDD)*%
G36*
X114064383Y-88105819D02*
G01*
X114787139Y-88248141D01*
X114794594Y-88253102D01*
X114796578Y-88259621D01*
X114796578Y-88740378D01*
X114793151Y-88748651D01*
X114787139Y-88751858D01*
X114064413Y-88894175D01*
X114055633Y-88892411D01*
X114050672Y-88884956D01*
X114050556Y-88884251D01*
X113999208Y-88501550D01*
X113999208Y-88498449D01*
X114050556Y-88115747D01*
X114055053Y-88108004D01*
X114063708Y-88105708D01*
X114064383Y-88105819D01*
G37*
%TD.AperFunction*%
%TD*%
%TA.AperFunction,Conductor*%
%TO.N,Net-(J1-VDD)*%
G36*
X113944366Y-98807588D02*
G01*
X113949327Y-98815043D01*
X113949443Y-98815748D01*
X114000791Y-99198444D01*
X114000791Y-99201556D01*
X113949443Y-99584251D01*
X113944946Y-99591995D01*
X113936291Y-99594291D01*
X113935591Y-99594175D01*
X113797309Y-99566946D01*
X113212861Y-99451858D01*
X113205406Y-99446897D01*
X113203422Y-99440378D01*
X113203422Y-98959621D01*
X113206849Y-98951348D01*
X113212860Y-98948141D01*
X113935588Y-98805824D01*
X113944366Y-98807588D01*
G37*
%TD.AperFunction*%
%TD*%
D29*
X99510000Y-82950000D02*
X139510000Y-82950000D01*
X139510000Y-112950000D01*
X99510000Y-112950000D01*
X99510000Y-82950000D01*
M02*
