M48
; DRILL file KiCad 10.0.0 date 2026-04-17T15:33:50
; FORMAT={-:-/ absolute / metric / decimal}
; #@! TF.CreationDate,2026-04-17T15:33:50+03:00
; #@! TF.GenerationSoftware,Kicad,Pcbnew,10.0.0
; #@! TF.FileFunction,Plated,1,2,PTH
FMAT,2
METRIC
; #@! TA.AperFunction,Plated,PTH,ViaDrill
T1C0.300
; #@! TA.AperFunction,Plated,PTH,ViaDrill
T2C0.400
; #@! TA.AperFunction,Plated,PTH,ComponentDrill
T3C1.000
; #@! TA.AperFunction,Plated,PTH,ComponentDrill
T4C2.200
%
G90
G05
T1
X106.8Y-100.8
X106.8Y-101.6
X111.6Y-94.0
X112.2Y-93.4
X115.6Y-94.0
X115.9Y-98.4
X116.4Y-92.7
X117.8Y-91.1
X119.2Y-96.4
X119.955Y-97.455
X127.7Y-84.8
X133.5Y-86.7
T2
X104.1Y-89.3
X104.1Y-100.1
X106.0Y-97.2
X114.0Y-88.5
X114.0Y-99.2
X114.2Y-111.1
X120.1Y-98.6
X121.1Y-100.8
X133.5Y-85.8
T3
X101.7Y-91.48
X101.7Y-94.02
X101.7Y-96.56
X101.7Y-99.1
X101.7Y-101.64
X101.7Y-104.18
T4
X108.3Y-85.5
X129.3Y-110.4
M30
