%TF.GenerationSoftware,KiCad,Pcbnew,10.0.0*%
%TF.CreationDate,2026-04-17T15:28:18+03:00*%
%TF.ProjectId,5V MicroSD Card Slot With ESD,3556204d-6963-4726-9f53-442043617264,rev?*%
%TF.SameCoordinates,Original*%
%TF.FileFunction,Legend,Top*%
%TF.FilePolarity,Positive*%
%FSLAX46Y46*%
G04 Gerber Fmt 4.6, Leading zero omitted, Abs format (unit mm)*
G04 Created by KiCad (PCBNEW 10.0.0) date 2026-04-17 15:28:18*
%MOMM*%
%LPD*%
G01*
G04 APERTURE LIST*
%ADD10C,0.000000*%
%ADD11C,0.150000*%
%ADD12C,0.200000*%
%ADD13C,0.120000*%
%TA.AperFunction,Profile*%
%ADD14C,0.050000*%
%TD*%
G04 APERTURE END LIST*
D10*
G36*
X136684117Y-107747547D02*
G01*
X136689212Y-107747918D01*
X136694246Y-107748538D01*
X136699203Y-107749407D01*
X136704075Y-107750513D01*
X136708853Y-107751866D01*
X136713519Y-107753437D01*
X136718072Y-107755242D01*
X136722490Y-107757271D01*
X136726775Y-107759516D01*
X136730907Y-107761978D01*
X136734875Y-107764645D01*
X136738672Y-107767518D01*
X136742295Y-107770592D01*
X136745719Y-107773864D01*
X136748941Y-107777316D01*
X136751925Y-107780938D01*
X136754654Y-107784692D01*
X136757111Y-107788552D01*
X136759312Y-107792523D01*
X136761245Y-107796584D01*
X136762911Y-107800737D01*
X136764304Y-107804964D01*
X136765420Y-107809259D01*
X136766265Y-107813606D01*
X136766832Y-107817991D01*
X136767115Y-107822421D01*
X136767115Y-107826867D01*
X136766831Y-107831331D01*
X136766257Y-107835795D01*
X136765390Y-107840254D01*
X136764237Y-107844689D01*
X135946647Y-110623296D01*
X135937596Y-110649905D01*
X135926426Y-110675627D01*
X135913225Y-110700380D01*
X135898083Y-110724095D01*
X135881106Y-110746704D01*
X135862382Y-110768111D01*
X135842004Y-110788255D01*
X135820072Y-110807053D01*
X135796682Y-110824430D01*
X135771920Y-110840314D01*
X135745888Y-110854634D01*
X135718687Y-110867303D01*
X135690401Y-110878246D01*
X135661122Y-110887399D01*
X135630957Y-110894671D01*
X135600000Y-110900000D01*
X134391587Y-111066889D01*
X136114212Y-108089220D01*
X136130700Y-108062422D01*
X136148631Y-108036490D01*
X136167969Y-108011476D01*
X136188639Y-107987398D01*
X136210601Y-107964308D01*
X136233801Y-107942245D01*
X136258192Y-107921234D01*
X136283723Y-107901334D01*
X136310328Y-107882568D01*
X136337973Y-107864978D01*
X136366597Y-107848599D01*
X136396153Y-107833480D01*
X136426583Y-107819647D01*
X136457850Y-107807148D01*
X136489877Y-107796017D01*
X136522632Y-107786285D01*
X136652150Y-107751027D01*
X136655430Y-107750196D01*
X136658743Y-107749467D01*
X136662077Y-107748847D01*
X136665432Y-107748346D01*
X136668798Y-107747946D01*
X136672182Y-107747662D01*
X136675572Y-107747491D01*
X136678967Y-107747427D01*
X136684117Y-107747547D01*
G37*
G36*
X138011731Y-110302332D02*
G01*
X138024565Y-110302878D01*
X138037365Y-110303737D01*
X138050119Y-110304900D01*
X138062815Y-110306379D01*
X138075454Y-110308158D01*
X138088022Y-110310253D01*
X138100513Y-110312646D01*
X138112931Y-110315351D01*
X138118314Y-110318423D01*
X138123472Y-110321738D01*
X138128385Y-110325281D01*
X138133042Y-110329049D01*
X138137438Y-110333025D01*
X138141575Y-110337202D01*
X138145430Y-110341569D01*
X138149012Y-110346116D01*
X138152300Y-110350832D01*
X138155293Y-110355704D01*
X138157977Y-110360733D01*
X138160356Y-110365893D01*
X138162409Y-110371185D01*
X138164136Y-110376587D01*
X138165532Y-110382103D01*
X138166582Y-110387713D01*
X138167278Y-110393384D01*
X138167616Y-110399043D01*
X138167601Y-110404697D01*
X138167234Y-110410333D01*
X138166529Y-110415938D01*
X138165473Y-110421498D01*
X138164091Y-110426991D01*
X138162372Y-110432425D01*
X138160325Y-110437774D01*
X138157950Y-110443029D01*
X138155264Y-110448179D01*
X138152258Y-110453209D01*
X138148943Y-110458120D01*
X138145319Y-110462882D01*
X138141389Y-110467490D01*
X138137164Y-110471933D01*
X138094382Y-110550860D01*
X138084720Y-110567640D01*
X138073648Y-110584951D01*
X138061303Y-110602658D01*
X138047812Y-110620636D01*
X138033307Y-110638743D01*
X138017901Y-110656869D01*
X138001719Y-110674862D01*
X137984899Y-110692600D01*
X137967554Y-110709948D01*
X137949824Y-110726781D01*
X137931831Y-110742968D01*
X137913688Y-110758366D01*
X137895534Y-110772858D01*
X137877496Y-110786303D01*
X137859691Y-110798577D01*
X137842250Y-110809552D01*
X137333437Y-111106967D01*
X137071616Y-111255022D01*
X136807683Y-111400546D01*
X136543779Y-111541924D01*
X136282026Y-111677592D01*
X136024556Y-111805953D01*
X135773494Y-111925431D01*
X135748158Y-111936616D01*
X135720866Y-111947626D01*
X135691883Y-111958380D01*
X135661443Y-111968815D01*
X135597238Y-111988414D01*
X135530286Y-112005818D01*
X135496417Y-112013513D01*
X135462620Y-112020438D01*
X135429161Y-112026507D01*
X135396274Y-112031661D01*
X135364230Y-112035816D01*
X135333270Y-112038897D01*
X135303665Y-112040839D01*
X135275644Y-112041553D01*
X135175049Y-112040060D01*
X135078784Y-112034665D01*
X134987118Y-112024944D01*
X134900310Y-112010475D01*
X134858804Y-112001316D01*
X134818620Y-111990817D01*
X134779772Y-111978911D01*
X134742301Y-111965547D01*
X134706240Y-111950677D01*
X134671627Y-111934240D01*
X134638485Y-111916188D01*
X134606848Y-111896461D01*
X134576752Y-111875017D01*
X134548229Y-111851788D01*
X134521311Y-111826730D01*
X134496028Y-111799789D01*
X134472415Y-111770909D01*
X134450507Y-111740039D01*
X134430333Y-111707114D01*
X134411920Y-111672103D01*
X134395318Y-111634927D01*
X134380545Y-111595554D01*
X134367630Y-111553909D01*
X134356614Y-111509961D01*
X134347539Y-111463647D01*
X134340416Y-111414909D01*
X134335288Y-111363690D01*
X134332192Y-111309951D01*
X135815933Y-111101505D01*
X135823223Y-111100248D01*
X135830476Y-111098855D01*
X135837688Y-111097321D01*
X135844867Y-111095638D01*
X135851993Y-111093810D01*
X135859073Y-111091852D01*
X135866103Y-111089749D01*
X135873078Y-111087513D01*
X135880001Y-111085131D01*
X135886866Y-111082616D01*
X135893667Y-111079966D01*
X135900410Y-111077185D01*
X135907076Y-111074263D01*
X135913682Y-111071213D01*
X135920215Y-111068024D01*
X135926666Y-111064706D01*
X135939313Y-111058183D01*
X135951584Y-111051200D01*
X135963466Y-111043775D01*
X135974952Y-111035919D01*
X135986014Y-111027644D01*
X135996651Y-111018975D01*
X136006842Y-111009913D01*
X136016580Y-111000489D01*
X136025840Y-110990702D01*
X136034612Y-110980577D01*
X136042886Y-110970118D01*
X136050643Y-110959346D01*
X136057873Y-110948273D01*
X136064563Y-110936920D01*
X136070689Y-110925285D01*
X136076247Y-110913397D01*
X136106022Y-110842874D01*
X136119518Y-110813867D01*
X136135039Y-110785889D01*
X136152499Y-110759007D01*
X136171807Y-110733286D01*
X136192878Y-110708782D01*
X136215628Y-110685566D01*
X136239964Y-110663713D01*
X136265804Y-110643267D01*
X136293053Y-110624308D01*
X136321631Y-110606896D01*
X136351446Y-110591102D01*
X136382418Y-110576978D01*
X136414448Y-110564594D01*
X136447460Y-110554022D01*
X136481352Y-110545319D01*
X136516060Y-110538554D01*
X137909146Y-110309170D01*
X137921884Y-110307230D01*
X137934658Y-110305599D01*
X137947471Y-110304282D01*
X137960306Y-110303264D01*
X137973150Y-110302567D01*
X137986010Y-110302174D01*
X137998874Y-110302097D01*
X138011731Y-110302332D01*
G37*
D11*
X103789160Y-91422200D02*
X103932017Y-91469819D01*
X103932017Y-91469819D02*
X104170112Y-91469819D01*
X104170112Y-91469819D02*
X104265350Y-91422200D01*
X104265350Y-91422200D02*
X104312969Y-91374580D01*
X104312969Y-91374580D02*
X104360588Y-91279342D01*
X104360588Y-91279342D02*
X104360588Y-91184104D01*
X104360588Y-91184104D02*
X104312969Y-91088866D01*
X104312969Y-91088866D02*
X104265350Y-91041247D01*
X104265350Y-91041247D02*
X104170112Y-90993628D01*
X104170112Y-90993628D02*
X103979636Y-90946009D01*
X103979636Y-90946009D02*
X103884398Y-90898390D01*
X103884398Y-90898390D02*
X103836779Y-90850771D01*
X103836779Y-90850771D02*
X103789160Y-90755533D01*
X103789160Y-90755533D02*
X103789160Y-90660295D01*
X103789160Y-90660295D02*
X103836779Y-90565057D01*
X103836779Y-90565057D02*
X103884398Y-90517438D01*
X103884398Y-90517438D02*
X103979636Y-90469819D01*
X103979636Y-90469819D02*
X104217731Y-90469819D01*
X104217731Y-90469819D02*
X104360588Y-90517438D01*
X105360588Y-91374580D02*
X105312969Y-91422200D01*
X105312969Y-91422200D02*
X105170112Y-91469819D01*
X105170112Y-91469819D02*
X105074874Y-91469819D01*
X105074874Y-91469819D02*
X104932017Y-91422200D01*
X104932017Y-91422200D02*
X104836779Y-91326961D01*
X104836779Y-91326961D02*
X104789160Y-91231723D01*
X104789160Y-91231723D02*
X104741541Y-91041247D01*
X104741541Y-91041247D02*
X104741541Y-90898390D01*
X104741541Y-90898390D02*
X104789160Y-90707914D01*
X104789160Y-90707914D02*
X104836779Y-90612676D01*
X104836779Y-90612676D02*
X104932017Y-90517438D01*
X104932017Y-90517438D02*
X105074874Y-90469819D01*
X105074874Y-90469819D02*
X105170112Y-90469819D01*
X105170112Y-90469819D02*
X105312969Y-90517438D01*
X105312969Y-90517438D02*
X105360588Y-90565057D01*
X105789160Y-91469819D02*
X105789160Y-90469819D01*
X106360588Y-91469819D02*
X105932017Y-90898390D01*
X106360588Y-90469819D02*
X105789160Y-91041247D01*
X103836779Y-94269819D02*
X103836779Y-93269819D01*
X103836779Y-93269819D02*
X104170112Y-93984104D01*
X104170112Y-93984104D02*
X104503445Y-93269819D01*
X104503445Y-93269819D02*
X104503445Y-94269819D01*
X105170112Y-93269819D02*
X105360588Y-93269819D01*
X105360588Y-93269819D02*
X105455826Y-93317438D01*
X105455826Y-93317438D02*
X105551064Y-93412676D01*
X105551064Y-93412676D02*
X105598683Y-93603152D01*
X105598683Y-93603152D02*
X105598683Y-93936485D01*
X105598683Y-93936485D02*
X105551064Y-94126961D01*
X105551064Y-94126961D02*
X105455826Y-94222200D01*
X105455826Y-94222200D02*
X105360588Y-94269819D01*
X105360588Y-94269819D02*
X105170112Y-94269819D01*
X105170112Y-94269819D02*
X105074874Y-94222200D01*
X105074874Y-94222200D02*
X104979636Y-94126961D01*
X104979636Y-94126961D02*
X104932017Y-93936485D01*
X104932017Y-93936485D02*
X104932017Y-93603152D01*
X104932017Y-93603152D02*
X104979636Y-93412676D01*
X104979636Y-93412676D02*
X105074874Y-93317438D01*
X105074874Y-93317438D02*
X105170112Y-93269819D01*
X105979636Y-94222200D02*
X106122493Y-94269819D01*
X106122493Y-94269819D02*
X106360588Y-94269819D01*
X106360588Y-94269819D02*
X106455826Y-94222200D01*
X106455826Y-94222200D02*
X106503445Y-94174580D01*
X106503445Y-94174580D02*
X106551064Y-94079342D01*
X106551064Y-94079342D02*
X106551064Y-93984104D01*
X106551064Y-93984104D02*
X106503445Y-93888866D01*
X106503445Y-93888866D02*
X106455826Y-93841247D01*
X106455826Y-93841247D02*
X106360588Y-93793628D01*
X106360588Y-93793628D02*
X106170112Y-93746009D01*
X106170112Y-93746009D02*
X106074874Y-93698390D01*
X106074874Y-93698390D02*
X106027255Y-93650771D01*
X106027255Y-93650771D02*
X105979636Y-93555533D01*
X105979636Y-93555533D02*
X105979636Y-93460295D01*
X105979636Y-93460295D02*
X106027255Y-93365057D01*
X106027255Y-93365057D02*
X106074874Y-93317438D01*
X106074874Y-93317438D02*
X106170112Y-93269819D01*
X106170112Y-93269819D02*
X106408207Y-93269819D01*
X106408207Y-93269819D02*
X106551064Y-93317438D01*
X106979636Y-94269819D02*
X106979636Y-93269819D01*
X103836779Y-96769819D02*
X103836779Y-95769819D01*
X103836779Y-95769819D02*
X104170112Y-96484104D01*
X104170112Y-96484104D02*
X104503445Y-95769819D01*
X104503445Y-95769819D02*
X104503445Y-96769819D01*
X104979636Y-96769819D02*
X104979636Y-95769819D01*
X105408207Y-96722200D02*
X105551064Y-96769819D01*
X105551064Y-96769819D02*
X105789159Y-96769819D01*
X105789159Y-96769819D02*
X105884397Y-96722200D01*
X105884397Y-96722200D02*
X105932016Y-96674580D01*
X105932016Y-96674580D02*
X105979635Y-96579342D01*
X105979635Y-96579342D02*
X105979635Y-96484104D01*
X105979635Y-96484104D02*
X105932016Y-96388866D01*
X105932016Y-96388866D02*
X105884397Y-96341247D01*
X105884397Y-96341247D02*
X105789159Y-96293628D01*
X105789159Y-96293628D02*
X105598683Y-96246009D01*
X105598683Y-96246009D02*
X105503445Y-96198390D01*
X105503445Y-96198390D02*
X105455826Y-96150771D01*
X105455826Y-96150771D02*
X105408207Y-96055533D01*
X105408207Y-96055533D02*
X105408207Y-95960295D01*
X105408207Y-95960295D02*
X105455826Y-95865057D01*
X105455826Y-95865057D02*
X105503445Y-95817438D01*
X105503445Y-95817438D02*
X105598683Y-95769819D01*
X105598683Y-95769819D02*
X105836778Y-95769819D01*
X105836778Y-95769819D02*
X105979635Y-95817438D01*
X106598683Y-95769819D02*
X106789159Y-95769819D01*
X106789159Y-95769819D02*
X106884397Y-95817438D01*
X106884397Y-95817438D02*
X106979635Y-95912676D01*
X106979635Y-95912676D02*
X107027254Y-96103152D01*
X107027254Y-96103152D02*
X107027254Y-96436485D01*
X107027254Y-96436485D02*
X106979635Y-96626961D01*
X106979635Y-96626961D02*
X106884397Y-96722200D01*
X106884397Y-96722200D02*
X106789159Y-96769819D01*
X106789159Y-96769819D02*
X106598683Y-96769819D01*
X106598683Y-96769819D02*
X106503445Y-96722200D01*
X106503445Y-96722200D02*
X106408207Y-96626961D01*
X106408207Y-96626961D02*
X106360588Y-96436485D01*
X106360588Y-96436485D02*
X106360588Y-96103152D01*
X106360588Y-96103152D02*
X106408207Y-95912676D01*
X106408207Y-95912676D02*
X106503445Y-95817438D01*
X106503445Y-95817438D02*
X106598683Y-95769819D01*
X104312969Y-100869819D02*
X103836779Y-100869819D01*
X103836779Y-100869819D02*
X103789160Y-101346009D01*
X103789160Y-101346009D02*
X103836779Y-101298390D01*
X103836779Y-101298390D02*
X103932017Y-101250771D01*
X103932017Y-101250771D02*
X104170112Y-101250771D01*
X104170112Y-101250771D02*
X104265350Y-101298390D01*
X104265350Y-101298390D02*
X104312969Y-101346009D01*
X104312969Y-101346009D02*
X104360588Y-101441247D01*
X104360588Y-101441247D02*
X104360588Y-101679342D01*
X104360588Y-101679342D02*
X104312969Y-101774580D01*
X104312969Y-101774580D02*
X104265350Y-101822200D01*
X104265350Y-101822200D02*
X104170112Y-101869819D01*
X104170112Y-101869819D02*
X103932017Y-101869819D01*
X103932017Y-101869819D02*
X103836779Y-101822200D01*
X103836779Y-101822200D02*
X103789160Y-101774580D01*
X104646303Y-100869819D02*
X104979636Y-101869819D01*
X104979636Y-101869819D02*
X105312969Y-100869819D01*
X104360588Y-103517438D02*
X104265350Y-103469819D01*
X104265350Y-103469819D02*
X104122493Y-103469819D01*
X104122493Y-103469819D02*
X103979636Y-103517438D01*
X103979636Y-103517438D02*
X103884398Y-103612676D01*
X103884398Y-103612676D02*
X103836779Y-103707914D01*
X103836779Y-103707914D02*
X103789160Y-103898390D01*
X103789160Y-103898390D02*
X103789160Y-104041247D01*
X103789160Y-104041247D02*
X103836779Y-104231723D01*
X103836779Y-104231723D02*
X103884398Y-104326961D01*
X103884398Y-104326961D02*
X103979636Y-104422200D01*
X103979636Y-104422200D02*
X104122493Y-104469819D01*
X104122493Y-104469819D02*
X104217731Y-104469819D01*
X104217731Y-104469819D02*
X104360588Y-104422200D01*
X104360588Y-104422200D02*
X104408207Y-104374580D01*
X104408207Y-104374580D02*
X104408207Y-104041247D01*
X104408207Y-104041247D02*
X104217731Y-104041247D01*
X104836779Y-104469819D02*
X104836779Y-103469819D01*
X104836779Y-103469819D02*
X105408207Y-104469819D01*
X105408207Y-104469819D02*
X105408207Y-103469819D01*
X105884398Y-104469819D02*
X105884398Y-103469819D01*
X105884398Y-103469819D02*
X106122493Y-103469819D01*
X106122493Y-103469819D02*
X106265350Y-103517438D01*
X106265350Y-103517438D02*
X106360588Y-103612676D01*
X106360588Y-103612676D02*
X106408207Y-103707914D01*
X106408207Y-103707914D02*
X106455826Y-103898390D01*
X106455826Y-103898390D02*
X106455826Y-104041247D01*
X106455826Y-104041247D02*
X106408207Y-104231723D01*
X106408207Y-104231723D02*
X106360588Y-104326961D01*
X106360588Y-104326961D02*
X106265350Y-104422200D01*
X106265350Y-104422200D02*
X106122493Y-104469819D01*
X106122493Y-104469819D02*
X105884398Y-104469819D01*
X103741541Y-106869819D02*
X104360588Y-106869819D01*
X104360588Y-106869819D02*
X104027255Y-107250771D01*
X104027255Y-107250771D02*
X104170112Y-107250771D01*
X104170112Y-107250771D02*
X104265350Y-107298390D01*
X104265350Y-107298390D02*
X104312969Y-107346009D01*
X104312969Y-107346009D02*
X104360588Y-107441247D01*
X104360588Y-107441247D02*
X104360588Y-107679342D01*
X104360588Y-107679342D02*
X104312969Y-107774580D01*
X104312969Y-107774580D02*
X104265350Y-107822200D01*
X104265350Y-107822200D02*
X104170112Y-107869819D01*
X104170112Y-107869819D02*
X103884398Y-107869819D01*
X103884398Y-107869819D02*
X103789160Y-107822200D01*
X103789160Y-107822200D02*
X103741541Y-107774580D01*
X104789160Y-107774580D02*
X104836779Y-107822200D01*
X104836779Y-107822200D02*
X104789160Y-107869819D01*
X104789160Y-107869819D02*
X104741541Y-107822200D01*
X104741541Y-107822200D02*
X104789160Y-107774580D01*
X104789160Y-107774580D02*
X104789160Y-107869819D01*
X105170112Y-106869819D02*
X105789159Y-106869819D01*
X105789159Y-106869819D02*
X105455826Y-107250771D01*
X105455826Y-107250771D02*
X105598683Y-107250771D01*
X105598683Y-107250771D02*
X105693921Y-107298390D01*
X105693921Y-107298390D02*
X105741540Y-107346009D01*
X105741540Y-107346009D02*
X105789159Y-107441247D01*
X105789159Y-107441247D02*
X105789159Y-107679342D01*
X105789159Y-107679342D02*
X105741540Y-107774580D01*
X105741540Y-107774580D02*
X105693921Y-107822200D01*
X105693921Y-107822200D02*
X105598683Y-107869819D01*
X105598683Y-107869819D02*
X105312969Y-107869819D01*
X105312969Y-107869819D02*
X105217731Y-107822200D01*
X105217731Y-107822200D02*
X105170112Y-107774580D01*
X106074874Y-106869819D02*
X106408207Y-107869819D01*
X106408207Y-107869819D02*
X106741540Y-106869819D01*
X108408207Y-107869819D02*
X108074874Y-107393628D01*
X107836779Y-107869819D02*
X107836779Y-106869819D01*
X107836779Y-106869819D02*
X108217731Y-106869819D01*
X108217731Y-106869819D02*
X108312969Y-106917438D01*
X108312969Y-106917438D02*
X108360588Y-106965057D01*
X108360588Y-106965057D02*
X108408207Y-107060295D01*
X108408207Y-107060295D02*
X108408207Y-107203152D01*
X108408207Y-107203152D02*
X108360588Y-107298390D01*
X108360588Y-107298390D02*
X108312969Y-107346009D01*
X108312969Y-107346009D02*
X108217731Y-107393628D01*
X108217731Y-107393628D02*
X107836779Y-107393628D01*
X108836779Y-107346009D02*
X109170112Y-107346009D01*
X109312969Y-107869819D02*
X108836779Y-107869819D01*
X108836779Y-107869819D02*
X108836779Y-106869819D01*
X108836779Y-106869819D02*
X109312969Y-106869819D01*
X110265350Y-106917438D02*
X110170112Y-106869819D01*
X110170112Y-106869819D02*
X110027255Y-106869819D01*
X110027255Y-106869819D02*
X109884398Y-106917438D01*
X109884398Y-106917438D02*
X109789160Y-107012676D01*
X109789160Y-107012676D02*
X109741541Y-107107914D01*
X109741541Y-107107914D02*
X109693922Y-107298390D01*
X109693922Y-107298390D02*
X109693922Y-107441247D01*
X109693922Y-107441247D02*
X109741541Y-107631723D01*
X109741541Y-107631723D02*
X109789160Y-107726961D01*
X109789160Y-107726961D02*
X109884398Y-107822200D01*
X109884398Y-107822200D02*
X110027255Y-107869819D01*
X110027255Y-107869819D02*
X110122493Y-107869819D01*
X110122493Y-107869819D02*
X110265350Y-107822200D01*
X110265350Y-107822200D02*
X110312969Y-107774580D01*
X110312969Y-107774580D02*
X110312969Y-107441247D01*
X110312969Y-107441247D02*
X110122493Y-107441247D01*
X105258207Y-99078002D02*
X105210588Y-99125622D01*
X105210588Y-99125622D02*
X105067731Y-99173241D01*
X105067731Y-99173241D02*
X104972493Y-99173241D01*
X104972493Y-99173241D02*
X104829636Y-99125622D01*
X104829636Y-99125622D02*
X104734398Y-99030383D01*
X104734398Y-99030383D02*
X104686779Y-98935145D01*
X104686779Y-98935145D02*
X104639160Y-98744669D01*
X104639160Y-98744669D02*
X104639160Y-98601812D01*
X104639160Y-98601812D02*
X104686779Y-98411336D01*
X104686779Y-98411336D02*
X104734398Y-98316098D01*
X104734398Y-98316098D02*
X104829636Y-98220860D01*
X104829636Y-98220860D02*
X104972493Y-98173241D01*
X104972493Y-98173241D02*
X105067731Y-98173241D01*
X105067731Y-98173241D02*
X105210588Y-98220860D01*
X105210588Y-98220860D02*
X105258207Y-98268479D01*
X105639160Y-99125622D02*
X105782017Y-99173241D01*
X105782017Y-99173241D02*
X106020112Y-99173241D01*
X106020112Y-99173241D02*
X106115350Y-99125622D01*
X106115350Y-99125622D02*
X106162969Y-99078002D01*
X106162969Y-99078002D02*
X106210588Y-98982764D01*
X106210588Y-98982764D02*
X106210588Y-98887526D01*
X106210588Y-98887526D02*
X106162969Y-98792288D01*
X106162969Y-98792288D02*
X106115350Y-98744669D01*
X106115350Y-98744669D02*
X106020112Y-98697050D01*
X106020112Y-98697050D02*
X105829636Y-98649431D01*
X105829636Y-98649431D02*
X105734398Y-98601812D01*
X105734398Y-98601812D02*
X105686779Y-98554193D01*
X105686779Y-98554193D02*
X105639160Y-98458955D01*
X105639160Y-98458955D02*
X105639160Y-98363717D01*
X105639160Y-98363717D02*
X105686779Y-98268479D01*
X105686779Y-98268479D02*
X105734398Y-98220860D01*
X105734398Y-98220860D02*
X105829636Y-98173241D01*
X105829636Y-98173241D02*
X106067731Y-98173241D01*
X106067731Y-98173241D02*
X106210588Y-98220860D01*
X110512969Y-97669819D02*
X110036779Y-97669819D01*
X110036779Y-97669819D02*
X110036779Y-96669819D01*
X110703446Y-96669819D02*
X111036779Y-97669819D01*
X111036779Y-97669819D02*
X111370112Y-96669819D01*
X112179636Y-97669819D02*
X111703446Y-97669819D01*
X111703446Y-97669819D02*
X111703446Y-96669819D01*
X113227256Y-97622200D02*
X113370113Y-97669819D01*
X113370113Y-97669819D02*
X113608208Y-97669819D01*
X113608208Y-97669819D02*
X113703446Y-97622200D01*
X113703446Y-97622200D02*
X113751065Y-97574580D01*
X113751065Y-97574580D02*
X113798684Y-97479342D01*
X113798684Y-97479342D02*
X113798684Y-97384104D01*
X113798684Y-97384104D02*
X113751065Y-97288866D01*
X113751065Y-97288866D02*
X113703446Y-97241247D01*
X113703446Y-97241247D02*
X113608208Y-97193628D01*
X113608208Y-97193628D02*
X113417732Y-97146009D01*
X113417732Y-97146009D02*
X113322494Y-97098390D01*
X113322494Y-97098390D02*
X113274875Y-97050771D01*
X113274875Y-97050771D02*
X113227256Y-96955533D01*
X113227256Y-96955533D02*
X113227256Y-96860295D01*
X113227256Y-96860295D02*
X113274875Y-96765057D01*
X113274875Y-96765057D02*
X113322494Y-96717438D01*
X113322494Y-96717438D02*
X113417732Y-96669819D01*
X113417732Y-96669819D02*
X113655827Y-96669819D01*
X113655827Y-96669819D02*
X113798684Y-96717438D01*
X114227256Y-97669819D02*
X114227256Y-96669819D01*
X114655827Y-97669819D02*
X114655827Y-97146009D01*
X114655827Y-97146009D02*
X114608208Y-97050771D01*
X114608208Y-97050771D02*
X114512970Y-97003152D01*
X114512970Y-97003152D02*
X114370113Y-97003152D01*
X114370113Y-97003152D02*
X114274875Y-97050771D01*
X114274875Y-97050771D02*
X114227256Y-97098390D01*
X115132018Y-97669819D02*
X115132018Y-97003152D01*
X115132018Y-96669819D02*
X115084399Y-96717438D01*
X115084399Y-96717438D02*
X115132018Y-96765057D01*
X115132018Y-96765057D02*
X115179637Y-96717438D01*
X115179637Y-96717438D02*
X115132018Y-96669819D01*
X115132018Y-96669819D02*
X115132018Y-96765057D01*
X115465351Y-97003152D02*
X115846303Y-97003152D01*
X115608208Y-97669819D02*
X115608208Y-96812676D01*
X115608208Y-96812676D02*
X115655827Y-96717438D01*
X115655827Y-96717438D02*
X115751065Y-96669819D01*
X115751065Y-96669819D02*
X115846303Y-96669819D01*
X116036780Y-97003152D02*
X116417732Y-97003152D01*
X116179637Y-96669819D02*
X116179637Y-97526961D01*
X116179637Y-97526961D02*
X116227256Y-97622200D01*
X116227256Y-97622200D02*
X116322494Y-97669819D01*
X116322494Y-97669819D02*
X116417732Y-97669819D01*
X117132018Y-97622200D02*
X117036780Y-97669819D01*
X117036780Y-97669819D02*
X116846304Y-97669819D01*
X116846304Y-97669819D02*
X116751066Y-97622200D01*
X116751066Y-97622200D02*
X116703447Y-97526961D01*
X116703447Y-97526961D02*
X116703447Y-97146009D01*
X116703447Y-97146009D02*
X116751066Y-97050771D01*
X116751066Y-97050771D02*
X116846304Y-97003152D01*
X116846304Y-97003152D02*
X117036780Y-97003152D01*
X117036780Y-97003152D02*
X117132018Y-97050771D01*
X117132018Y-97050771D02*
X117179637Y-97146009D01*
X117179637Y-97146009D02*
X117179637Y-97241247D01*
X117179637Y-97241247D02*
X116703447Y-97336485D01*
X117608209Y-97669819D02*
X117608209Y-97003152D01*
X117608209Y-97193628D02*
X117655828Y-97098390D01*
X117655828Y-97098390D02*
X117703447Y-97050771D01*
X117703447Y-97050771D02*
X117798685Y-97003152D01*
X117798685Y-97003152D02*
X117893923Y-97003152D01*
X119589160Y-100222200D02*
X119732017Y-100269819D01*
X119732017Y-100269819D02*
X119970112Y-100269819D01*
X119970112Y-100269819D02*
X120065350Y-100222200D01*
X120065350Y-100222200D02*
X120112969Y-100174580D01*
X120112969Y-100174580D02*
X120160588Y-100079342D01*
X120160588Y-100079342D02*
X120160588Y-99984104D01*
X120160588Y-99984104D02*
X120112969Y-99888866D01*
X120112969Y-99888866D02*
X120065350Y-99841247D01*
X120065350Y-99841247D02*
X119970112Y-99793628D01*
X119970112Y-99793628D02*
X119779636Y-99746009D01*
X119779636Y-99746009D02*
X119684398Y-99698390D01*
X119684398Y-99698390D02*
X119636779Y-99650771D01*
X119636779Y-99650771D02*
X119589160Y-99555533D01*
X119589160Y-99555533D02*
X119589160Y-99460295D01*
X119589160Y-99460295D02*
X119636779Y-99365057D01*
X119636779Y-99365057D02*
X119684398Y-99317438D01*
X119684398Y-99317438D02*
X119779636Y-99269819D01*
X119779636Y-99269819D02*
X120017731Y-99269819D01*
X120017731Y-99269819D02*
X120160588Y-99317438D01*
X120589160Y-100269819D02*
X120589160Y-99269819D01*
X120589160Y-99269819D02*
X120827255Y-99269819D01*
X120827255Y-99269819D02*
X120970112Y-99317438D01*
X120970112Y-99317438D02*
X121065350Y-99412676D01*
X121065350Y-99412676D02*
X121112969Y-99507914D01*
X121112969Y-99507914D02*
X121160588Y-99698390D01*
X121160588Y-99698390D02*
X121160588Y-99841247D01*
X121160588Y-99841247D02*
X121112969Y-100031723D01*
X121112969Y-100031723D02*
X121065350Y-100126961D01*
X121065350Y-100126961D02*
X120970112Y-100222200D01*
X120970112Y-100222200D02*
X120827255Y-100269819D01*
X120827255Y-100269819D02*
X120589160Y-100269819D01*
X134113943Y-86160814D02*
X134447276Y-86160814D01*
X134590133Y-86684624D02*
X134113943Y-86684624D01*
X134113943Y-86684624D02*
X134113943Y-85684624D01*
X134113943Y-85684624D02*
X134590133Y-85684624D01*
X134971086Y-86637005D02*
X135113943Y-86684624D01*
X135113943Y-86684624D02*
X135352038Y-86684624D01*
X135352038Y-86684624D02*
X135447276Y-86637005D01*
X135447276Y-86637005D02*
X135494895Y-86589385D01*
X135494895Y-86589385D02*
X135542514Y-86494147D01*
X135542514Y-86494147D02*
X135542514Y-86398909D01*
X135542514Y-86398909D02*
X135494895Y-86303671D01*
X135494895Y-86303671D02*
X135447276Y-86256052D01*
X135447276Y-86256052D02*
X135352038Y-86208433D01*
X135352038Y-86208433D02*
X135161562Y-86160814D01*
X135161562Y-86160814D02*
X135066324Y-86113195D01*
X135066324Y-86113195D02*
X135018705Y-86065576D01*
X135018705Y-86065576D02*
X134971086Y-85970338D01*
X134971086Y-85970338D02*
X134971086Y-85875100D01*
X134971086Y-85875100D02*
X135018705Y-85779862D01*
X135018705Y-85779862D02*
X135066324Y-85732243D01*
X135066324Y-85732243D02*
X135161562Y-85684624D01*
X135161562Y-85684624D02*
X135399657Y-85684624D01*
X135399657Y-85684624D02*
X135542514Y-85732243D01*
X135971086Y-86684624D02*
X135971086Y-85684624D01*
X135971086Y-85684624D02*
X136209181Y-85684624D01*
X136209181Y-85684624D02*
X136352038Y-85732243D01*
X136352038Y-85732243D02*
X136447276Y-85827481D01*
X136447276Y-85827481D02*
X136494895Y-85922719D01*
X136494895Y-85922719D02*
X136542514Y-86113195D01*
X136542514Y-86113195D02*
X136542514Y-86256052D01*
X136542514Y-86256052D02*
X136494895Y-86446528D01*
X136494895Y-86446528D02*
X136447276Y-86541766D01*
X136447276Y-86541766D02*
X136352038Y-86637005D01*
X136352038Y-86637005D02*
X136209181Y-86684624D01*
X136209181Y-86684624D02*
X135971086Y-86684624D01*
D12*
X116322054Y-108899712D02*
X116464911Y-108947331D01*
X116464911Y-108947331D02*
X116703006Y-108947331D01*
X116703006Y-108947331D02*
X116798244Y-108899712D01*
X116798244Y-108899712D02*
X116845863Y-108852092D01*
X116845863Y-108852092D02*
X116893482Y-108756854D01*
X116893482Y-108756854D02*
X116893482Y-108661616D01*
X116893482Y-108661616D02*
X116845863Y-108566378D01*
X116845863Y-108566378D02*
X116798244Y-108518759D01*
X116798244Y-108518759D02*
X116703006Y-108471140D01*
X116703006Y-108471140D02*
X116512530Y-108423521D01*
X116512530Y-108423521D02*
X116417292Y-108375902D01*
X116417292Y-108375902D02*
X116369673Y-108328283D01*
X116369673Y-108328283D02*
X116322054Y-108233045D01*
X116322054Y-108233045D02*
X116322054Y-108137807D01*
X116322054Y-108137807D02*
X116369673Y-108042569D01*
X116369673Y-108042569D02*
X116417292Y-107994950D01*
X116417292Y-107994950D02*
X116512530Y-107947331D01*
X116512530Y-107947331D02*
X116750625Y-107947331D01*
X116750625Y-107947331D02*
X116893482Y-107994950D01*
X117322054Y-108947331D02*
X117322054Y-107947331D01*
X117322054Y-107947331D02*
X117560149Y-107947331D01*
X117560149Y-107947331D02*
X117703006Y-107994950D01*
X117703006Y-107994950D02*
X117798244Y-108090188D01*
X117798244Y-108090188D02*
X117845863Y-108185426D01*
X117845863Y-108185426D02*
X117893482Y-108375902D01*
X117893482Y-108375902D02*
X117893482Y-108518759D01*
X117893482Y-108518759D02*
X117845863Y-108709235D01*
X117845863Y-108709235D02*
X117798244Y-108804473D01*
X117798244Y-108804473D02*
X117703006Y-108899712D01*
X117703006Y-108899712D02*
X117560149Y-108947331D01*
X117560149Y-108947331D02*
X117322054Y-108947331D01*
X118322054Y-108566378D02*
X119083959Y-108566378D01*
X120036339Y-108947331D02*
X119560149Y-108947331D01*
X119560149Y-108947331D02*
X119560149Y-107947331D01*
X120369673Y-108947331D02*
X120369673Y-108280664D01*
X120369673Y-107947331D02*
X120322054Y-107994950D01*
X120322054Y-107994950D02*
X120369673Y-108042569D01*
X120369673Y-108042569D02*
X120417292Y-107994950D01*
X120417292Y-107994950D02*
X120369673Y-107947331D01*
X120369673Y-107947331D02*
X120369673Y-108042569D01*
X120845863Y-108280664D02*
X120845863Y-108947331D01*
X120845863Y-108375902D02*
X120893482Y-108328283D01*
X120893482Y-108328283D02*
X120988720Y-108280664D01*
X120988720Y-108280664D02*
X121131577Y-108280664D01*
X121131577Y-108280664D02*
X121226815Y-108328283D01*
X121226815Y-108328283D02*
X121274434Y-108423521D01*
X121274434Y-108423521D02*
X121274434Y-108947331D01*
X121750625Y-108947331D02*
X121750625Y-107947331D01*
X121845863Y-108566378D02*
X122131577Y-108947331D01*
X122131577Y-108280664D02*
X121750625Y-108661616D01*
X123798244Y-107947331D02*
X123322054Y-107947331D01*
X123322054Y-107947331D02*
X123274435Y-108423521D01*
X123274435Y-108423521D02*
X123322054Y-108375902D01*
X123322054Y-108375902D02*
X123417292Y-108328283D01*
X123417292Y-108328283D02*
X123655387Y-108328283D01*
X123655387Y-108328283D02*
X123750625Y-108375902D01*
X123750625Y-108375902D02*
X123798244Y-108423521D01*
X123798244Y-108423521D02*
X123845863Y-108518759D01*
X123845863Y-108518759D02*
X123845863Y-108756854D01*
X123845863Y-108756854D02*
X123798244Y-108852092D01*
X123798244Y-108852092D02*
X123750625Y-108899712D01*
X123750625Y-108899712D02*
X123655387Y-108947331D01*
X123655387Y-108947331D02*
X123417292Y-108947331D01*
X123417292Y-108947331D02*
X123322054Y-108899712D01*
X123322054Y-108899712D02*
X123274435Y-108852092D01*
X124131578Y-107947331D02*
X124464911Y-108947331D01*
X124464911Y-108947331D02*
X124798244Y-107947331D01*
X116322054Y-109652513D02*
X116369673Y-109604894D01*
X116369673Y-109604894D02*
X116464911Y-109557275D01*
X116464911Y-109557275D02*
X116703006Y-109557275D01*
X116703006Y-109557275D02*
X116798244Y-109604894D01*
X116798244Y-109604894D02*
X116845863Y-109652513D01*
X116845863Y-109652513D02*
X116893482Y-109747751D01*
X116893482Y-109747751D02*
X116893482Y-109842989D01*
X116893482Y-109842989D02*
X116845863Y-109985846D01*
X116845863Y-109985846D02*
X116274435Y-110557275D01*
X116274435Y-110557275D02*
X116893482Y-110557275D01*
X117798244Y-110557275D02*
X117322054Y-110557275D01*
X117322054Y-110557275D02*
X117322054Y-109557275D01*
X118750626Y-109557275D02*
X119322054Y-109557275D01*
X119036340Y-110557275D02*
X119036340Y-109557275D01*
X120036340Y-110509656D02*
X119941102Y-110557275D01*
X119941102Y-110557275D02*
X119750626Y-110557275D01*
X119750626Y-110557275D02*
X119655388Y-110509656D01*
X119655388Y-110509656D02*
X119607769Y-110414417D01*
X119607769Y-110414417D02*
X119607769Y-110033465D01*
X119607769Y-110033465D02*
X119655388Y-109938227D01*
X119655388Y-109938227D02*
X119750626Y-109890608D01*
X119750626Y-109890608D02*
X119941102Y-109890608D01*
X119941102Y-109890608D02*
X120036340Y-109938227D01*
X120036340Y-109938227D02*
X120083959Y-110033465D01*
X120083959Y-110033465D02*
X120083959Y-110128703D01*
X120083959Y-110128703D02*
X119607769Y-110223941D01*
X120941102Y-110509656D02*
X120845864Y-110557275D01*
X120845864Y-110557275D02*
X120655388Y-110557275D01*
X120655388Y-110557275D02*
X120560150Y-110509656D01*
X120560150Y-110509656D02*
X120512531Y-110462036D01*
X120512531Y-110462036D02*
X120464912Y-110366798D01*
X120464912Y-110366798D02*
X120464912Y-110081084D01*
X120464912Y-110081084D02*
X120512531Y-109985846D01*
X120512531Y-109985846D02*
X120560150Y-109938227D01*
X120560150Y-109938227D02*
X120655388Y-109890608D01*
X120655388Y-109890608D02*
X120845864Y-109890608D01*
X120845864Y-109890608D02*
X120941102Y-109938227D01*
X121369674Y-110557275D02*
X121369674Y-109557275D01*
X121798245Y-110557275D02*
X121798245Y-110033465D01*
X121798245Y-110033465D02*
X121750626Y-109938227D01*
X121750626Y-109938227D02*
X121655388Y-109890608D01*
X121655388Y-109890608D02*
X121512531Y-109890608D01*
X121512531Y-109890608D02*
X121417293Y-109938227D01*
X121417293Y-109938227D02*
X121369674Y-109985846D01*
X116322054Y-111881504D02*
X116798244Y-111881504D01*
X116226816Y-112167219D02*
X116560149Y-111167219D01*
X116560149Y-111167219D02*
X116893482Y-112167219D01*
X117226816Y-112167219D02*
X117226816Y-111167219D01*
X117226816Y-111167219D02*
X117607768Y-111167219D01*
X117607768Y-111167219D02*
X117703006Y-111214838D01*
X117703006Y-111214838D02*
X117750625Y-111262457D01*
X117750625Y-111262457D02*
X117798244Y-111357695D01*
X117798244Y-111357695D02*
X117798244Y-111500552D01*
X117798244Y-111500552D02*
X117750625Y-111595790D01*
X117750625Y-111595790D02*
X117703006Y-111643409D01*
X117703006Y-111643409D02*
X117607768Y-111691028D01*
X117607768Y-111691028D02*
X117226816Y-111691028D01*
X118798244Y-112167219D02*
X118464911Y-111691028D01*
X118226816Y-112167219D02*
X118226816Y-111167219D01*
X118226816Y-111167219D02*
X118607768Y-111167219D01*
X118607768Y-111167219D02*
X118703006Y-111214838D01*
X118703006Y-111214838D02*
X118750625Y-111262457D01*
X118750625Y-111262457D02*
X118798244Y-111357695D01*
X118798244Y-111357695D02*
X118798244Y-111500552D01*
X118798244Y-111500552D02*
X118750625Y-111595790D01*
X118750625Y-111595790D02*
X118703006Y-111643409D01*
X118703006Y-111643409D02*
X118607768Y-111691028D01*
X118607768Y-111691028D02*
X118226816Y-111691028D01*
X119941102Y-111262457D02*
X119988721Y-111214838D01*
X119988721Y-111214838D02*
X120083959Y-111167219D01*
X120083959Y-111167219D02*
X120322054Y-111167219D01*
X120322054Y-111167219D02*
X120417292Y-111214838D01*
X120417292Y-111214838D02*
X120464911Y-111262457D01*
X120464911Y-111262457D02*
X120512530Y-111357695D01*
X120512530Y-111357695D02*
X120512530Y-111452933D01*
X120512530Y-111452933D02*
X120464911Y-111595790D01*
X120464911Y-111595790D02*
X119893483Y-112167219D01*
X119893483Y-112167219D02*
X120512530Y-112167219D01*
X121131578Y-111167219D02*
X121226816Y-111167219D01*
X121226816Y-111167219D02*
X121322054Y-111214838D01*
X121322054Y-111214838D02*
X121369673Y-111262457D01*
X121369673Y-111262457D02*
X121417292Y-111357695D01*
X121417292Y-111357695D02*
X121464911Y-111548171D01*
X121464911Y-111548171D02*
X121464911Y-111786266D01*
X121464911Y-111786266D02*
X121417292Y-111976742D01*
X121417292Y-111976742D02*
X121369673Y-112071980D01*
X121369673Y-112071980D02*
X121322054Y-112119600D01*
X121322054Y-112119600D02*
X121226816Y-112167219D01*
X121226816Y-112167219D02*
X121131578Y-112167219D01*
X121131578Y-112167219D02*
X121036340Y-112119600D01*
X121036340Y-112119600D02*
X120988721Y-112071980D01*
X120988721Y-112071980D02*
X120941102Y-111976742D01*
X120941102Y-111976742D02*
X120893483Y-111786266D01*
X120893483Y-111786266D02*
X120893483Y-111548171D01*
X120893483Y-111548171D02*
X120941102Y-111357695D01*
X120941102Y-111357695D02*
X120988721Y-111262457D01*
X120988721Y-111262457D02*
X121036340Y-111214838D01*
X121036340Y-111214838D02*
X121131578Y-111167219D01*
X121845864Y-111262457D02*
X121893483Y-111214838D01*
X121893483Y-111214838D02*
X121988721Y-111167219D01*
X121988721Y-111167219D02*
X122226816Y-111167219D01*
X122226816Y-111167219D02*
X122322054Y-111214838D01*
X122322054Y-111214838D02*
X122369673Y-111262457D01*
X122369673Y-111262457D02*
X122417292Y-111357695D01*
X122417292Y-111357695D02*
X122417292Y-111452933D01*
X122417292Y-111452933D02*
X122369673Y-111595790D01*
X122369673Y-111595790D02*
X121798245Y-112167219D01*
X121798245Y-112167219D02*
X122417292Y-112167219D01*
X123274435Y-111167219D02*
X123083959Y-111167219D01*
X123083959Y-111167219D02*
X122988721Y-111214838D01*
X122988721Y-111214838D02*
X122941102Y-111262457D01*
X122941102Y-111262457D02*
X122845864Y-111405314D01*
X122845864Y-111405314D02*
X122798245Y-111595790D01*
X122798245Y-111595790D02*
X122798245Y-111976742D01*
X122798245Y-111976742D02*
X122845864Y-112071980D01*
X122845864Y-112071980D02*
X122893483Y-112119600D01*
X122893483Y-112119600D02*
X122988721Y-112167219D01*
X122988721Y-112167219D02*
X123179197Y-112167219D01*
X123179197Y-112167219D02*
X123274435Y-112119600D01*
X123274435Y-112119600D02*
X123322054Y-112071980D01*
X123322054Y-112071980D02*
X123369673Y-111976742D01*
X123369673Y-111976742D02*
X123369673Y-111738647D01*
X123369673Y-111738647D02*
X123322054Y-111643409D01*
X123322054Y-111643409D02*
X123274435Y-111595790D01*
X123274435Y-111595790D02*
X123179197Y-111548171D01*
X123179197Y-111548171D02*
X122988721Y-111548171D01*
X122988721Y-111548171D02*
X122893483Y-111595790D01*
X122893483Y-111595790D02*
X122845864Y-111643409D01*
X122845864Y-111643409D02*
X122798245Y-111738647D01*
D11*
X110375595Y-89354819D02*
X110375595Y-90164342D01*
X110375595Y-90164342D02*
X110423214Y-90259580D01*
X110423214Y-90259580D02*
X110470833Y-90307200D01*
X110470833Y-90307200D02*
X110566071Y-90354819D01*
X110566071Y-90354819D02*
X110756547Y-90354819D01*
X110756547Y-90354819D02*
X110851785Y-90307200D01*
X110851785Y-90307200D02*
X110899404Y-90259580D01*
X110899404Y-90259580D02*
X110947023Y-90164342D01*
X110947023Y-90164342D02*
X110947023Y-89354819D01*
X111947023Y-90354819D02*
X111375595Y-90354819D01*
X111661309Y-90354819D02*
X111661309Y-89354819D01*
X111661309Y-89354819D02*
X111566071Y-89497676D01*
X111566071Y-89497676D02*
X111470833Y-89592914D01*
X111470833Y-89592914D02*
X111375595Y-89640533D01*
X120566666Y-97154819D02*
X120566666Y-97869104D01*
X120566666Y-97869104D02*
X120519047Y-98011961D01*
X120519047Y-98011961D02*
X120423809Y-98107200D01*
X120423809Y-98107200D02*
X120280952Y-98154819D01*
X120280952Y-98154819D02*
X120185714Y-98154819D01*
X121566666Y-98154819D02*
X120995238Y-98154819D01*
X121280952Y-98154819D02*
X121280952Y-97154819D01*
X121280952Y-97154819D02*
X121185714Y-97297676D01*
X121185714Y-97297676D02*
X121090476Y-97392914D01*
X121090476Y-97392914D02*
X120995238Y-97440533D01*
X112533333Y-110359580D02*
X112485714Y-110407200D01*
X112485714Y-110407200D02*
X112342857Y-110454819D01*
X112342857Y-110454819D02*
X112247619Y-110454819D01*
X112247619Y-110454819D02*
X112104762Y-110407200D01*
X112104762Y-110407200D02*
X112009524Y-110311961D01*
X112009524Y-110311961D02*
X111961905Y-110216723D01*
X111961905Y-110216723D02*
X111914286Y-110026247D01*
X111914286Y-110026247D02*
X111914286Y-109883390D01*
X111914286Y-109883390D02*
X111961905Y-109692914D01*
X111961905Y-109692914D02*
X112009524Y-109597676D01*
X112009524Y-109597676D02*
X112104762Y-109502438D01*
X112104762Y-109502438D02*
X112247619Y-109454819D01*
X112247619Y-109454819D02*
X112342857Y-109454819D01*
X112342857Y-109454819D02*
X112485714Y-109502438D01*
X112485714Y-109502438D02*
X112533333Y-109550057D01*
X113485714Y-110454819D02*
X112914286Y-110454819D01*
X113200000Y-110454819D02*
X113200000Y-109454819D01*
X113200000Y-109454819D02*
X113104762Y-109597676D01*
X113104762Y-109597676D02*
X113009524Y-109692914D01*
X113009524Y-109692914D02*
X112914286Y-109740533D01*
X105938095Y-111754819D02*
X105938095Y-112564342D01*
X105938095Y-112564342D02*
X105985714Y-112659580D01*
X105985714Y-112659580D02*
X106033333Y-112707200D01*
X106033333Y-112707200D02*
X106128571Y-112754819D01*
X106128571Y-112754819D02*
X106319047Y-112754819D01*
X106319047Y-112754819D02*
X106414285Y-112707200D01*
X106414285Y-112707200D02*
X106461904Y-112659580D01*
X106461904Y-112659580D02*
X106509523Y-112564342D01*
X106509523Y-112564342D02*
X106509523Y-111754819D01*
X106890476Y-111754819D02*
X107509523Y-111754819D01*
X107509523Y-111754819D02*
X107176190Y-112135771D01*
X107176190Y-112135771D02*
X107319047Y-112135771D01*
X107319047Y-112135771D02*
X107414285Y-112183390D01*
X107414285Y-112183390D02*
X107461904Y-112231009D01*
X107461904Y-112231009D02*
X107509523Y-112326247D01*
X107509523Y-112326247D02*
X107509523Y-112564342D01*
X107509523Y-112564342D02*
X107461904Y-112659580D01*
X107461904Y-112659580D02*
X107414285Y-112707200D01*
X107414285Y-112707200D02*
X107319047Y-112754819D01*
X107319047Y-112754819D02*
X107033333Y-112754819D01*
X107033333Y-112754819D02*
X106938095Y-112707200D01*
X106938095Y-112707200D02*
X106890476Y-112659580D01*
X101366666Y-88554819D02*
X101366666Y-89269104D01*
X101366666Y-89269104D02*
X101319047Y-89411961D01*
X101319047Y-89411961D02*
X101223809Y-89507200D01*
X101223809Y-89507200D02*
X101080952Y-89554819D01*
X101080952Y-89554819D02*
X100985714Y-89554819D01*
X101795238Y-88650057D02*
X101842857Y-88602438D01*
X101842857Y-88602438D02*
X101938095Y-88554819D01*
X101938095Y-88554819D02*
X102176190Y-88554819D01*
X102176190Y-88554819D02*
X102271428Y-88602438D01*
X102271428Y-88602438D02*
X102319047Y-88650057D01*
X102319047Y-88650057D02*
X102366666Y-88745295D01*
X102366666Y-88745295D02*
X102366666Y-88840533D01*
X102366666Y-88840533D02*
X102319047Y-88983390D01*
X102319047Y-88983390D02*
X101747619Y-89554819D01*
X101747619Y-89554819D02*
X102366666Y-89554819D01*
X131890476Y-108254819D02*
X131890476Y-107254819D01*
X131890476Y-107254819D02*
X132223809Y-107969104D01*
X132223809Y-107969104D02*
X132557142Y-107254819D01*
X132557142Y-107254819D02*
X132557142Y-108254819D01*
X132985714Y-107350057D02*
X133033333Y-107302438D01*
X133033333Y-107302438D02*
X133128571Y-107254819D01*
X133128571Y-107254819D02*
X133366666Y-107254819D01*
X133366666Y-107254819D02*
X133461904Y-107302438D01*
X133461904Y-107302438D02*
X133509523Y-107350057D01*
X133509523Y-107350057D02*
X133557142Y-107445295D01*
X133557142Y-107445295D02*
X133557142Y-107540533D01*
X133557142Y-107540533D02*
X133509523Y-107683390D01*
X133509523Y-107683390D02*
X132938095Y-108254819D01*
X132938095Y-108254819D02*
X133557142Y-108254819D01*
X108509523Y-103554819D02*
X108176190Y-103078628D01*
X107938095Y-103554819D02*
X107938095Y-102554819D01*
X107938095Y-102554819D02*
X108319047Y-102554819D01*
X108319047Y-102554819D02*
X108414285Y-102602438D01*
X108414285Y-102602438D02*
X108461904Y-102650057D01*
X108461904Y-102650057D02*
X108509523Y-102745295D01*
X108509523Y-102745295D02*
X108509523Y-102888152D01*
X108509523Y-102888152D02*
X108461904Y-102983390D01*
X108461904Y-102983390D02*
X108414285Y-103031009D01*
X108414285Y-103031009D02*
X108319047Y-103078628D01*
X108319047Y-103078628D02*
X107938095Y-103078628D01*
X108938095Y-103554819D02*
X108938095Y-102554819D01*
X108938095Y-102554819D02*
X109509523Y-103554819D01*
X109509523Y-103554819D02*
X109509523Y-102554819D01*
X110509523Y-103554819D02*
X109938095Y-103554819D01*
X110223809Y-103554819D02*
X110223809Y-102554819D01*
X110223809Y-102554819D02*
X110128571Y-102697676D01*
X110128571Y-102697676D02*
X110033333Y-102792914D01*
X110033333Y-102792914D02*
X109938095Y-102840533D01*
X102533333Y-109859580D02*
X102485714Y-109907200D01*
X102485714Y-109907200D02*
X102342857Y-109954819D01*
X102342857Y-109954819D02*
X102247619Y-109954819D01*
X102247619Y-109954819D02*
X102104762Y-109907200D01*
X102104762Y-109907200D02*
X102009524Y-109811961D01*
X102009524Y-109811961D02*
X101961905Y-109716723D01*
X101961905Y-109716723D02*
X101914286Y-109526247D01*
X101914286Y-109526247D02*
X101914286Y-109383390D01*
X101914286Y-109383390D02*
X101961905Y-109192914D01*
X101961905Y-109192914D02*
X102009524Y-109097676D01*
X102009524Y-109097676D02*
X102104762Y-109002438D01*
X102104762Y-109002438D02*
X102247619Y-108954819D01*
X102247619Y-108954819D02*
X102342857Y-108954819D01*
X102342857Y-108954819D02*
X102485714Y-109002438D01*
X102485714Y-109002438D02*
X102533333Y-109050057D01*
X102914286Y-109050057D02*
X102961905Y-109002438D01*
X102961905Y-109002438D02*
X103057143Y-108954819D01*
X103057143Y-108954819D02*
X103295238Y-108954819D01*
X103295238Y-108954819D02*
X103390476Y-109002438D01*
X103390476Y-109002438D02*
X103438095Y-109050057D01*
X103438095Y-109050057D02*
X103485714Y-109145295D01*
X103485714Y-109145295D02*
X103485714Y-109240533D01*
X103485714Y-109240533D02*
X103438095Y-109383390D01*
X103438095Y-109383390D02*
X102866667Y-109954819D01*
X102866667Y-109954819D02*
X103485714Y-109954819D01*
X103590476Y-84454819D02*
X103590476Y-83454819D01*
X103590476Y-83454819D02*
X103923809Y-84169104D01*
X103923809Y-84169104D02*
X104257142Y-83454819D01*
X104257142Y-83454819D02*
X104257142Y-84454819D01*
X105257142Y-84454819D02*
X104685714Y-84454819D01*
X104971428Y-84454819D02*
X104971428Y-83454819D01*
X104971428Y-83454819D02*
X104876190Y-83597676D01*
X104876190Y-83597676D02*
X104780952Y-83692914D01*
X104780952Y-83692914D02*
X104685714Y-83740533D01*
X129838095Y-87554819D02*
X129838095Y-88364342D01*
X129838095Y-88364342D02*
X129885714Y-88459580D01*
X129885714Y-88459580D02*
X129933333Y-88507200D01*
X129933333Y-88507200D02*
X130028571Y-88554819D01*
X130028571Y-88554819D02*
X130219047Y-88554819D01*
X130219047Y-88554819D02*
X130314285Y-88507200D01*
X130314285Y-88507200D02*
X130361904Y-88459580D01*
X130361904Y-88459580D02*
X130409523Y-88364342D01*
X130409523Y-88364342D02*
X130409523Y-87554819D01*
X130838095Y-87650057D02*
X130885714Y-87602438D01*
X130885714Y-87602438D02*
X130980952Y-87554819D01*
X130980952Y-87554819D02*
X131219047Y-87554819D01*
X131219047Y-87554819D02*
X131314285Y-87602438D01*
X131314285Y-87602438D02*
X131361904Y-87650057D01*
X131361904Y-87650057D02*
X131409523Y-87745295D01*
X131409523Y-87745295D02*
X131409523Y-87840533D01*
X131409523Y-87840533D02*
X131361904Y-87983390D01*
X131361904Y-87983390D02*
X130790476Y-88554819D01*
X130790476Y-88554819D02*
X131409523Y-88554819D01*
%TO.C,U1*%
D13*
X108827500Y-90740000D02*
X113447500Y-90740000D01*
X108827500Y-90940000D02*
X108827500Y-90740000D01*
X108827500Y-95960000D02*
X108827500Y-95760000D01*
X113447500Y-90740000D02*
X113447500Y-90940000D01*
X113447500Y-95760000D02*
X113447500Y-95960000D01*
X113447500Y-95960000D02*
X108827500Y-95960000D01*
X108187500Y-90940000D02*
X107847500Y-90470000D01*
X108527500Y-90470000D01*
X108187500Y-90940000D01*
G36*
X108187500Y-90940000D02*
G01*
X107847500Y-90470000D01*
X108527500Y-90470000D01*
X108187500Y-90940000D01*
G37*
%TO.C,J1*%
X122650000Y-91035000D02*
X136660000Y-91035000D01*
X122650000Y-92955000D02*
X122650000Y-91035000D01*
X122650000Y-104555000D02*
X122650000Y-105005000D01*
X122650000Y-105005000D02*
X126260000Y-105005000D01*
X127960000Y-105005000D02*
X132660000Y-105005000D01*
X133960000Y-105005000D02*
X135760000Y-105005000D01*
X138570000Y-101905000D02*
X138570000Y-95535000D01*
X138570000Y-101905000D02*
X138720000Y-101905000D01*
X138720000Y-92515000D02*
X138720000Y-92255000D01*
X138920000Y-92715000D02*
X138720000Y-92515000D01*
X138920000Y-92715000D02*
X138920000Y-95025000D01*
X138920000Y-95025000D02*
X138570000Y-95535000D01*
X138920000Y-102115000D02*
X138720000Y-101905000D01*
X138920000Y-103975000D02*
X138720000Y-104175000D01*
X138920000Y-103975000D02*
X138920000Y-102115000D01*
%TO.C,C1*%
X110490000Y-110084420D02*
X110490000Y-110365580D01*
X111510000Y-110084420D02*
X111510000Y-110365580D01*
%TO.C,U3*%
X105952500Y-108440000D02*
X107772500Y-108440000D01*
X105952500Y-108490000D02*
X105952500Y-108440000D01*
X105952500Y-111560000D02*
X105952500Y-111510000D01*
X107772500Y-108440000D02*
X107772500Y-108490000D01*
X107772500Y-109610000D02*
X107772500Y-110390000D01*
X107772500Y-111510000D02*
X107772500Y-111560000D01*
X107772500Y-111560000D02*
X105952500Y-111560000D01*
X105412500Y-108490000D02*
X105172500Y-108160000D01*
X105652500Y-108160000D01*
X105412500Y-108490000D01*
G36*
X105412500Y-108490000D02*
G01*
X105172500Y-108160000D01*
X105652500Y-108160000D01*
X105412500Y-108490000D01*
G37*
%TO.C,J2*%
X100320000Y-90100000D02*
X101700000Y-90100000D01*
X100320000Y-91480000D02*
X100320000Y-90100000D01*
X100320000Y-92750000D02*
X100320000Y-105560000D01*
X100320000Y-92750000D02*
X103080000Y-92750000D01*
X100320000Y-105560000D02*
X103080000Y-105560000D01*
X103080000Y-92750000D02*
X103080000Y-105560000D01*
%TO.C,RN1*%
X109600000Y-98720000D02*
X108600000Y-98720000D01*
X109600000Y-102080000D02*
X108600000Y-102080000D01*
%TO.C,C2*%
X102365580Y-110490000D02*
X102084420Y-110490000D01*
X102365580Y-111510000D02*
X102084420Y-111510000D01*
%TO.C,U2*%
X129690000Y-84140000D02*
X131510000Y-84140000D01*
X129690000Y-84190000D02*
X129690000Y-84140000D01*
X129690000Y-87260000D02*
X129690000Y-87210000D01*
X131510000Y-84140000D02*
X131510000Y-84190000D01*
X131510000Y-87210000D02*
X131510000Y-87260000D01*
X131510000Y-87260000D02*
X129690000Y-87260000D01*
X132290000Y-87540000D02*
X131810000Y-87540000D01*
X132050000Y-87210000D01*
X132290000Y-87540000D01*
G36*
X132290000Y-87540000D02*
G01*
X131810000Y-87540000D01*
X132050000Y-87210000D01*
X132290000Y-87540000D01*
G37*
%TD*%
D14*
X99510000Y-82950000D02*
X139510000Y-82950000D01*
X139510000Y-112950000D01*
X99510000Y-112950000D01*
X99510000Y-82950000D01*
M02*
